<?xml version="1.0" standalone="no"?>
<!DOCTYPE svg PUBLIC "-//W3C//DTD SVG 1.1//EN" "http://www.w3.org/Graphics/SVG/1.1/DTD/svg11.dtd">
<svg width="2747px" height="1710px" version="1.1" xmlns="http://www.w3.org/2000/svg">

<!-- This file is a systemd-analyze SVG file. It is best rendered in a   -->
<!-- browser such as Chrome, Chromium or Firefox. Other applications     -->
<!-- that render these files properly but much slower are ImageMagick,   -->
<!-- gimp, inkscape, etc. To display the files on your system, just      -->
<!-- point your browser to this file.                                    -->

<!-- This plot was generated by systemd-analyze version 216              -->

<defs>
  <style type="text/css">
    <![CDATA[
      rect       { stroke-width: 1; stroke-opacity: 0; }
      rect.background   { fill: rgb(255,255,255); }
      rect.activating   { fill: rgb(255,0,0); fill-opacity: 0.7; }
      rect.active       { fill: rgb(200,150,150); fill-opacity: 0.7; }
      rect.deactivating { fill: rgb(150,100,100); fill-opacity: 0.7; }
      rect.kernel       { fill: rgb(150,150,150); fill-opacity: 0.7; }
      rect.initrd       { fill: rgb(150,150,150); fill-opacity: 0.7; }
      rect.firmware     { fill: rgb(150,150,150); fill-opacity: 0.7; }
      rect.loader       { fill: rgb(150,150,150); fill-opacity: 0.7; }
      rect.userspace    { fill: rgb(150,150,150); fill-opacity: 0.7; }
      rect.security     { fill: rgb(144,238,144); fill-opacity: 0.7; }
      rect.generators   { fill: rgb(102,204,255); fill-opacity: 0.7; }
      rect.unitsload    { fill: rgb( 82,184,255); fill-opacity: 0.7; }
      rect.box   { fill: rgb(240,240,240); stroke: rgb(192,192,192); }
      line       { stroke: rgb(64,64,64); stroke-width: 1; }
//    line.sec1  { }
      line.sec5  { stroke-width: 2; }
      line.sec01 { stroke: rgb(224,224,224); stroke-width: 1; }
      text       { font-family: Verdana, Helvetica; font-size: 14px; }
      text.left  { font-family: Verdana, Helvetica; font-size: 14px; text-anchor: start; }
      text.right { font-family: Verdana, Helvetica; font-size: 14px; text-anchor: end; }
      text.sec   { font-size: 10px; }
    ]]>
   </style>
</defs>

<rect class="background" width="100%" height="100%" />
<text x="20" y="50">Startup finished in 11.729s (userspace) = 11.729s</text><text x="20" y="30">Linux  (  ) arm lxc</text><g transform="translate(20.000,100)">
<rect class="box" x="0" y="0" width="2667.043" height="1460.000" />
  <line class="sec5" x1="0.000" y1="0" x2="0.000" y2="1460.000" />
  <text class="sec" x="0.000" y="-5.000" >0.0s</text>
  <line class="sec01" x1="10.000" y1="0" x2="10.000" y2="1460.000" />
  <line class="sec01" x1="20.000" y1="0" x2="20.000" y2="1460.000" />
  <line class="sec01" x1="30.000" y1="0" x2="30.000" y2="1460.000" />
  <line class="sec01" x1="40.000" y1="0" x2="40.000" y2="1460.000" />
  <line class="sec01" x1="50.000" y1="0" x2="50.000" y2="1460.000" />
  <line class="sec01" x1="60.000" y1="0" x2="60.000" y2="1460.000" />
  <line class="sec01" x1="70.000" y1="0" x2="70.000" y2="1460.000" />
  <line class="sec01" x1="80.000" y1="0" x2="80.000" y2="1460.000" />
  <line class="sec01" x1="90.000" y1="0" x2="90.000" y2="1460.000" />
  <line class="sec1" x1="100.000" y1="0" x2="100.000" y2="1460.000" />
  <text class="sec" x="100.000" y="-5.000" >1.0s</text>
  <line class="sec01" x1="110.000" y1="0" x2="110.000" y2="1460.000" />
  <line class="sec01" x1="120.000" y1="0" x2="120.000" y2="1460.000" />
  <line class="sec01" x1="130.000" y1="0" x2="130.000" y2="1460.000" />
  <line class="sec01" x1="140.000" y1="0" x2="140.000" y2="1460.000" />
  <line class="sec01" x1="150.000" y1="0" x2="150.000" y2="1460.000" />
  <line class="sec01" x1="160.000" y1="0" x2="160.000" y2="1460.000" />
  <line class="sec01" x1="170.000" y1="0" x2="170.000" y2="1460.000" />
  <line class="sec01" x1="180.000" y1="0" x2="180.000" y2="1460.000" />
  <line class="sec01" x1="190.000" y1="0" x2="190.000" y2="1460.000" />
  <line class="sec1" x1="200.000" y1="0" x2="200.000" y2="1460.000" />
  <text class="sec" x="200.000" y="-5.000" >2.0s</text>
  <line class="sec01" x1="210.000" y1="0" x2="210.000" y2="1460.000" />
  <line class="sec01" x1="220.000" y1="0" x2="220.000" y2="1460.000" />
  <line class="sec01" x1="230.000" y1="0" x2="230.000" y2="1460.000" />
  <line class="sec01" x1="240.000" y1="0" x2="240.000" y2="1460.000" />
  <line class="sec01" x1="250.000" y1="0" x2="250.000" y2="1460.000" />
  <line class="sec01" x1="260.000" y1="0" x2="260.000" y2="1460.000" />
  <line class="sec01" x1="270.000" y1="0" x2="270.000" y2="1460.000" />
  <line class="sec01" x1="280.000" y1="0" x2="280.000" y2="1460.000" />
  <line class="sec01" x1="290.000" y1="0" x2="290.000" y2="1460.000" />
  <line class="sec1" x1="300.000" y1="0" x2="300.000" y2="1460.000" />
  <text class="sec" x="300.000" y="-5.000" >3.0s</text>
  <line class="sec01" x1="310.000" y1="0" x2="310.000" y2="1460.000" />
  <line class="sec01" x1="320.000" y1="0" x2="320.000" y2="1460.000" />
  <line class="sec01" x1="330.000" y1="0" x2="330.000" y2="1460.000" />
  <line class="sec01" x1="340.000" y1="0" x2="340.000" y2="1460.000" />
  <line class="sec01" x1="350.000" y1="0" x2="350.000" y2="1460.000" />
  <line class="sec01" x1="360.000" y1="0" x2="360.000" y2="1460.000" />
  <line class="sec01" x1="370.000" y1="0" x2="370.000" y2="1460.000" />
  <line class="sec01" x1="380.000" y1="0" x2="380.000" y2="1460.000" />
  <line class="sec01" x1="390.000" y1="0" x2="390.000" y2="1460.000" />
  <line class="sec1" x1="400.000" y1="0" x2="400.000" y2="1460.000" />
  <text class="sec" x="400.000" y="-5.000" >4.0s</text>
  <line class="sec01" x1="410.000" y1="0" x2="410.000" y2="1460.000" />
  <line class="sec01" x1="420.000" y1="0" x2="420.000" y2="1460.000" />
  <line class="sec01" x1="430.000" y1="0" x2="430.000" y2="1460.000" />
  <line class="sec01" x1="440.000" y1="0" x2="440.000" y2="1460.000" />
  <line class="sec01" x1="450.000" y1="0" x2="450.000" y2="1460.000" />
  <line class="sec01" x1="460.000" y1="0" x2="460.000" y2="1460.000" />
  <line class="sec01" x1="470.000" y1="0" x2="470.000" y2="1460.000" />
  <line class="sec01" x1="480.000" y1="0" x2="480.000" y2="1460.000" />
  <line class="sec01" x1="490.000" y1="0" x2="490.000" y2="1460.000" />
  <line class="sec5" x1="500.000" y1="0" x2="500.000" y2="1460.000" />
  <text class="sec" x="500.000" y="-5.000" >5.0s</text>
  <line class="sec01" x1="510.000" y1="0" x2="510.000" y2="1460.000" />
  <line class="sec01" x1="520.000" y1="0" x2="520.000" y2="1460.000" />
  <line class="sec01" x1="530.000" y1="0" x2="530.000" y2="1460.000" />
  <line class="sec01" x1="540.000" y1="0" x2="540.000" y2="1460.000" />
  <line class="sec01" x1="550.000" y1="0" x2="550.000" y2="1460.000" />
  <line class="sec01" x1="560.000" y1="0" x2="560.000" y2="1460.000" />
  <line class="sec01" x1="570.000" y1="0" x2="570.000" y2="1460.000" />
  <line class="sec01" x1="580.000" y1="0" x2="580.000" y2="1460.000" />
  <line class="sec01" x1="590.000" y1="0" x2="590.000" y2="1460.000" />
  <line class="sec1" x1="600.000" y1="0" x2="600.000" y2="1460.000" />
  <text class="sec" x="600.000" y="-5.000" >6.0s</text>
  <line class="sec01" x1="610.000" y1="0" x2="610.000" y2="1460.000" />
  <line class="sec01" x1="620.000" y1="0" x2="620.000" y2="1460.000" />
  <line class="sec01" x1="630.000" y1="0" x2="630.000" y2="1460.000" />
  <line class="sec01" x1="640.000" y1="0" x2="640.000" y2="1460.000" />
  <line class="sec01" x1="650.000" y1="0" x2="650.000" y2="1460.000" />
  <line class="sec01" x1="660.000" y1="0" x2="660.000" y2="1460.000" />
  <line class="sec01" x1="670.000" y1="0" x2="670.000" y2="1460.000" />
  <line class="sec01" x1="680.000" y1="0" x2="680.000" y2="1460.000" />
  <line class="sec01" x1="690.000" y1="0" x2="690.000" y2="1460.000" />
  <line class="sec1" x1="700.000" y1="0" x2="700.000" y2="1460.000" />
  <text class="sec" x="700.000" y="-5.000" >7.0s</text>
  <line class="sec01" x1="710.000" y1="0" x2="710.000" y2="1460.000" />
  <line class="sec01" x1="720.000" y1="0" x2="720.000" y2="1460.000" />
  <line class="sec01" x1="730.000" y1="0" x2="730.000" y2="1460.000" />
  <line class="sec01" x1="740.000" y1="0" x2="740.000" y2="1460.000" />
  <line class="sec01" x1="750.000" y1="0" x2="750.000" y2="1460.000" />
  <line class="sec01" x1="760.000" y1="0" x2="760.000" y2="1460.000" />
  <line class="sec01" x1="770.000" y1="0" x2="770.000" y2="1460.000" />
  <line class="sec01" x1="780.000" y1="0" x2="780.000" y2="1460.000" />
  <line class="sec01" x1="790.000" y1="0" x2="790.000" y2="1460.000" />
  <line class="sec1" x1="800.000" y1="0" x2="800.000" y2="1460.000" />
  <text class="sec" x="800.000" y="-5.000" >8.0s</text>
  <line class="sec01" x1="810.000" y1="0" x2="810.000" y2="1460.000" />
  <line class="sec01" x1="820.000" y1="0" x2="820.000" y2="1460.000" />
  <line class="sec01" x1="830.000" y1="0" x2="830.000" y2="1460.000" />
  <line class="sec01" x1="840.000" y1="0" x2="840.000" y2="1460.000" />
  <line class="sec01" x1="850.000" y1="0" x2="850.000" y2="1460.000" />
  <line class="sec01" x1="860.000" y1="0" x2="860.000" y2="1460.000" />
  <line class="sec01" x1="870.000" y1="0" x2="870.000" y2="1460.000" />
  <line class="sec01" x1="880.000" y1="0" x2="880.000" y2="1460.000" />
  <line class="sec01" x1="890.000" y1="0" x2="890.000" y2="1460.000" />
  <line class="sec1" x1="900.000" y1="0" x2="900.000" y2="1460.000" />
  <text class="sec" x="900.000" y="-5.000" >9.0s</text>
  <line class="sec01" x1="910.000" y1="0" x2="910.000" y2="1460.000" />
  <line class="sec01" x1="920.000" y1="0" x2="920.000" y2="1460.000" />
  <line class="sec01" x1="930.000" y1="0" x2="930.000" y2="1460.000" />
  <line class="sec01" x1="940.000" y1="0" x2="940.000" y2="1460.000" />
  <line class="sec01" x1="950.000" y1="0" x2="950.000" y2="1460.000" />
  <line class="sec01" x1="960.000" y1="0" x2="960.000" y2="1460.000" />
  <line class="sec01" x1="970.000" y1="0" x2="970.000" y2="1460.000" />
  <line class="sec01" x1="980.000" y1="0" x2="980.000" y2="1460.000" />
  <line class="sec01" x1="990.000" y1="0" x2="990.000" y2="1460.000" />
  <line class="sec5" x1="1000.000" y1="0" x2="1000.000" y2="1460.000" />
  <text class="sec" x="1000.000" y="-5.000" >10.0s</text>
  <line class="sec01" x1="1010.000" y1="0" x2="1010.000" y2="1460.000" />
  <line class="sec01" x1="1020.000" y1="0" x2="1020.000" y2="1460.000" />
  <line class="sec01" x1="1030.000" y1="0" x2="1030.000" y2="1460.000" />
  <line class="sec01" x1="1040.000" y1="0" x2="1040.000" y2="1460.000" />
  <line class="sec01" x1="1050.000" y1="0" x2="1050.000" y2="1460.000" />
  <line class="sec01" x1="1060.000" y1="0" x2="1060.000" y2="1460.000" />
  <line class="sec01" x1="1070.000" y1="0" x2="1070.000" y2="1460.000" />
  <line class="sec01" x1="1080.000" y1="0" x2="1080.000" y2="1460.000" />
  <line class="sec01" x1="1090.000" y1="0" x2="1090.000" y2="1460.000" />
  <line class="sec1" x1="1100.000" y1="0" x2="1100.000" y2="1460.000" />
  <text class="sec" x="1100.000" y="-5.000" >11.0s</text>
  <line class="sec01" x1="1110.000" y1="0" x2="1110.000" y2="1460.000" />
  <line class="sec01" x1="1120.000" y1="0" x2="1120.000" y2="1460.000" />
  <line class="sec01" x1="1130.000" y1="0" x2="1130.000" y2="1460.000" />
  <line class="sec01" x1="1140.000" y1="0" x2="1140.000" y2="1460.000" />
  <line class="sec01" x1="1150.000" y1="0" x2="1150.000" y2="1460.000" />
  <line class="sec01" x1="1160.000" y1="0" x2="1160.000" y2="1460.000" />
  <line class="sec01" x1="1170.000" y1="0" x2="1170.000" y2="1460.000" />
  <line class="sec01" x1="1180.000" y1="0" x2="1180.000" y2="1460.000" />
  <line class="sec01" x1="1190.000" y1="0" x2="1190.000" y2="1460.000" />
  <line class="sec1" x1="1200.000" y1="0" x2="1200.000" y2="1460.000" />
  <text class="sec" x="1200.000" y="-5.000" >12.0s</text>
  <line class="sec01" x1="1210.000" y1="0" x2="1210.000" y2="1460.000" />
  <line class="sec01" x1="1220.000" y1="0" x2="1220.000" y2="1460.000" />
  <line class="sec01" x1="1230.000" y1="0" x2="1230.000" y2="1460.000" />
  <line class="sec01" x1="1240.000" y1="0" x2="1240.000" y2="1460.000" />
  <line class="sec01" x1="1250.000" y1="0" x2="1250.000" y2="1460.000" />
  <line class="sec01" x1="1260.000" y1="0" x2="1260.000" y2="1460.000" />
  <line class="sec01" x1="1270.000" y1="0" x2="1270.000" y2="1460.000" />
  <line class="sec01" x1="1280.000" y1="0" x2="1280.000" y2="1460.000" />
  <line class="sec01" x1="1290.000" y1="0" x2="1290.000" y2="1460.000" />
  <line class="sec1" x1="1300.000" y1="0" x2="1300.000" y2="1460.000" />
  <text class="sec" x="1300.000" y="-5.000" >13.0s</text>
  <line class="sec01" x1="1310.000" y1="0" x2="1310.000" y2="1460.000" />
  <line class="sec01" x1="1320.000" y1="0" x2="1320.000" y2="1460.000" />
  <line class="sec01" x1="1330.000" y1="0" x2="1330.000" y2="1460.000" />
  <line class="sec01" x1="1340.000" y1="0" x2="1340.000" y2="1460.000" />
  <line class="sec01" x1="1350.000" y1="0" x2="1350.000" y2="1460.000" />
  <line class="sec01" x1="1360.000" y1="0" x2="1360.000" y2="1460.000" />
  <line class="sec01" x1="1370.000" y1="0" x2="1370.000" y2="1460.000" />
  <line class="sec01" x1="1380.000" y1="0" x2="1380.000" y2="1460.000" />
  <line class="sec01" x1="1390.000" y1="0" x2="1390.000" y2="1460.000" />
  <line class="sec1" x1="1400.000" y1="0" x2="1400.000" y2="1460.000" />
  <text class="sec" x="1400.000" y="-5.000" >14.0s</text>
  <line class="sec01" x1="1410.000" y1="0" x2="1410.000" y2="1460.000" />
  <line class="sec01" x1="1420.000" y1="0" x2="1420.000" y2="1460.000" />
  <line class="sec01" x1="1430.000" y1="0" x2="1430.000" y2="1460.000" />
  <line class="sec01" x1="1440.000" y1="0" x2="1440.000" y2="1460.000" />
  <line class="sec01" x1="1450.000" y1="0" x2="1450.000" y2="1460.000" />
  <line class="sec01" x1="1460.000" y1="0" x2="1460.000" y2="1460.000" />
  <line class="sec01" x1="1470.000" y1="0" x2="1470.000" y2="1460.000" />
  <line class="sec01" x1="1480.000" y1="0" x2="1480.000" y2="1460.000" />
  <line class="sec01" x1="1490.000" y1="0" x2="1490.000" y2="1460.000" />
  <line class="sec5" x1="1500.000" y1="0" x2="1500.000" y2="1460.000" />
  <text class="sec" x="1500.000" y="-5.000" >15.0s</text>
  <line class="sec01" x1="1510.000" y1="0" x2="1510.000" y2="1460.000" />
  <line class="sec01" x1="1520.000" y1="0" x2="1520.000" y2="1460.000" />
  <line class="sec01" x1="1530.000" y1="0" x2="1530.000" y2="1460.000" />
  <line class="sec01" x1="1540.000" y1="0" x2="1540.000" y2="1460.000" />
  <line class="sec01" x1="1550.000" y1="0" x2="1550.000" y2="1460.000" />
  <line class="sec01" x1="1560.000" y1="0" x2="1560.000" y2="1460.000" />
  <line class="sec01" x1="1570.000" y1="0" x2="1570.000" y2="1460.000" />
  <line class="sec01" x1="1580.000" y1="0" x2="1580.000" y2="1460.000" />
  <line class="sec01" x1="1590.000" y1="0" x2="1590.000" y2="1460.000" />
  <line class="sec1" x1="1600.000" y1="0" x2="1600.000" y2="1460.000" />
  <text class="sec" x="1600.000" y="-5.000" >16.0s</text>
  <line class="sec01" x1="1610.000" y1="0" x2="1610.000" y2="1460.000" />
  <line class="sec01" x1="1620.000" y1="0" x2="1620.000" y2="1460.000" />
  <line class="sec01" x1="1630.000" y1="0" x2="1630.000" y2="1460.000" />
  <line class="sec01" x1="1640.000" y1="0" x2="1640.000" y2="1460.000" />
  <line class="sec01" x1="1650.000" y1="0" x2="1650.000" y2="1460.000" />
  <line class="sec01" x1="1660.000" y1="0" x2="1660.000" y2="1460.000" />
  <line class="sec01" x1="1670.000" y1="0" x2="1670.000" y2="1460.000" />
  <line class="sec01" x1="1680.000" y1="0" x2="1680.000" y2="1460.000" />
  <line class="sec01" x1="1690.000" y1="0" x2="1690.000" y2="1460.000" />
  <line class="sec1" x1="1700.000" y1="0" x2="1700.000" y2="1460.000" />
  <text class="sec" x="1700.000" y="-5.000" >17.0s</text>
  <line class="sec01" x1="1710.000" y1="0" x2="1710.000" y2="1460.000" />
  <line class="sec01" x1="1720.000" y1="0" x2="1720.000" y2="1460.000" />
  <line class="sec01" x1="1730.000" y1="0" x2="1730.000" y2="1460.000" />
  <line class="sec01" x1="1740.000" y1="0" x2="1740.000" y2="1460.000" />
  <line class="sec01" x1="1750.000" y1="0" x2="1750.000" y2="1460.000" />
  <line class="sec01" x1="1760.000" y1="0" x2="1760.000" y2="1460.000" />
  <line class="sec01" x1="1770.000" y1="0" x2="1770.000" y2="1460.000" />
  <line class="sec01" x1="1780.000" y1="0" x2="1780.000" y2="1460.000" />
  <line class="sec01" x1="1790.000" y1="0" x2="1790.000" y2="1460.000" />
  <line class="sec1" x1="1800.000" y1="0" x2="1800.000" y2="1460.000" />
  <text class="sec" x="1800.000" y="-5.000" >18.0s</text>
  <line class="sec01" x1="1810.000" y1="0" x2="1810.000" y2="1460.000" />
  <line class="sec01" x1="1820.000" y1="0" x2="1820.000" y2="1460.000" />
  <line class="sec01" x1="1830.000" y1="0" x2="1830.000" y2="1460.000" />
  <line class="sec01" x1="1840.000" y1="0" x2="1840.000" y2="1460.000" />
  <line class="sec01" x1="1850.000" y1="0" x2="1850.000" y2="1460.000" />
  <line class="sec01" x1="1860.000" y1="0" x2="1860.000" y2="1460.000" />
  <line class="sec01" x1="1870.000" y1="0" x2="1870.000" y2="1460.000" />
  <line class="sec01" x1="1880.000" y1="0" x2="1880.000" y2="1460.000" />
  <line class="sec01" x1="1890.000" y1="0" x2="1890.000" y2="1460.000" />
  <line class="sec1" x1="1900.000" y1="0" x2="1900.000" y2="1460.000" />
  <text class="sec" x="1900.000" y="-5.000" >19.0s</text>
  <line class="sec01" x1="1910.000" y1="0" x2="1910.000" y2="1460.000" />
  <line class="sec01" x1="1920.000" y1="0" x2="1920.000" y2="1460.000" />
  <line class="sec01" x1="1930.000" y1="0" x2="1930.000" y2="1460.000" />
  <line class="sec01" x1="1940.000" y1="0" x2="1940.000" y2="1460.000" />
  <line class="sec01" x1="1950.000" y1="0" x2="1950.000" y2="1460.000" />
  <line class="sec01" x1="1960.000" y1="0" x2="1960.000" y2="1460.000" />
  <line class="sec01" x1="1970.000" y1="0" x2="1970.000" y2="1460.000" />
  <line class="sec01" x1="1980.000" y1="0" x2="1980.000" y2="1460.000" />
  <line class="sec01" x1="1990.000" y1="0" x2="1990.000" y2="1460.000" />
  <line class="sec5" x1="2000.000" y1="0" x2="2000.000" y2="1460.000" />
  <text class="sec" x="2000.000" y="-5.000" >20.0s</text>
  <line class="sec01" x1="2010.000" y1="0" x2="2010.000" y2="1460.000" />
  <line class="sec01" x1="2020.000" y1="0" x2="2020.000" y2="1460.000" />
  <line class="sec01" x1="2030.000" y1="0" x2="2030.000" y2="1460.000" />
  <line class="sec01" x1="2040.000" y1="0" x2="2040.000" y2="1460.000" />
  <line class="sec01" x1="2050.000" y1="0" x2="2050.000" y2="1460.000" />
  <line class="sec01" x1="2060.000" y1="0" x2="2060.000" y2="1460.000" />
  <line class="sec01" x1="2070.000" y1="0" x2="2070.000" y2="1460.000" />
  <line class="sec01" x1="2080.000" y1="0" x2="2080.000" y2="1460.000" />
  <line class="sec01" x1="2090.000" y1="0" x2="2090.000" y2="1460.000" />
  <line class="sec1" x1="2100.000" y1="0" x2="2100.000" y2="1460.000" />
  <text class="sec" x="2100.000" y="-5.000" >21.0s</text>
  <line class="sec01" x1="2110.000" y1="0" x2="2110.000" y2="1460.000" />
  <line class="sec01" x1="2120.000" y1="0" x2="2120.000" y2="1460.000" />
  <line class="sec01" x1="2130.000" y1="0" x2="2130.000" y2="1460.000" />
  <line class="sec01" x1="2140.000" y1="0" x2="2140.000" y2="1460.000" />
  <line class="sec01" x1="2150.000" y1="0" x2="2150.000" y2="1460.000" />
  <line class="sec01" x1="2160.000" y1="0" x2="2160.000" y2="1460.000" />
  <line class="sec01" x1="2170.000" y1="0" x2="2170.000" y2="1460.000" />
  <line class="sec01" x1="2180.000" y1="0" x2="2180.000" y2="1460.000" />
  <line class="sec01" x1="2190.000" y1="0" x2="2190.000" y2="1460.000" />
  <line class="sec1" x1="2200.000" y1="0" x2="2200.000" y2="1460.000" />
  <text class="sec" x="2200.000" y="-5.000" >22.0s</text>
  <line class="sec01" x1="2210.000" y1="0" x2="2210.000" y2="1460.000" />
  <line class="sec01" x1="2220.000" y1="0" x2="2220.000" y2="1460.000" />
  <line class="sec01" x1="2230.000" y1="0" x2="2230.000" y2="1460.000" />
  <line class="sec01" x1="2240.000" y1="0" x2="2240.000" y2="1460.000" />
  <line class="sec01" x1="2250.000" y1="0" x2="2250.000" y2="1460.000" />
  <line class="sec01" x1="2260.000" y1="0" x2="2260.000" y2="1460.000" />
  <line class="sec01" x1="2270.000" y1="0" x2="2270.000" y2="1460.000" />
  <line class="sec01" x1="2280.000" y1="0" x2="2280.000" y2="1460.000" />
  <line class="sec01" x1="2290.000" y1="0" x2="2290.000" y2="1460.000" />
  <line class="sec1" x1="2300.000" y1="0" x2="2300.000" y2="1460.000" />
  <text class="sec" x="2300.000" y="-5.000" >23.0s</text>
  <line class="sec01" x1="2310.000" y1="0" x2="2310.000" y2="1460.000" />
  <line class="sec01" x1="2320.000" y1="0" x2="2320.000" y2="1460.000" />
  <line class="sec01" x1="2330.000" y1="0" x2="2330.000" y2="1460.000" />
  <line class="sec01" x1="2340.000" y1="0" x2="2340.000" y2="1460.000" />
  <line class="sec01" x1="2350.000" y1="0" x2="2350.000" y2="1460.000" />
  <line class="sec01" x1="2360.000" y1="0" x2="2360.000" y2="1460.000" />
  <line class="sec01" x1="2370.000" y1="0" x2="2370.000" y2="1460.000" />
  <line class="sec01" x1="2380.000" y1="0" x2="2380.000" y2="1460.000" />
  <line class="sec01" x1="2390.000" y1="0" x2="2390.000" y2="1460.000" />
  <line class="sec1" x1="2400.000" y1="0" x2="2400.000" y2="1460.000" />
  <text class="sec" x="2400.000" y="-5.000" >24.0s</text>
  <line class="sec01" x1="2410.000" y1="0" x2="2410.000" y2="1460.000" />
  <line class="sec01" x1="2420.000" y1="0" x2="2420.000" y2="1460.000" />
  <line class="sec01" x1="2430.000" y1="0" x2="2430.000" y2="1460.000" />
  <line class="sec01" x1="2440.000" y1="0" x2="2440.000" y2="1460.000" />
  <line class="sec01" x1="2450.000" y1="0" x2="2450.000" y2="1460.000" />
  <line class="sec01" x1="2460.000" y1="0" x2="2460.000" y2="1460.000" />
  <line class="sec01" x1="2470.000" y1="0" x2="2470.000" y2="1460.000" />
  <line class="sec01" x1="2480.000" y1="0" x2="2480.000" y2="1460.000" />
  <line class="sec01" x1="2490.000" y1="0" x2="2490.000" y2="1460.000" />
  <line class="sec5" x1="2500.000" y1="0" x2="2500.000" y2="1460.000" />
  <text class="sec" x="2500.000" y="-5.000" >25.0s</text>
  <line class="sec01" x1="2510.000" y1="0" x2="2510.000" y2="1460.000" />
  <line class="sec01" x1="2520.000" y1="0" x2="2520.000" y2="1460.000" />
  <line class="sec01" x1="2530.000" y1="0" x2="2530.000" y2="1460.000" />
  <line class="sec01" x1="2540.000" y1="0" x2="2540.000" y2="1460.000" />
  <line class="sec01" x1="2550.000" y1="0" x2="2550.000" y2="1460.000" />
  <line class="sec01" x1="2560.000" y1="0" x2="2560.000" y2="1460.000" />
  <line class="sec01" x1="2570.000" y1="0" x2="2570.000" y2="1460.000" />
  <line class="sec01" x1="2580.000" y1="0" x2="2580.000" y2="1460.000" />
  <line class="sec01" x1="2590.000" y1="0" x2="2590.000" y2="1460.000" />
  <line class="sec1" x1="2600.000" y1="0" x2="2600.000" y2="1460.000" />
  <text class="sec" x="2600.000" y="-5.000" >26.0s</text>
  <line class="sec01" x1="2610.000" y1="0" x2="2610.000" y2="1460.000" />
  <line class="sec01" x1="2620.000" y1="0" x2="2620.000" y2="1460.000" />
  <line class="sec01" x1="2630.000" y1="0" x2="2630.000" y2="1460.000" />
  <line class="sec01" x1="2640.000" y1="0" x2="2640.000" y2="1460.000" />
  <line class="sec01" x1="2650.000" y1="0" x2="2650.000" y2="1460.000" />
  <line class="sec01" x1="2660.000" y1="0" x2="2660.000" y2="1460.000" />
  <rect class="active" x="1494.120" y="0.000" width="1172.923" height="19.000" />
  <rect class="security" x="0.000" y="0.000" width="0.000" height="19.000" />
  <rect class="generators" x="1496.347" y="0.000" width="8.849" height="19.000" />
  <rect class="unitsload" x="1506.145" y="0.000" width="12.342" height="19.000" />
  <text class="left" x="1499.120" y="14.000">systemd</text>
  <rect class="activating" x="1518.506" y="20.000" width="0.000" height="19.000" />
  <rect class="active" x="1518.506" y="20.000" width="1148.537" height="19.000" />
  <rect class="deactivating" x="2667.043" y="20.000" width="0.000" height="19.000" />
  <text class="right" x="1513.506" y="34.000">-.mount</text>
  <rect class="activating" x="1518.517" y="40.000" width="0.000" height="19.000" />
  <rect class="active" x="1518.517" y="40.000" width="1148.526" height="19.000" />
  <rect class="deactivating" x="2667.043" y="40.000" width="0.000" height="19.000" />
  <text class="right" x="1513.517" y="54.000">opt-container.mount</text>
  <rect class="activating" x="1518.519" y="60.000" width="0.000" height="19.000" />
  <rect class="active" x="1518.519" y="60.000" width="1148.524" height="19.000" />
  <rect class="deactivating" x="2667.043" y="60.000" width="0.000" height="19.000" />
  <text class="right" x="1513.519" y="74.000">opt-container-local.mount</text>
  <rect class="activating" x="1518.521" y="80.000" width="0.000" height="19.000" />
  <rect class="active" x="1518.521" y="80.000" width="1148.523" height="19.000" />
  <rect class="deactivating" x="2667.043" y="80.000" width="0.000" height="19.000" />
  <text class="right" x="1513.521" y="94.000">var-lib-lxc.mount</text>
  <rect class="activating" x="1518.522" y="100.000" width="0.000" height="19.000" />
  <rect class="active" x="1518.522" y="100.000" width="1148.521" height="19.000" />
  <rect class="deactivating" x="2667.043" y="100.000" width="0.000" height="19.000" />
  <text class="right" x="1513.522" y="114.000">essential.mount</text>
  <rect class="activating" x="1518.524" y="120.000" width="0.000" height="19.000" />
  <rect class="active" x="1518.524" y="120.000" width="1148.519" height="19.000" />
  <rect class="deactivating" x="2667.043" y="120.000" width="0.000" height="19.000" />
  <text class="right" x="1513.524" y="134.000">boot.mount</text>
  <rect class="activating" x="1518.524" y="140.000" width="0.000" height="19.000" />
  <rect class="active" x="1518.524" y="140.000" width="1148.519" height="19.000" />
  <rect class="deactivating" x="2667.043" y="140.000" width="0.000" height="19.000" />
  <text class="right" x="1513.524" y="154.000">host-proc.mount</text>
  <rect class="activating" x="1518.528" y="160.000" width="0.000" height="19.000" />
  <rect class="active" x="1518.528" y="160.000" width="1148.515" height="19.000" />
  <rect class="deactivating" x="2667.043" y="160.000" width="0.000" height="19.000" />
  <text class="right" x="1513.528" y="174.000">dev-mmcblk0p2.swap</text>
  <rect class="activating" x="1518.908" y="180.000" width="0.000" height="19.000" />
  <rect class="active" x="1518.908" y="180.000" width="1148.136" height="19.000" />
  <rect class="deactivating" x="2667.043" y="180.000" width="0.000" height="19.000" />
  <text class="right" x="1513.908" y="194.000">systemd-ask-password-wall.path</text>
  <rect class="activating" x="1518.911" y="200.000" width="0.000" height="19.000" />
  <rect class="active" x="1518.911" y="200.000" width="1148.132" height="19.000" />
  <rect class="deactivating" x="2667.043" y="200.000" width="0.000" height="19.000" />
  <text class="right" x="1513.911" y="214.000">remote-fs.target</text>
  <rect class="activating" x="1518.956" y="220.000" width="0.000" height="19.000" />
  <rect class="active" x="1518.956" y="220.000" width="1148.088" height="19.000" />
  <rect class="deactivating" x="2667.043" y="220.000" width="0.000" height="19.000" />
  <text class="right" x="1513.956" y="234.000">systemd-ask-password-console.path</text>
  <rect class="activating" x="1518.959" y="240.000" width="0.000" height="19.000" />
  <rect class="active" x="1518.959" y="240.000" width="1148.084" height="19.000" />
  <rect class="deactivating" x="2667.043" y="240.000" width="0.000" height="19.000" />
  <text class="right" x="1513.959" y="254.000">paths.target</text>
  <rect class="activating" x="1518.978" y="260.000" width="0.000" height="19.000" />
  <rect class="active" x="1518.978" y="260.000" width="1148.066" height="19.000" />
  <rect class="deactivating" x="2667.043" y="260.000" width="0.000" height="19.000" />
  <text class="right" x="1513.978" y="274.000">swap.target</text>
  <rect class="activating" x="1519.431" y="280.000" width="0.000" height="19.000" />
  <rect class="active" x="1519.431" y="280.000" width="1147.612" height="19.000" />
  <rect class="deactivating" x="2667.043" y="280.000" width="0.000" height="19.000" />
  <text class="right" x="1514.431" y="294.000">-.slice</text>
  <rect class="activating" x="1519.468" y="300.000" width="0.000" height="19.000" />
  <rect class="active" x="1519.468" y="300.000" width="1147.575" height="19.000" />
  <rect class="deactivating" x="2667.043" y="300.000" width="0.000" height="19.000" />
  <text class="right" x="1514.468" y="314.000">systemd-shutdownd.socket</text>
  <rect class="activating" x="1519.498" y="320.000" width="0.000" height="19.000" />
  <rect class="active" x="1519.498" y="320.000" width="1147.546" height="19.000" />
  <rect class="deactivating" x="2667.043" y="320.000" width="0.000" height="19.000" />
  <text class="right" x="1514.498" y="334.000">systemd-initctl.socket</text>
  <rect class="activating" x="1519.527" y="340.000" width="0.000" height="19.000" />
  <rect class="active" x="1519.527" y="340.000" width="1147.516" height="19.000" />
  <rect class="deactivating" x="2667.043" y="340.000" width="0.000" height="19.000" />
  <text class="right" x="1514.527" y="354.000">systemd-journald-dev-log.socket</text>
  <rect class="activating" x="1519.695" y="360.000" width="0.000" height="19.000" />
  <rect class="active" x="1519.695" y="360.000" width="1147.349" height="19.000" />
  <rect class="deactivating" x="2667.043" y="360.000" width="0.000" height="19.000" />
  <text class="right" x="1514.695" y="374.000">user.slice</text>
  <rect class="activating" x="1519.732" y="380.000" width="0.000" height="19.000" />
  <rect class="active" x="1519.732" y="380.000" width="1147.312" height="19.000" />
  <rect class="deactivating" x="2667.043" y="380.000" width="0.000" height="19.000" />
  <text class="right" x="1514.732" y="394.000">systemd-journald.socket</text>
  <rect class="activating" x="1519.870" y="400.000" width="0.000" height="19.000" />
  <rect class="active" x="1519.870" y="400.000" width="1147.174" height="19.000" />
  <rect class="deactivating" x="2667.043" y="400.000" width="0.000" height="19.000" />
  <text class="right" x="1514.870" y="414.000">system.slice</text>
  <rect class="activating" x="1520.165" y="420.000" width="17.746" height="19.000" />
  <rect class="active" x="1537.911" y="420.000" width="1129.132" height="19.000" />
  <rect class="deactivating" x="2667.043" y="420.000" width="0.000" height="19.000" />
  <text class="right" x="1515.165" y="434.000">systemd-remount-fs.service (177ms)</text>
  <rect class="activating" x="1520.511" y="440.000" width="17.070" height="19.000" />
  <rect class="active" x="1537.581" y="440.000" width="1129.462" height="19.000" />
  <rect class="deactivating" x="2667.043" y="440.000" width="0.000" height="19.000" />
  <text class="right" x="1515.511" y="454.000">sys-kernel-debug.mount (170ms)</text>
  <rect class="activating" x="1521.394" y="460.000" width="16.869" height="19.000" />
  <rect class="active" x="1538.263" y="460.000" width="1128.780" height="19.000" />
  <rect class="deactivating" x="2667.043" y="460.000" width="0.000" height="19.000" />
  <text class="right" x="1516.394" y="474.000">systemd-sysctl.service (168ms)</text>
  <rect class="activating" x="1521.960" y="480.000" width="27.713" height="19.000" />
  <rect class="active" x="1549.673" y="480.000" width="1117.370" height="19.000" />
  <rect class="deactivating" x="2667.043" y="480.000" width="0.000" height="19.000" />
  <text class="right" x="1516.960" y="494.000">systemd-udev-trigger.service (277ms)</text>
  <rect class="activating" x="1522.802" y="500.000" width="14.744" height="19.000" />
  <rect class="active" x="1537.546" y="500.000" width="1129.497" height="19.000" />
  <rect class="deactivating" x="2667.043" y="500.000" width="0.000" height="19.000" />
  <text class="right" x="1517.802" y="514.000">sys-kernel-config.mount (147ms)</text>
  <rect class="activating" x="1527.446" y="520.000" width="11.773" height="19.000" />
  <rect class="active" x="1539.218" y="520.000" width="1127.825" height="19.000" />
  <rect class="deactivating" x="2667.043" y="520.000" width="0.000" height="19.000" />
  <text class="right" x="1522.446" y="534.000">kmod-static-nodes.service (117ms)</text>
  <rect class="activating" x="1527.779" y="540.000" width="9.288" height="19.000" />
  <rect class="active" x="1537.067" y="540.000" width="1129.976" height="19.000" />
  <rect class="deactivating" x="2667.043" y="540.000" width="0.000" height="19.000" />
  <text class="right" x="1522.779" y="554.000">dev-mqueue.mount (92ms)</text>
  <rect class="activating" x="1527.982" y="560.000" width="0.000" height="19.000" />
  <rect class="active" x="1527.982" y="560.000" width="1139.062" height="19.000" />
  <rect class="deactivating" x="2667.043" y="560.000" width="0.000" height="19.000" />
  <text class="right" x="1522.982" y="574.000">system-getty.slice</text>
  <rect class="activating" x="1530.815" y="580.000" width="0.000" height="19.000" />
  <rect class="active" x="1530.815" y="580.000" width="1136.228" height="19.000" />
  <rect class="deactivating" x="2667.043" y="580.000" width="0.000" height="19.000" />
  <text class="right" x="1525.815" y="594.000">systemd-journald.service</text>
  <rect class="activating" x="1531.058" y="600.000" width="0.000" height="19.000" />
  <rect class="active" x="1531.058" y="600.000" width="1135.985" height="19.000" />
  <rect class="deactivating" x="2667.043" y="600.000" width="0.000" height="19.000" />
  <text class="right" x="1526.058" y="614.000">slices.target</text>
  <rect class="activating" x="1531.707" y="620.000" width="5.902" height="19.000" />
  <rect class="active" x="1537.609" y="620.000" width="1129.434" height="19.000" />
  <rect class="deactivating" x="2667.043" y="620.000" width="0.000" height="19.000" />
  <text class="right" x="1526.707" y="634.000">tmp.mount (59ms)</text>
  <rect class="activating" x="1545.328" y="640.000" width="5.559" height="19.000" />
  <rect class="active" x="1550.888" y="640.000" width="1116.156" height="19.000" />
  <rect class="deactivating" x="2667.043" y="640.000" width="0.000" height="19.000" />
  <text class="right" x="1540.328" y="654.000">systemd-tmpfiles-setup-dev.service (55ms)</text>
  <rect class="activating" x="1547.328" y="660.000" width="12.178" height="19.000" />
  <rect class="active" x="1559.506" y="660.000" width="1107.537" height="19.000" />
  <rect class="deactivating" x="2667.043" y="660.000" width="0.000" height="19.000" />
  <text class="right" x="1542.328" y="674.000">systemd-random-seed.service (121ms)</text>
  <rect class="activating" x="1552.015" y="680.000" width="0.000" height="19.000" />
  <rect class="active" x="1552.015" y="680.000" width="1115.028" height="19.000" />
  <rect class="deactivating" x="2667.043" y="680.000" width="0.000" height="19.000" />
  <text class="right" x="1547.015" y="694.000">local-fs-pre.target</text>
  <rect class="activating" x="1554.025" y="700.000" width="0.000" height="19.000" />
  <rect class="active" x="1554.025" y="700.000" width="1113.019" height="19.000" />
  <rect class="deactivating" x="2667.043" y="700.000" width="0.000" height="19.000" />
  <text class="right" x="1549.025" y="714.000">local-fs.target</text>
  <rect class="activating" x="1556.301" y="720.000" width="32.378" height="19.000" />
  <rect class="active" x="1588.679" y="720.000" width="1078.364" height="19.000" />
  <rect class="deactivating" x="2667.043" y="720.000" width="0.000" height="19.000" />
  <text class="right" x="1551.301" y="734.000">systemd-tmpfiles-setup.service (323ms)</text>
  <rect class="activating" x="1557.307" y="740.000" width="10.493" height="19.000" />
  <rect class="active" x="1567.801" y="740.000" width="0.000" height="19.000" />
  <rect class="deactivating" x="1567.801" y="740.000" width="0.000" height="19.000" />
  <text class="right" x="1552.307" y="754.000">systemd-journal-flush.service (104ms)</text>
  <rect class="activating" x="1588.821" y="760.000" width="0.000" height="19.000" />
  <rect class="active" x="1588.821" y="760.000" width="1078.222" height="19.000" />
  <rect class="deactivating" x="2667.043" y="760.000" width="0.000" height="19.000" />
  <text class="right" x="1583.821" y="774.000">time-sync.target</text>
  <rect class="activating" x="1589.140" y="780.000" width="6.925" height="19.000" />
  <rect class="active" x="1596.065" y="780.000" width="1070.979" height="19.000" />
  <rect class="deactivating" x="2667.043" y="780.000" width="0.000" height="19.000" />
  <text class="right" x="1584.140" y="794.000">systemd-update-utmp.service (69ms)</text>
  <rect class="activating" x="1598.030" y="800.000" width="0.000" height="19.000" />
  <rect class="active" x="1598.030" y="800.000" width="1069.014" height="19.000" />
  <rect class="deactivating" x="2667.043" y="800.000" width="0.000" height="19.000" />
  <text class="right" x="1593.030" y="814.000">sysinit.target</text>
  <rect class="activating" x="1598.160" y="820.000" width="0.000" height="19.000" />
  <rect class="active" x="1598.160" y="820.000" width="1068.883" height="19.000" />
  <rect class="deactivating" x="2667.043" y="820.000" width="0.000" height="19.000" />
  <text class="right" x="1593.160" y="834.000">uuidd.socket</text>
  <rect class="activating" x="1598.452" y="840.000" width="8.193" height="19.000" />
  <rect class="active" x="1606.645" y="840.000" width="1060.399" height="19.000" />
  <rect class="deactivating" x="2667.043" y="840.000" width="0.000" height="19.000" />
  <text class="right" x="1593.452" y="854.000">sshd.socket (81ms)</text>
  <rect class="activating" x="1598.487" y="860.000" width="0.000" height="19.000" />
  <rect class="active" x="1598.487" y="860.000" width="1068.557" height="19.000" />
  <rect class="deactivating" x="2667.043" y="860.000" width="0.000" height="19.000" />
  <text class="right" x="1593.487" y="874.000">systemd-tmpfiles-clean.timer</text>
  <rect class="activating" x="1598.505" y="880.000" width="0.000" height="19.000" />
  <rect class="active" x="1598.505" y="880.000" width="1068.538" height="19.000" />
  <rect class="deactivating" x="2667.043" y="880.000" width="0.000" height="19.000" />
  <text class="right" x="1593.505" y="894.000">timers.target</text>
  <rect class="activating" x="1598.566" y="900.000" width="0.000" height="19.000" />
  <rect class="active" x="1598.566" y="900.000" width="1068.477" height="19.000" />
  <rect class="deactivating" x="2667.043" y="900.000" width="0.000" height="19.000" />
  <text class="right" x="1593.566" y="914.000">avahi-daemon.socket</text>
  <rect class="activating" x="1601.047" y="920.000" width="0.000" height="19.000" />
  <rect class="active" x="1601.047" y="920.000" width="1065.996" height="19.000" />
  <rect class="deactivating" x="2667.043" y="920.000" width="0.000" height="19.000" />
  <text class="right" x="1596.047" y="934.000">dbus.socket</text>
  <rect class="activating" x="1609.183" y="940.000" width="0.000" height="19.000" />
  <rect class="active" x="1609.183" y="940.000" width="1057.860" height="19.000" />
  <rect class="deactivating" x="2667.043" y="940.000" width="0.000" height="19.000" />
  <text class="right" x="1604.183" y="954.000">sockets.target</text>
  <rect class="activating" x="1611.006" y="960.000" width="0.000" height="19.000" />
  <rect class="active" x="1611.006" y="960.000" width="1056.038" height="19.000" />
  <rect class="deactivating" x="2667.043" y="960.000" width="0.000" height="19.000" />
  <text class="right" x="1606.006" y="974.000">basic.target</text>
  <rect class="activating" x="1613.315" y="980.000" width="66.339" height="19.000" />
  <rect class="active" x="1679.655" y="980.000" width="0.000" height="19.000" />
  <rect class="deactivating" x="1679.655" y="980.000" width="0.000" height="19.000" />
  <text class="right" x="1608.315" y="994.000">chvt.service (663ms)</text>
  <rect class="activating" x="1614.348" y="1000.000" width="62.437" height="19.000" />
  <rect class="active" x="1676.785" y="1000.000" width="990.259" height="19.000" />
  <rect class="deactivating" x="2667.043" y="1000.000" width="0.000" height="19.000" />
  <text class="right" x="1609.348" y="1014.000">avahi-daemon.service (624ms)</text>
  <rect class="activating" x="1634.017" y="1020.000" width="186.596" height="19.000" />
  <rect class="active" x="1820.613" y="1020.000" width="846.431" height="19.000" />
  <rect class="deactivating" x="2667.043" y="1020.000" width="0.000" height="19.000" />
  <text class="right" x="1629.017" y="1034.000">openvswitch-nonetwork.service (1.865s)</text>
  <rect class="activating" x="1635.305" y="1040.000" width="44.855" height="19.000" />
  <rect class="active" x="1680.160" y="1040.000" width="986.884" height="19.000" />
  <rect class="deactivating" x="2667.043" y="1040.000" width="0.000" height="19.000" />
  <text class="right" x="1630.305" y="1054.000">container-shutdown-notifier.service (448ms)</text>
  <rect class="activating" x="1636.315" y="1060.000" width="44.862" height="19.000" />
  <rect class="active" x="1681.177" y="1060.000" width="985.866" height="19.000" />
  <rect class="deactivating" x="2667.043" y="1060.000" width="0.000" height="19.000" />
  <text class="right" x="1631.315" y="1074.000">ebtables.service (448ms)</text>
  <rect class="activating" x="1637.351" y="1080.000" width="0.000" height="19.000" />
  <rect class="active" x="1637.351" y="1080.000" width="1029.692" height="19.000" />
  <rect class="deactivating" x="2667.043" y="1080.000" width="0.000" height="19.000" />
  <text class="right" x="1632.351" y="1094.000">cube-cmd-server.service</text>
  <rect class="activating" x="1639.343" y="1100.000" width="0.000" height="19.000" />
  <rect class="active" x="1639.343" y="1100.000" width="1027.700" height="19.000" />
  <rect class="deactivating" x="2667.043" y="1100.000" width="0.000" height="19.000" />
  <text class="right" x="1634.343" y="1114.000">crond.service</text>
  <rect class="activating" x="1641.314" y="1120.000" width="40.829" height="19.000" />
  <rect class="active" x="1682.143" y="1120.000" width="984.900" height="19.000" />
  <rect class="deactivating" x="2667.043" y="1120.000" width="0.000" height="19.000" />
  <text class="right" x="1636.314" y="1134.000">systemd-user-sessions.service (408ms)</text>
  <rect class="activating" x="1642.995" y="1140.000" width="0.000" height="19.000" />
  <rect class="active" x="1642.995" y="1140.000" width="1024.049" height="19.000" />
  <rect class="deactivating" x="2667.043" y="1140.000" width="0.000" height="19.000" />
  <text class="right" x="1637.995" y="1154.000">dbus.service</text>
  <rect class="activating" x="1678.311" y="1160.000" width="71.480" height="19.000" />
  <rect class="active" x="1749.791" y="1160.000" width="917.253" height="19.000" />
  <rect class="deactivating" x="2667.043" y="1160.000" width="0.000" height="19.000" />
  <text class="right" x="1673.311" y="1174.000">systemd-networkd.service (714ms)</text>
  <rect class="activating" x="1679.310" y="1180.000" width="37.714" height="19.000" />
  <rect class="active" x="1717.024" y="1180.000" width="950.019" height="19.000" />
  <rect class="deactivating" x="2667.043" y="1180.000" width="0.000" height="19.000" />
  <text class="right" x="1674.310" y="1194.000">systemd-logind.service (377ms)</text>
  <rect class="activating" x="1751.295" y="1200.000" width="28.426" height="19.000" />
  <rect class="active" x="1779.721" y="1200.000" width="887.322" height="19.000" />
  <rect class="deactivating" x="2667.043" y="1200.000" width="0.000" height="19.000" />
  <text class="right" x="1746.295" y="1214.000">systemd-resolved.service (284ms)</text>
  <rect class="activating" x="1751.326" y="1220.000" width="0.000" height="19.000" />
  <rect class="active" x="1751.326" y="1220.000" width="915.717" height="19.000" />
  <rect class="deactivating" x="2667.043" y="1220.000" width="0.000" height="19.000" />
  <text class="right" x="1746.326" y="1234.000">network.target</text>
  <rect class="activating" x="1752.309" y="1240.000" width="913.297" height="19.000" />
  <rect class="active" x="2665.606" y="1240.000" width="1.438" height="19.000" />
  <rect class="deactivating" x="2667.043" y="1240.000" width="0.000" height="19.000" />
  <text class="right" x="1747.309" y="1254.000">dom0-contctl.service (9.132s)</text>
  <rect class="activating" x="1753.330" y="1260.000" width="27.149" height="19.000" />
  <rect class="active" x="1780.479" y="1260.000" width="886.565" height="19.000" />
  <rect class="deactivating" x="2667.043" y="1260.000" width="0.000" height="19.000" />
  <text class="right" x="1748.330" y="1274.000">tcf-agent.service (271ms)</text>
  <rect class="activating" x="1756.423" y="1280.000" width="13.675" height="19.000" />
  <rect class="active" x="1770.098" y="1280.000" width="896.946" height="19.000" />
  <rect class="deactivating" x="2667.043" y="1280.000" width="0.000" height="19.000" />
  <text class="right" x="1751.423" y="1294.000">xinetd.service (136ms)</text>
  <rect class="activating" x="1756.778" y="1300.000" width="0.000" height="19.000" />
  <rect class="active" x="1756.778" y="1300.000" width="910.265" height="19.000" />
  <rect class="deactivating" x="2667.043" y="1300.000" width="0.000" height="19.000" />
  <text class="right" x="1751.778" y="1314.000">dnsmasq.service</text>
  <rect class="activating" x="1758.448" y="1320.000" width="6.138" height="19.000" />
  <rect class="active" x="1764.586" y="1320.000" width="902.457" height="19.000" />
  <rect class="deactivating" x="2667.043" y="1320.000" width="0.000" height="19.000" />
  <text class="right" x="1753.448" y="1334.000">rc-local.service (61ms)</text>
  <rect class="activating" x="1775.594" y="1340.000" width="0.000" height="19.000" />
  <rect class="active" x="1775.594" y="1340.000" width="891.449" height="19.000" />
  <rect class="deactivating" x="2667.043" y="1340.000" width="0.000" height="19.000" />
  <text class="right" x="1770.594" y="1354.000">console-getty.service</text>
  <rect class="activating" x="1776.457" y="1360.000" width="0.000" height="19.000" />
  <rect class="active" x="1776.457" y="1360.000" width="890.587" height="19.000" />
  <rect class="deactivating" x="2667.043" y="1360.000" width="0.000" height="19.000" />
  <text class="right" x="1771.457" y="1374.000">getty.target</text>
  <rect class="activating" x="1821.178" y="1380.000" width="2.918" height="19.000" />
  <rect class="active" x="1824.096" y="1380.000" width="842.947" height="19.000" />
  <rect class="deactivating" x="2667.043" y="1380.000" width="0.000" height="19.000" />
  <text class="right" x="1816.178" y="1394.000">openvswitch-switch.service (29ms)</text>
  <rect class="activating" x="1824.412" y="1400.000" width="0.000" height="19.000" />
  <rect class="active" x="1824.412" y="1400.000" width="842.632" height="19.000" />
  <rect class="deactivating" x="2667.043" y="1400.000" width="0.000" height="19.000" />
  <text class="right" x="1819.412" y="1414.000">multi-user.target</text>
  <rect class="activating" x="1825.136" y="1420.000" width="3.222" height="19.000" />
  <rect class="active" x="1828.358" y="1420.000" width="0.000" height="19.000" />
  <rect class="deactivating" x="1828.358" y="1420.000" width="0.000" height="19.000" />
  <text class="right" x="1820.136" y="1434.000">systemd-update-utmp-runlevel.service (32ms)</text>
  <rect class="activating" x="2532.374" y="1440.000" width="0.000" height="19.000" />
  <rect class="active" x="2532.374" y="1440.000" width="134.669" height="19.000" />
  <rect class="deactivating" x="2667.043" y="1440.000" width="0.000" height="19.000" />
  <text class="right" x="2527.374" y="1454.000">getty@tty3.service</text>
</g>
<g transform="translate(20,100)">
  <rect class="activating" x="0.000" y="1480.000" width="30.000" height="19.000" />
  <text class="left" x="45.000" y="1494.000">Activating</text>
  <rect class="active" x="0.000" y="1500.000" width="30.000" height="19.000" />
  <text class="left" x="45.000" y="1514.000">Active</text>
  <rect class="deactivating" x="0.000" y="1520.000" width="30.000" height="19.000" />
  <text class="left" x="45.000" y="1534.000">Deactivating</text>
  <rect class="security" x="0.000" y="1540.000" width="30.000" height="19.000" />
  <text class="left" x="45.000" y="1554.000">Setting up security module</text>
  <rect class="generators" x="0.000" y="1560.000" width="30.000" height="19.000" />
  <text class="left" x="45.000" y="1574.000">Generators</text>
  <rect class="unitsload" x="0.000" y="1580.000" width="30.000" height="19.000" />
  <text class="left" x="45.000" y="1594.000">Loading unit files</text>
</g>

</svg>
