<?xml version="1.0" standalone="no"?>
<!DOCTYPE svg PUBLIC "-//W3C//DTD SVG 1.1//EN" "http://www.w3.org/Graphics/SVG/1.1/DTD/svg11.dtd">
<svg width="1715px" height="1830px" version="1.1" xmlns="http://www.w3.org/2000/svg">

<!-- This file is a systemd-analyze SVG file. It is best rendered in a   -->
<!-- browser such as Chrome, Chromium or Firefox. Other applications     -->
<!-- that render these files properly but much slower are ImageMagick,   -->
<!-- gimp, inkscape, etc. To display the files on your system, just      -->
<!-- point your browser to this file.                                    -->

<!-- This plot was generated by systemd-analyze version 225              -->

<defs>
  <style type="text/css">
    <![CDATA[
      rect       { stroke-width: 1; stroke-opacity: 0; }
      rect.background   { fill: rgb(255,255,255); }
      rect.activating   { fill: rgb(255,0,0); fill-opacity: 0.7; }
      rect.active       { fill: rgb(200,150,150); fill-opacity: 0.7; }
      rect.deactivating { fill: rgb(150,100,100); fill-opacity: 0.7; }
      rect.kernel       { fill: rgb(150,150,150); fill-opacity: 0.7; }
      rect.initrd       { fill: rgb(150,150,150); fill-opacity: 0.7; }
      rect.firmware     { fill: rgb(150,150,150); fill-opacity: 0.7; }
      rect.loader       { fill: rgb(150,150,150); fill-opacity: 0.7; }
      rect.userspace    { fill: rgb(150,150,150); fill-opacity: 0.7; }
      rect.security     { fill: rgb(144,238,144); fill-opacity: 0.7; }
      rect.generators   { fill: rgb(102,204,255); fill-opacity: 0.7; }
      rect.unitsload    { fill: rgb( 82,184,255); fill-opacity: 0.7; }
      rect.box   { fill: rgb(240,240,240); stroke: rgb(192,192,192); }
      line       { stroke: rgb(64,64,64); stroke-width: 1; }
//    line.sec1  { }
      line.sec5  { stroke-width: 2; }
      line.sec01 { stroke: rgb(224,224,224); stroke-width: 1; }
      text       { font-family: Verdana, Helvetica; font-size: 14px; }
      text.left  { font-family: Verdana, Helvetica; font-size: 14px; text-anchor: start; }
      text.right { font-family: Verdana, Helvetica; font-size: 14px; text-anchor: end; }
      text.sec   { font-size: 10px; }
    ]]>
   </style>
</defs>

<rect class="background" width="100%" height="100%" />
<text x="20" y="50">Startup finished in 6.091s (userspace) = 16.348s</text><text x="20" y="30">Linux  (  ) arm lxc</text><g transform="translate(20.000,100)">
<rect class="box" x="0" y="0" width="1634.867" height="1580.000" />
  <line class="sec5" x1="0.000" y1="0" x2="0.000" y2="1580.000" />
  <text class="sec" x="0.000" y="-5.000" >0.0s</text>
  <line class="sec01" x1="10.000" y1="0" x2="10.000" y2="1580.000" />
  <line class="sec01" x1="20.000" y1="0" x2="20.000" y2="1580.000" />
  <line class="sec01" x1="30.000" y1="0" x2="30.000" y2="1580.000" />
  <line class="sec01" x1="40.000" y1="0" x2="40.000" y2="1580.000" />
  <line class="sec01" x1="50.000" y1="0" x2="50.000" y2="1580.000" />
  <line class="sec01" x1="60.000" y1="0" x2="60.000" y2="1580.000" />
  <line class="sec01" x1="70.000" y1="0" x2="70.000" y2="1580.000" />
  <line class="sec01" x1="80.000" y1="0" x2="80.000" y2="1580.000" />
  <line class="sec01" x1="90.000" y1="0" x2="90.000" y2="1580.000" />
  <line class="sec1" x1="100.000" y1="0" x2="100.000" y2="1580.000" />
  <text class="sec" x="100.000" y="-5.000" >1.0s</text>
  <line class="sec01" x1="110.000" y1="0" x2="110.000" y2="1580.000" />
  <line class="sec01" x1="120.000" y1="0" x2="120.000" y2="1580.000" />
  <line class="sec01" x1="130.000" y1="0" x2="130.000" y2="1580.000" />
  <line class="sec01" x1="140.000" y1="0" x2="140.000" y2="1580.000" />
  <line class="sec01" x1="150.000" y1="0" x2="150.000" y2="1580.000" />
  <line class="sec01" x1="160.000" y1="0" x2="160.000" y2="1580.000" />
  <line class="sec01" x1="170.000" y1="0" x2="170.000" y2="1580.000" />
  <line class="sec01" x1="180.000" y1="0" x2="180.000" y2="1580.000" />
  <line class="sec01" x1="190.000" y1="0" x2="190.000" y2="1580.000" />
  <line class="sec1" x1="200.000" y1="0" x2="200.000" y2="1580.000" />
  <text class="sec" x="200.000" y="-5.000" >2.0s</text>
  <line class="sec01" x1="210.000" y1="0" x2="210.000" y2="1580.000" />
  <line class="sec01" x1="220.000" y1="0" x2="220.000" y2="1580.000" />
  <line class="sec01" x1="230.000" y1="0" x2="230.000" y2="1580.000" />
  <line class="sec01" x1="240.000" y1="0" x2="240.000" y2="1580.000" />
  <line class="sec01" x1="250.000" y1="0" x2="250.000" y2="1580.000" />
  <line class="sec01" x1="260.000" y1="0" x2="260.000" y2="1580.000" />
  <line class="sec01" x1="270.000" y1="0" x2="270.000" y2="1580.000" />
  <line class="sec01" x1="280.000" y1="0" x2="280.000" y2="1580.000" />
  <line class="sec01" x1="290.000" y1="0" x2="290.000" y2="1580.000" />
  <line class="sec1" x1="300.000" y1="0" x2="300.000" y2="1580.000" />
  <text class="sec" x="300.000" y="-5.000" >3.0s</text>
  <line class="sec01" x1="310.000" y1="0" x2="310.000" y2="1580.000" />
  <line class="sec01" x1="320.000" y1="0" x2="320.000" y2="1580.000" />
  <line class="sec01" x1="330.000" y1="0" x2="330.000" y2="1580.000" />
  <line class="sec01" x1="340.000" y1="0" x2="340.000" y2="1580.000" />
  <line class="sec01" x1="350.000" y1="0" x2="350.000" y2="1580.000" />
  <line class="sec01" x1="360.000" y1="0" x2="360.000" y2="1580.000" />
  <line class="sec01" x1="370.000" y1="0" x2="370.000" y2="1580.000" />
  <line class="sec01" x1="380.000" y1="0" x2="380.000" y2="1580.000" />
  <line class="sec01" x1="390.000" y1="0" x2="390.000" y2="1580.000" />
  <line class="sec1" x1="400.000" y1="0" x2="400.000" y2="1580.000" />
  <text class="sec" x="400.000" y="-5.000" >4.0s</text>
  <line class="sec01" x1="410.000" y1="0" x2="410.000" y2="1580.000" />
  <line class="sec01" x1="420.000" y1="0" x2="420.000" y2="1580.000" />
  <line class="sec01" x1="430.000" y1="0" x2="430.000" y2="1580.000" />
  <line class="sec01" x1="440.000" y1="0" x2="440.000" y2="1580.000" />
  <line class="sec01" x1="450.000" y1="0" x2="450.000" y2="1580.000" />
  <line class="sec01" x1="460.000" y1="0" x2="460.000" y2="1580.000" />
  <line class="sec01" x1="470.000" y1="0" x2="470.000" y2="1580.000" />
  <line class="sec01" x1="480.000" y1="0" x2="480.000" y2="1580.000" />
  <line class="sec01" x1="490.000" y1="0" x2="490.000" y2="1580.000" />
  <line class="sec5" x1="500.000" y1="0" x2="500.000" y2="1580.000" />
  <text class="sec" x="500.000" y="-5.000" >5.0s</text>
  <line class="sec01" x1="510.000" y1="0" x2="510.000" y2="1580.000" />
  <line class="sec01" x1="520.000" y1="0" x2="520.000" y2="1580.000" />
  <line class="sec01" x1="530.000" y1="0" x2="530.000" y2="1580.000" />
  <line class="sec01" x1="540.000" y1="0" x2="540.000" y2="1580.000" />
  <line class="sec01" x1="550.000" y1="0" x2="550.000" y2="1580.000" />
  <line class="sec01" x1="560.000" y1="0" x2="560.000" y2="1580.000" />
  <line class="sec01" x1="570.000" y1="0" x2="570.000" y2="1580.000" />
  <line class="sec01" x1="580.000" y1="0" x2="580.000" y2="1580.000" />
  <line class="sec01" x1="590.000" y1="0" x2="590.000" y2="1580.000" />
  <line class="sec1" x1="600.000" y1="0" x2="600.000" y2="1580.000" />
  <text class="sec" x="600.000" y="-5.000" >6.0s</text>
  <line class="sec01" x1="610.000" y1="0" x2="610.000" y2="1580.000" />
  <line class="sec01" x1="620.000" y1="0" x2="620.000" y2="1580.000" />
  <line class="sec01" x1="630.000" y1="0" x2="630.000" y2="1580.000" />
  <line class="sec01" x1="640.000" y1="0" x2="640.000" y2="1580.000" />
  <line class="sec01" x1="650.000" y1="0" x2="650.000" y2="1580.000" />
  <line class="sec01" x1="660.000" y1="0" x2="660.000" y2="1580.000" />
  <line class="sec01" x1="670.000" y1="0" x2="670.000" y2="1580.000" />
  <line class="sec01" x1="680.000" y1="0" x2="680.000" y2="1580.000" />
  <line class="sec01" x1="690.000" y1="0" x2="690.000" y2="1580.000" />
  <line class="sec1" x1="700.000" y1="0" x2="700.000" y2="1580.000" />
  <text class="sec" x="700.000" y="-5.000" >7.0s</text>
  <line class="sec01" x1="710.000" y1="0" x2="710.000" y2="1580.000" />
  <line class="sec01" x1="720.000" y1="0" x2="720.000" y2="1580.000" />
  <line class="sec01" x1="730.000" y1="0" x2="730.000" y2="1580.000" />
  <line class="sec01" x1="740.000" y1="0" x2="740.000" y2="1580.000" />
  <line class="sec01" x1="750.000" y1="0" x2="750.000" y2="1580.000" />
  <line class="sec01" x1="760.000" y1="0" x2="760.000" y2="1580.000" />
  <line class="sec01" x1="770.000" y1="0" x2="770.000" y2="1580.000" />
  <line class="sec01" x1="780.000" y1="0" x2="780.000" y2="1580.000" />
  <line class="sec01" x1="790.000" y1="0" x2="790.000" y2="1580.000" />
  <line class="sec1" x1="800.000" y1="0" x2="800.000" y2="1580.000" />
  <text class="sec" x="800.000" y="-5.000" >8.0s</text>
  <line class="sec01" x1="810.000" y1="0" x2="810.000" y2="1580.000" />
  <line class="sec01" x1="820.000" y1="0" x2="820.000" y2="1580.000" />
  <line class="sec01" x1="830.000" y1="0" x2="830.000" y2="1580.000" />
  <line class="sec01" x1="840.000" y1="0" x2="840.000" y2="1580.000" />
  <line class="sec01" x1="850.000" y1="0" x2="850.000" y2="1580.000" />
  <line class="sec01" x1="860.000" y1="0" x2="860.000" y2="1580.000" />
  <line class="sec01" x1="870.000" y1="0" x2="870.000" y2="1580.000" />
  <line class="sec01" x1="880.000" y1="0" x2="880.000" y2="1580.000" />
  <line class="sec01" x1="890.000" y1="0" x2="890.000" y2="1580.000" />
  <line class="sec1" x1="900.000" y1="0" x2="900.000" y2="1580.000" />
  <text class="sec" x="900.000" y="-5.000" >9.0s</text>
  <line class="sec01" x1="910.000" y1="0" x2="910.000" y2="1580.000" />
  <line class="sec01" x1="920.000" y1="0" x2="920.000" y2="1580.000" />
  <line class="sec01" x1="930.000" y1="0" x2="930.000" y2="1580.000" />
  <line class="sec01" x1="940.000" y1="0" x2="940.000" y2="1580.000" />
  <line class="sec01" x1="950.000" y1="0" x2="950.000" y2="1580.000" />
  <line class="sec01" x1="960.000" y1="0" x2="960.000" y2="1580.000" />
  <line class="sec01" x1="970.000" y1="0" x2="970.000" y2="1580.000" />
  <line class="sec01" x1="980.000" y1="0" x2="980.000" y2="1580.000" />
  <line class="sec01" x1="990.000" y1="0" x2="990.000" y2="1580.000" />
  <line class="sec5" x1="1000.000" y1="0" x2="1000.000" y2="1580.000" />
  <text class="sec" x="1000.000" y="-5.000" >10.0s</text>
  <line class="sec01" x1="1010.000" y1="0" x2="1010.000" y2="1580.000" />
  <line class="sec01" x1="1020.000" y1="0" x2="1020.000" y2="1580.000" />
  <line class="sec01" x1="1030.000" y1="0" x2="1030.000" y2="1580.000" />
  <line class="sec01" x1="1040.000" y1="0" x2="1040.000" y2="1580.000" />
  <line class="sec01" x1="1050.000" y1="0" x2="1050.000" y2="1580.000" />
  <line class="sec01" x1="1060.000" y1="0" x2="1060.000" y2="1580.000" />
  <line class="sec01" x1="1070.000" y1="0" x2="1070.000" y2="1580.000" />
  <line class="sec01" x1="1080.000" y1="0" x2="1080.000" y2="1580.000" />
  <line class="sec01" x1="1090.000" y1="0" x2="1090.000" y2="1580.000" />
  <line class="sec1" x1="1100.000" y1="0" x2="1100.000" y2="1580.000" />
  <text class="sec" x="1100.000" y="-5.000" >11.0s</text>
  <line class="sec01" x1="1110.000" y1="0" x2="1110.000" y2="1580.000" />
  <line class="sec01" x1="1120.000" y1="0" x2="1120.000" y2="1580.000" />
  <line class="sec01" x1="1130.000" y1="0" x2="1130.000" y2="1580.000" />
  <line class="sec01" x1="1140.000" y1="0" x2="1140.000" y2="1580.000" />
  <line class="sec01" x1="1150.000" y1="0" x2="1150.000" y2="1580.000" />
  <line class="sec01" x1="1160.000" y1="0" x2="1160.000" y2="1580.000" />
  <line class="sec01" x1="1170.000" y1="0" x2="1170.000" y2="1580.000" />
  <line class="sec01" x1="1180.000" y1="0" x2="1180.000" y2="1580.000" />
  <line class="sec01" x1="1190.000" y1="0" x2="1190.000" y2="1580.000" />
  <line class="sec1" x1="1200.000" y1="0" x2="1200.000" y2="1580.000" />
  <text class="sec" x="1200.000" y="-5.000" >12.0s</text>
  <line class="sec01" x1="1210.000" y1="0" x2="1210.000" y2="1580.000" />
  <line class="sec01" x1="1220.000" y1="0" x2="1220.000" y2="1580.000" />
  <line class="sec01" x1="1230.000" y1="0" x2="1230.000" y2="1580.000" />
  <line class="sec01" x1="1240.000" y1="0" x2="1240.000" y2="1580.000" />
  <line class="sec01" x1="1250.000" y1="0" x2="1250.000" y2="1580.000" />
  <line class="sec01" x1="1260.000" y1="0" x2="1260.000" y2="1580.000" />
  <line class="sec01" x1="1270.000" y1="0" x2="1270.000" y2="1580.000" />
  <line class="sec01" x1="1280.000" y1="0" x2="1280.000" y2="1580.000" />
  <line class="sec01" x1="1290.000" y1="0" x2="1290.000" y2="1580.000" />
  <line class="sec1" x1="1300.000" y1="0" x2="1300.000" y2="1580.000" />
  <text class="sec" x="1300.000" y="-5.000" >13.0s</text>
  <line class="sec01" x1="1310.000" y1="0" x2="1310.000" y2="1580.000" />
  <line class="sec01" x1="1320.000" y1="0" x2="1320.000" y2="1580.000" />
  <line class="sec01" x1="1330.000" y1="0" x2="1330.000" y2="1580.000" />
  <line class="sec01" x1="1340.000" y1="0" x2="1340.000" y2="1580.000" />
  <line class="sec01" x1="1350.000" y1="0" x2="1350.000" y2="1580.000" />
  <line class="sec01" x1="1360.000" y1="0" x2="1360.000" y2="1580.000" />
  <line class="sec01" x1="1370.000" y1="0" x2="1370.000" y2="1580.000" />
  <line class="sec01" x1="1380.000" y1="0" x2="1380.000" y2="1580.000" />
  <line class="sec01" x1="1390.000" y1="0" x2="1390.000" y2="1580.000" />
  <line class="sec1" x1="1400.000" y1="0" x2="1400.000" y2="1580.000" />
  <text class="sec" x="1400.000" y="-5.000" >14.0s</text>
  <line class="sec01" x1="1410.000" y1="0" x2="1410.000" y2="1580.000" />
  <line class="sec01" x1="1420.000" y1="0" x2="1420.000" y2="1580.000" />
  <line class="sec01" x1="1430.000" y1="0" x2="1430.000" y2="1580.000" />
  <line class="sec01" x1="1440.000" y1="0" x2="1440.000" y2="1580.000" />
  <line class="sec01" x1="1450.000" y1="0" x2="1450.000" y2="1580.000" />
  <line class="sec01" x1="1460.000" y1="0" x2="1460.000" y2="1580.000" />
  <line class="sec01" x1="1470.000" y1="0" x2="1470.000" y2="1580.000" />
  <line class="sec01" x1="1480.000" y1="0" x2="1480.000" y2="1580.000" />
  <line class="sec01" x1="1490.000" y1="0" x2="1490.000" y2="1580.000" />
  <line class="sec5" x1="1500.000" y1="0" x2="1500.000" y2="1580.000" />
  <text class="sec" x="1500.000" y="-5.000" >15.0s</text>
  <line class="sec01" x1="1510.000" y1="0" x2="1510.000" y2="1580.000" />
  <line class="sec01" x1="1520.000" y1="0" x2="1520.000" y2="1580.000" />
  <line class="sec01" x1="1530.000" y1="0" x2="1530.000" y2="1580.000" />
  <line class="sec01" x1="1540.000" y1="0" x2="1540.000" y2="1580.000" />
  <line class="sec01" x1="1550.000" y1="0" x2="1550.000" y2="1580.000" />
  <line class="sec01" x1="1560.000" y1="0" x2="1560.000" y2="1580.000" />
  <line class="sec01" x1="1570.000" y1="0" x2="1570.000" y2="1580.000" />
  <line class="sec01" x1="1580.000" y1="0" x2="1580.000" y2="1580.000" />
  <line class="sec01" x1="1590.000" y1="0" x2="1590.000" y2="1580.000" />
  <line class="sec1" x1="1600.000" y1="0" x2="1600.000" y2="1580.000" />
  <text class="sec" x="1600.000" y="-5.000" >16.0s</text>
  <line class="sec01" x1="1610.000" y1="0" x2="1610.000" y2="1580.000" />
  <line class="sec01" x1="1620.000" y1="0" x2="1620.000" y2="1580.000" />
  <line class="sec01" x1="1630.000" y1="0" x2="1630.000" y2="1580.000" />
  <rect class="active" x="1025.670" y="0.000" width="609.198" height="19.000" />
  <rect class="security" x="0.000" y="0.000" width="0.000" height="19.000" />
  <rect class="generators" x="1030.365" y="0.000" width="6.942" height="19.000" />
  <rect class="unitsload" x="1038.119" y="0.000" width="14.007" height="19.000" />
  <text class="left" x="1030.670" y="14.000">systemd</text>
  <rect class="activating" x="1052.177" y="20.000" width="0.000" height="19.000" />
  <rect class="active" x="1052.177" y="20.000" width="582.691" height="19.000" />
  <rect class="deactivating" x="1634.867" y="20.000" width="0.000" height="19.000" />
  <text class="right" x="1047.177" y="34.000">opt-container.mount</text>
  <rect class="activating" x="1052.234" y="40.000" width="0.000" height="19.000" />
  <rect class="active" x="1052.234" y="40.000" width="582.634" height="19.000" />
  <rect class="deactivating" x="1634.867" y="40.000" width="0.000" height="19.000" />
  <text class="right" x="1047.234" y="54.000">opt-container-local.mount</text>
  <rect class="activating" x="1052.273" y="60.000" width="582.594" height="19.000" />
  <rect class="active" x="1634.867" y="60.000" width="0.000" height="19.000" />
  <rect class="deactivating" x="1634.867" y="60.000" width="0.000" height="19.000" />
  <text class="right" x="1047.273" y="74.000">dev-mmcblk0p4.device</text>
  <rect class="activating" x="1052.301" y="80.000" width="0.000" height="19.000" />
  <rect class="active" x="1052.301" y="80.000" width="582.566" height="19.000" />
  <rect class="deactivating" x="1634.867" y="80.000" width="0.000" height="19.000" />
  <text class="right" x="1047.301" y="94.000">usr.mount</text>
  <rect class="activating" x="1052.304" y="100.000" width="0.000" height="19.000" />
  <rect class="active" x="1052.304" y="100.000" width="582.564" height="19.000" />
  <rect class="deactivating" x="1634.867" y="100.000" width="0.000" height="19.000" />
  <text class="right" x="1047.304" y="114.000">-.mount</text>
  <rect class="activating" x="1052.305" y="120.000" width="0.000" height="19.000" />
  <rect class="active" x="1052.305" y="120.000" width="582.562" height="19.000" />
  <rect class="deactivating" x="1634.867" y="120.000" width="0.000" height="19.000" />
  <text class="right" x="1047.305" y="134.000">boot.mount</text>
  <rect class="activating" x="1052.344" y="140.000" width="0.000" height="19.000" />
  <rect class="active" x="1052.344" y="140.000" width="582.523" height="19.000" />
  <rect class="deactivating" x="1634.867" y="140.000" width="0.000" height="19.000" />
  <text class="right" x="1047.344" y="154.000">var-lib-lxc.mount</text>
  <rect class="activating" x="1052.347" y="160.000" width="0.000" height="19.000" />
  <rect class="active" x="1052.347" y="160.000" width="582.520" height="19.000" />
  <rect class="deactivating" x="1634.867" y="160.000" width="0.000" height="19.000" />
  <text class="right" x="1047.347" y="174.000">essential.mount</text>
  <rect class="activating" x="1052.383" y="180.000" width="0.000" height="19.000" />
  <rect class="active" x="1052.383" y="180.000" width="582.484" height="19.000" />
  <rect class="deactivating" x="1634.867" y="180.000" width="0.000" height="19.000" />
  <text class="right" x="1047.383" y="194.000">etc-system\x2did.mount</text>
  <rect class="activating" x="1052.417" y="200.000" width="0.000" height="19.000" />
  <rect class="active" x="1052.417" y="200.000" width="582.451" height="19.000" />
  <rect class="deactivating" x="1634.867" y="200.000" width="0.000" height="19.000" />
  <text class="right" x="1047.417" y="214.000">host-proc.mount</text>
  <rect class="activating" x="1052.419" y="220.000" width="582.448" height="19.000" />
  <rect class="active" x="1634.867" y="220.000" width="0.000" height="19.000" />
  <rect class="deactivating" x="1634.867" y="220.000" width="0.000" height="19.000" />
  <text class="right" x="1047.419" y="234.000">dev-mmcblk0p1.device</text>
  <rect class="activating" x="1052.422" y="240.000" width="582.445" height="19.000" />
  <rect class="active" x="1634.867" y="240.000" width="0.000" height="19.000" />
  <rect class="deactivating" x="1634.867" y="240.000" width="0.000" height="19.000" />
  <text class="right" x="1047.422" y="254.000">dev-mmcblk0p3.device</text>
  <rect class="activating" x="1053.173" y="260.000" width="0.000" height="19.000" />
  <rect class="active" x="1053.173" y="260.000" width="581.694" height="19.000" />
  <rect class="deactivating" x="1634.867" y="260.000" width="0.000" height="19.000" />
  <text class="right" x="1048.173" y="274.000">swap.target</text>
  <rect class="activating" x="1053.258" y="280.000" width="0.000" height="19.000" />
  <rect class="active" x="1053.258" y="280.000" width="581.609" height="19.000" />
  <rect class="deactivating" x="1634.867" y="280.000" width="0.000" height="19.000" />
  <text class="right" x="1048.258" y="294.000">systemd-ask-password-wall.path</text>
  <rect class="activating" x="1053.308" y="300.000" width="0.000" height="19.000" />
  <rect class="active" x="1053.308" y="300.000" width="581.559" height="19.000" />
  <rect class="deactivating" x="1634.867" y="300.000" width="0.000" height="19.000" />
  <text class="right" x="1048.308" y="314.000">systemd-ask-password-console.path</text>
  <rect class="activating" x="1054.997" y="320.000" width="0.000" height="19.000" />
  <rect class="active" x="1054.997" y="320.000" width="579.870" height="19.000" />
  <rect class="deactivating" x="1634.867" y="320.000" width="0.000" height="19.000" />
  <text class="right" x="1049.997" y="334.000">cube-update.timer</text>
  <rect class="activating" x="1055.049" y="340.000" width="0.000" height="19.000" />
  <rect class="active" x="1055.049" y="340.000" width="579.819" height="19.000" />
  <rect class="deactivating" x="1634.867" y="340.000" width="0.000" height="19.000" />
  <text class="right" x="1050.049" y="354.000">remote-fs.target</text>
  <rect class="activating" x="1055.077" y="360.000" width="0.000" height="19.000" />
  <rect class="active" x="1055.077" y="360.000" width="579.790" height="19.000" />
  <rect class="deactivating" x="1634.867" y="360.000" width="0.000" height="19.000" />
  <text class="right" x="1050.077" y="374.000">paths.target</text>
  <rect class="activating" x="1055.241" y="380.000" width="0.000" height="19.000" />
  <rect class="active" x="1055.241" y="380.000" width="579.626" height="19.000" />
  <rect class="deactivating" x="1634.867" y="380.000" width="0.000" height="19.000" />
  <text class="right" x="1050.241" y="394.000">-.slice</text>
  <rect class="activating" x="1055.295" y="400.000" width="0.000" height="19.000" />
  <rect class="active" x="1055.295" y="400.000" width="579.572" height="19.000" />
  <rect class="deactivating" x="1634.867" y="400.000" width="0.000" height="19.000" />
  <text class="right" x="1050.295" y="414.000">systemd-journald-dev-log.socket</text>
  <rect class="activating" x="1055.803" y="420.000" width="0.000" height="19.000" />
  <rect class="active" x="1055.803" y="420.000" width="579.065" height="19.000" />
  <rect class="deactivating" x="1634.867" y="420.000" width="0.000" height="19.000" />
  <text class="right" x="1050.803" y="434.000">systemd-networkd.socket</text>
  <rect class="activating" x="1055.981" y="440.000" width="0.000" height="19.000" />
  <rect class="active" x="1055.981" y="440.000" width="578.887" height="19.000" />
  <rect class="deactivating" x="1634.867" y="440.000" width="0.000" height="19.000" />
  <text class="right" x="1050.981" y="454.000">system.slice</text>
  <rect class="activating" x="1056.200" y="460.000" width="0.000" height="19.000" />
  <rect class="active" x="1056.200" y="460.000" width="578.667" height="19.000" />
  <rect class="deactivating" x="1634.867" y="460.000" width="0.000" height="19.000" />
  <text class="right" x="1051.200" y="474.000">system-getty.slice</text>
  <rect class="activating" x="1056.449" y="480.000" width="0.000" height="19.000" />
  <rect class="active" x="1056.449" y="480.000" width="578.418" height="19.000" />
  <rect class="deactivating" x="1634.867" y="480.000" width="0.000" height="19.000" />
  <text class="right" x="1051.449" y="494.000">user.slice</text>
  <rect class="activating" x="1056.501" y="500.000" width="0.000" height="19.000" />
  <rect class="active" x="1056.501" y="500.000" width="578.367" height="19.000" />
  <rect class="deactivating" x="1634.867" y="500.000" width="0.000" height="19.000" />
  <text class="right" x="1051.501" y="514.000">systemd-journald.socket</text>
  <rect class="activating" x="1056.898" y="520.000" width="15.068" height="19.000" />
  <rect class="active" x="1071.966" y="520.000" width="562.901" height="19.000" />
  <rect class="deactivating" x="1634.867" y="520.000" width="0.000" height="19.000" />
  <text class="right" x="1051.898" y="534.000">dev-mqueue.mount (150ms)</text>
  <rect class="activating" x="1057.492" y="540.000" width="15.234" height="19.000" />
  <rect class="active" x="1072.726" y="540.000" width="562.142" height="19.000" />
  <rect class="deactivating" x="1634.867" y="540.000" width="0.000" height="19.000" />
  <text class="right" x="1052.492" y="554.000">kmod-static-nodes.service (152ms)</text>
  <rect class="activating" x="1058.076" y="560.000" width="15.480" height="19.000" />
  <rect class="active" x="1073.557" y="560.000" width="561.311" height="19.000" />
  <rect class="deactivating" x="1634.867" y="560.000" width="0.000" height="19.000" />
  <text class="right" x="1053.076" y="574.000">systemd-vconsole-setup.service (154ms)</text>
  <rect class="activating" x="1058.717" y="580.000" width="15.178" height="19.000" />
  <rect class="active" x="1073.894" y="580.000" width="560.973" height="19.000" />
  <rect class="deactivating" x="1634.867" y="580.000" width="0.000" height="19.000" />
  <text class="right" x="1053.717" y="594.000">systemd-remount-fs.service (151ms)</text>
  <rect class="activating" x="1059.356" y="600.000" width="12.967" height="19.000" />
  <rect class="active" x="1072.323" y="600.000" width="562.544" height="19.000" />
  <rect class="deactivating" x="1634.867" y="600.000" width="0.000" height="19.000" />
  <text class="right" x="1054.356" y="614.000">tmp.mount (129ms)</text>
  <rect class="activating" x="1060.632" y="620.000" width="11.613" height="19.000" />
  <rect class="active" x="1072.245" y="620.000" width="562.622" height="19.000" />
  <rect class="deactivating" x="1634.867" y="620.000" width="0.000" height="19.000" />
  <text class="right" x="1055.632" y="634.000">sys-kernel-debug.mount (116ms)</text>
  <rect class="activating" x="1063.345" y="640.000" width="71.242" height="19.000" />
  <rect class="active" x="1134.586" y="640.000" width="500.281" height="19.000" />
  <rect class="deactivating" x="1634.867" y="640.000" width="0.000" height="19.000" />
  <text class="right" x="1058.345" y="654.000">systemd-journald.service (712ms)</text>
  <rect class="activating" x="1063.979" y="660.000" width="10.436" height="19.000" />
  <rect class="active" x="1074.415" y="660.000" width="560.452" height="19.000" />
  <rect class="deactivating" x="1634.867" y="660.000" width="0.000" height="19.000" />
  <text class="right" x="1058.979" y="674.000">systemd-modules-load.service (104ms)</text>
  <rect class="activating" x="1064.870" y="680.000" width="0.000" height="19.000" />
  <rect class="active" x="1064.870" y="680.000" width="569.998" height="19.000" />
  <rect class="deactivating" x="1634.867" y="680.000" width="0.000" height="19.000" />
  <text class="right" x="1059.870" y="694.000">slices.target</text>
  <rect class="activating" x="1064.932" y="700.000" width="0.000" height="19.000" />
  <rect class="active" x="1064.932" y="700.000" width="569.936" height="19.000" />
  <rect class="deactivating" x="1634.867" y="700.000" width="0.000" height="19.000" />
  <text class="right" x="1059.932" y="714.000">systemd-initctl.socket</text>
  <rect class="activating" x="1075.044" y="720.000" width="7.263" height="19.000" />
  <rect class="active" x="1082.307" y="720.000" width="552.561" height="19.000" />
  <rect class="deactivating" x="1634.867" y="720.000" width="0.000" height="19.000" />
  <text class="right" x="1070.044" y="734.000">sys-kernel-config.mount (72ms)</text>
  <rect class="activating" x="1075.608" y="740.000" width="17.562" height="19.000" />
  <rect class="active" x="1093.169" y="740.000" width="541.698" height="19.000" />
  <rect class="deactivating" x="1634.867" y="740.000" width="0.000" height="19.000" />
  <text class="right" x="1070.608" y="754.000">systemd-sysctl.service (175ms)</text>
  <rect class="activating" x="1077.099" y="760.000" width="57.802" height="19.000" />
  <rect class="active" x="1134.900" y="760.000" width="499.967" height="19.000" />
  <rect class="deactivating" x="1634.867" y="760.000" width="0.000" height="19.000" />
  <text class="right" x="1072.099" y="774.000">systemd-udev-trigger.service (578ms)</text>
  <rect class="activating" x="1078.196" y="780.000" width="14.297" height="19.000" />
  <rect class="active" x="1092.493" y="780.000" width="542.374" height="19.000" />
  <rect class="deactivating" x="1634.867" y="780.000" width="0.000" height="19.000" />
  <text class="right" x="1073.196" y="794.000">systemd-random-seed.service (142ms)</text>
  <rect class="activating" x="1078.868" y="800.000" width="38.550" height="19.000" />
  <rect class="active" x="1117.419" y="800.000" width="517.449" height="19.000" />
  <rect class="deactivating" x="1634.867" y="800.000" width="0.000" height="19.000" />
  <text class="right" x="1073.868" y="814.000">systemd-tmpfiles-setup-dev.service (385ms)</text>
  <rect class="activating" x="1117.481" y="820.000" width="0.000" height="19.000" />
  <rect class="active" x="1117.481" y="820.000" width="517.387" height="19.000" />
  <rect class="deactivating" x="1634.867" y="820.000" width="0.000" height="19.000" />
  <text class="right" x="1112.481" y="834.000">local-fs-pre.target</text>
  <rect class="activating" x="1118.100" y="840.000" width="0.000" height="19.000" />
  <rect class="active" x="1118.100" y="840.000" width="516.768" height="19.000" />
  <rect class="deactivating" x="1634.867" y="840.000" width="0.000" height="19.000" />
  <text class="right" x="1113.100" y="854.000">local-fs.target</text>
  <rect class="activating" x="1135.369" y="860.000" width="61.267" height="19.000" />
  <rect class="active" x="1196.636" y="860.000" width="438.231" height="19.000" />
  <rect class="deactivating" x="1634.867" y="860.000" width="0.000" height="19.000" />
  <text class="right" x="1130.369" y="874.000">systemd-journal-flush.service (612ms)</text>
  <rect class="activating" x="1197.365" y="880.000" width="5.321" height="19.000" />
  <rect class="active" x="1202.686" y="880.000" width="432.182" height="19.000" />
  <rect class="deactivating" x="1634.867" y="880.000" width="0.000" height="19.000" />
  <text class="right" x="1192.365" y="894.000">systemd-tmpfiles-setup.service (53ms)</text>
  <rect class="activating" x="1203.420" y="900.000" width="6.232" height="19.000" />
  <rect class="active" x="1209.652" y="900.000" width="425.216" height="19.000" />
  <rect class="deactivating" x="1634.867" y="900.000" width="0.000" height="19.000" />
  <text class="right" x="1198.420" y="914.000">systemd-update-utmp.service (62ms)</text>
  <rect class="activating" x="1204.018" y="920.000" width="0.000" height="19.000" />
  <rect class="active" x="1204.018" y="920.000" width="430.850" height="19.000" />
  <rect class="deactivating" x="1634.867" y="920.000" width="0.000" height="19.000" />
  <text class="right" x="1199.018" y="934.000">time-sync.target</text>
  <rect class="activating" x="1209.934" y="940.000" width="0.000" height="19.000" />
  <rect class="active" x="1209.934" y="940.000" width="424.933" height="19.000" />
  <rect class="deactivating" x="1634.867" y="940.000" width="0.000" height="19.000" />
  <text class="right" x="1204.934" y="954.000">sysinit.target</text>
  <rect class="activating" x="1210.625" y="960.000" width="2.481" height="19.000" />
  <rect class="active" x="1213.105" y="960.000" width="421.762" height="19.000" />
  <rect class="deactivating" x="1634.867" y="960.000" width="0.000" height="19.000" />
  <text class="right" x="1205.625" y="974.000">sshd.socket (24ms)</text>
  <rect class="activating" x="1210.999" y="980.000" width="0.000" height="19.000" />
  <rect class="active" x="1210.999" y="980.000" width="423.868" height="19.000" />
  <rect class="deactivating" x="1634.867" y="980.000" width="0.000" height="19.000" />
  <text class="right" x="1205.999" y="994.000">avahi-daemon.socket</text>
  <rect class="activating" x="1211.274" y="1000.000" width="0.000" height="19.000" />
  <rect class="active" x="1211.274" y="1000.000" width="423.593" height="19.000" />
  <rect class="deactivating" x="1634.867" y="1000.000" width="0.000" height="19.000" />
  <text class="right" x="1206.274" y="1014.000">systemd-tmpfiles-clean.timer</text>
  <rect class="activating" x="1211.511" y="1020.000" width="0.000" height="19.000" />
  <rect class="active" x="1211.511" y="1020.000" width="423.357" height="19.000" />
  <rect class="deactivating" x="1634.867" y="1020.000" width="0.000" height="19.000" />
  <text class="right" x="1206.511" y="1034.000">timers.target</text>
  <rect class="activating" x="1211.601" y="1040.000" width="0.000" height="19.000" />
  <rect class="active" x="1211.601" y="1040.000" width="423.267" height="19.000" />
  <rect class="deactivating" x="1634.867" y="1040.000" width="0.000" height="19.000" />
  <text class="right" x="1206.601" y="1054.000">dbus.socket</text>
  <rect class="activating" x="1213.380" y="1060.000" width="0.000" height="19.000" />
  <rect class="active" x="1213.380" y="1060.000" width="421.488" height="19.000" />
  <rect class="deactivating" x="1634.867" y="1060.000" width="0.000" height="19.000" />
  <text class="right" x="1208.380" y="1074.000">sockets.target</text>
  <rect class="activating" x="1213.606" y="1080.000" width="0.000" height="19.000" />
  <rect class="active" x="1213.606" y="1080.000" width="421.261" height="19.000" />
  <rect class="deactivating" x="1634.867" y="1080.000" width="0.000" height="19.000" />
  <text class="right" x="1208.606" y="1094.000">basic.target</text>
  <rect class="activating" x="1214.325" y="1100.000" width="34.005" height="19.000" />
  <rect class="active" x="1248.330" y="1100.000" width="386.538" height="19.000" />
  <rect class="deactivating" x="1634.867" y="1100.000" width="0.000" height="19.000" />
  <text class="right" x="1209.325" y="1114.000">container-shutdown-notifier.service (340ms)</text>
  <rect class="activating" x="1215.130" y="1120.000" width="36.528" height="19.000" />
  <rect class="active" x="1251.659" y="1120.000" width="383.209" height="19.000" />
  <rect class="deactivating" x="1634.867" y="1120.000" width="0.000" height="19.000" />
  <text class="right" x="1210.130" y="1134.000">systemd-logind.service (365ms)</text>
  <rect class="activating" x="1216.523" y="1140.000" width="0.000" height="19.000" />
  <rect class="active" x="1216.523" y="1140.000" width="418.345" height="19.000" />
  <rect class="deactivating" x="1634.867" y="1140.000" width="0.000" height="19.000" />
  <text class="right" x="1211.523" y="1154.000">crond.service</text>
  <rect class="activating" x="1217.802" y="1160.000" width="30.892" height="19.000" />
  <rect class="active" x="1248.694" y="1160.000" width="386.173" height="19.000" />
  <rect class="deactivating" x="1634.867" y="1160.000" width="0.000" height="19.000" />
  <text class="right" x="1212.802" y="1174.000">ebtables.service (308ms)</text>
  <rect class="activating" x="1218.538" y="1180.000" width="35.258" height="19.000" />
  <rect class="active" x="1253.795" y="1180.000" width="381.072" height="19.000" />
  <rect class="deactivating" x="1634.867" y="1180.000" width="0.000" height="19.000" />
  <text class="right" x="1213.538" y="1194.000">avahi-daemon.service (352ms)</text>
  <rect class="activating" x="1219.328" y="1200.000" width="30.049" height="19.000" />
  <rect class="active" x="1249.377" y="1200.000" width="385.491" height="19.000" />
  <rect class="deactivating" x="1634.867" y="1200.000" width="0.000" height="19.000" />
  <text class="right" x="1214.328" y="1214.000">systemd-user-sessions.service (300ms)</text>
  <rect class="activating" x="1219.849" y="1220.000" width="0.000" height="19.000" />
  <rect class="active" x="1219.849" y="1220.000" width="415.019" height="19.000" />
  <rect class="deactivating" x="1634.867" y="1220.000" width="0.000" height="19.000" />
  <text class="right" x="1214.849" y="1234.000">cube-cmd-server.service</text>
  <rect class="activating" x="1220.413" y="1240.000" width="0.000" height="19.000" />
  <rect class="active" x="1220.413" y="1240.000" width="414.454" height="19.000" />
  <rect class="deactivating" x="1634.867" y="1240.000" width="0.000" height="19.000" />
  <text class="right" x="1215.413" y="1254.000">dbus.service</text>
  <rect class="activating" x="1246.430" y="1260.000" width="25.202" height="19.000" />
  <rect class="active" x="1271.632" y="1260.000" width="363.236" height="19.000" />
  <rect class="deactivating" x="1634.867" y="1260.000" width="0.000" height="19.000" />
  <text class="right" x="1241.430" y="1274.000">systemd-networkd.service (252ms)</text>
  <rect class="activating" x="1246.934" y="1280.000" width="81.392" height="19.000" />
  <rect class="active" x="1328.326" y="1280.000" width="306.542" height="19.000" />
  <rect class="deactivating" x="1634.867" y="1280.000" width="0.000" height="19.000" />
  <text class="right" x="1241.934" y="1294.000">openvswitch-nonetwork.service (813ms)</text>
  <rect class="activating" x="1272.645" y="1300.000" width="0.000" height="19.000" />
  <rect class="active" x="1272.645" y="1300.000" width="362.222" height="19.000" />
  <rect class="deactivating" x="1634.867" y="1300.000" width="0.000" height="19.000" />
  <text class="right" x="1267.645" y="1314.000">network.target</text>
  <rect class="activating" x="1273.182" y="1320.000" width="18.512" height="19.000" />
  <rect class="active" x="1291.694" y="1320.000" width="343.174" height="19.000" />
  <rect class="deactivating" x="1634.867" y="1320.000" width="0.000" height="19.000" />
  <text class="right" x="1268.182" y="1334.000">tcf-agent.service (185ms)</text>
  <rect class="activating" x="1273.707" y="1340.000" width="22.600" height="19.000" />
  <rect class="active" x="1296.307" y="1340.000" width="338.561" height="19.000" />
  <rect class="deactivating" x="1634.867" y="1340.000" width="0.000" height="19.000" />
  <text class="right" x="1268.707" y="1354.000">systemd-resolved.service (226ms)</text>
  <rect class="activating" x="1274.434" y="1360.000" width="360.346" height="19.000" />
  <rect class="active" x="1634.779" y="1360.000" width="0.088" height="19.000" />
  <rect class="deactivating" x="1634.867" y="1360.000" width="0.000" height="19.000" />
  <text class="right" x="1269.434" y="1374.000">dom0-contctl.service (3.603s)</text>
  <rect class="activating" x="1275.521" y="1380.000" width="3.459" height="19.000" />
  <rect class="active" x="1278.979" y="1380.000" width="355.888" height="19.000" />
  <rect class="deactivating" x="1634.867" y="1380.000" width="0.000" height="19.000" />
  <text class="right" x="1270.521" y="1394.000">rc-local.service (34ms)</text>
  <rect class="activating" x="1276.497" y="1400.000" width="5.213" height="19.000" />
  <rect class="active" x="1281.710" y="1400.000" width="353.158" height="19.000" />
  <rect class="deactivating" x="1634.867" y="1400.000" width="0.000" height="19.000" />
  <text class="right" x="1271.497" y="1414.000">xinetd.service (52ms)</text>
  <rect class="activating" x="1280.548" y="1420.000" width="0.000" height="19.000" />
  <rect class="active" x="1280.548" y="1420.000" width="354.320" height="19.000" />
  <rect class="deactivating" x="1634.867" y="1420.000" width="0.000" height="19.000" />
  <text class="right" x="1275.548" y="1434.000">console-getty.service</text>
  <rect class="activating" x="1281.097" y="1440.000" width="0.000" height="19.000" />
  <rect class="active" x="1281.097" y="1440.000" width="353.770" height="19.000" />
  <rect class="deactivating" x="1634.867" y="1440.000" width="0.000" height="19.000" />
  <text class="right" x="1276.097" y="1454.000">getty.target</text>
  <rect class="activating" x="1289.442" y="1460.000" width="0.000" height="19.000" />
  <rect class="active" x="1289.442" y="1460.000" width="345.426" height="19.000" />
  <rect class="deactivating" x="1634.867" y="1460.000" width="0.000" height="19.000" />
  <text class="right" x="1284.442" y="1474.000">run-cgmanager-fs.mount</text>
  <rect class="activating" x="1296.863" y="1480.000" width="3.717" height="19.000" />
  <rect class="active" x="1300.581" y="1480.000" width="334.287" height="19.000" />
  <rect class="deactivating" x="1634.867" y="1480.000" width="0.000" height="19.000" />
  <text class="right" x="1291.863" y="1494.000">dnsmasq.service (37ms)</text>
  <rect class="activating" x="1328.940" y="1500.000" width="1.414" height="19.000" />
  <rect class="active" x="1330.354" y="1500.000" width="304.513" height="19.000" />
  <rect class="deactivating" x="1634.867" y="1500.000" width="0.000" height="19.000" />
  <text class="right" x="1323.940" y="1514.000">openvswitch-switch.service (14ms)</text>
  <rect class="activating" x="1332.150" y="1520.000" width="0.000" height="19.000" />
  <rect class="active" x="1332.150" y="1520.000" width="302.718" height="19.000" />
  <rect class="deactivating" x="1634.867" y="1520.000" width="0.000" height="19.000" />
  <text class="right" x="1327.150" y="1534.000">multi-user.target</text>
  <rect class="activating" x="1332.723" y="1540.000" width="4.055" height="19.000" />
  <rect class="active" x="1336.779" y="1540.000" width="0.000" height="19.000" />
  <rect class="deactivating" x="1336.779" y="1540.000" width="0.000" height="19.000" />
  <text class="right" x="1327.723" y="1554.000">systemd-update-utmp-runlevel.service (40ms)</text>
  <rect class="activating" x="1559.051" y="1560.000" width="10.389" height="19.000" />
  <rect class="active" x="1569.439" y="1560.000" width="3002.856" height="19.000" />
  <rect class="deactivating" x="4572.295" y="1560.000" width="1844674407368017.750" height="19.000" />
  <text class="right" x="1554.051" y="1574.000">systemd-hostnamed.service (103ms)</text>
</g>
<g transform="translate(20,100)">
  <rect class="activating" x="0.000" y="1600.000" width="30.000" height="19.000" />
  <text class="left" x="45.000" y="1614.000">Activating</text>
  <rect class="active" x="0.000" y="1620.000" width="30.000" height="19.000" />
  <text class="left" x="45.000" y="1634.000">Active</text>
  <rect class="deactivating" x="0.000" y="1640.000" width="30.000" height="19.000" />
  <text class="left" x="45.000" y="1654.000">Deactivating</text>
  <rect class="security" x="0.000" y="1660.000" width="30.000" height="19.000" />
  <text class="left" x="45.000" y="1674.000">Setting up security module</text>
  <rect class="generators" x="0.000" y="1680.000" width="30.000" height="19.000" />
  <text class="left" x="45.000" y="1694.000">Generators</text>
  <rect class="unitsload" x="0.000" y="1700.000" width="30.000" height="19.000" />
  <text class="left" x="45.000" y="1714.000">Loading unit files</text>
</g>

</svg>
