<?xml version="1.0" standalone="no"?>
<!DOCTYPE svg PUBLIC "-//W3C//DTD SVG 1.1//EN" "http://www.w3.org/Graphics/SVG/1.1/DTD/svg11.dtd">
<svg width="2260px" height="1950px" version="1.1" xmlns="http://www.w3.org/2000/svg">

<!-- This file is a systemd-analyze SVG file. It is best rendered in a   -->
<!-- browser such as Chrome, Chromium or Firefox. Other applications     -->
<!-- that render these files properly but much slower are ImageMagick,   -->
<!-- gimp, inkscape, etc. To display the files on your system, just      -->
<!-- point your browser to this file.                                    -->

<!-- This plot was generated by systemd-analyze version 225              -->

<defs>
  <style type="text/css">
    <![CDATA[
      rect       { stroke-width: 1; stroke-opacity: 0; }
      rect.background   { fill: rgb(255,255,255); }
      rect.activating   { fill: rgb(255,0,0); fill-opacity: 0.7; }
      rect.active       { fill: rgb(200,150,150); fill-opacity: 0.7; }
      rect.deactivating { fill: rgb(150,100,100); fill-opacity: 0.7; }
      rect.kernel       { fill: rgb(150,150,150); fill-opacity: 0.7; }
      rect.initrd       { fill: rgb(150,150,150); fill-opacity: 0.7; }
      rect.firmware     { fill: rgb(150,150,150); fill-opacity: 0.7; }
      rect.loader       { fill: rgb(150,150,150); fill-opacity: 0.7; }
      rect.userspace    { fill: rgb(150,150,150); fill-opacity: 0.7; }
      rect.security     { fill: rgb(144,238,144); fill-opacity: 0.7; }
      rect.generators   { fill: rgb(102,204,255); fill-opacity: 0.7; }
      rect.unitsload    { fill: rgb( 82,184,255); fill-opacity: 0.7; }
      rect.box   { fill: rgb(240,240,240); stroke: rgb(192,192,192); }
      line       { stroke: rgb(64,64,64); stroke-width: 1; }
//    line.sec1  { }
      line.sec5  { stroke-width: 2; }
      line.sec01 { stroke: rgb(224,224,224); stroke-width: 1; }
      text       { font-family: Verdana, Helvetica; font-size: 14px; }
      text.left  { font-family: Verdana, Helvetica; font-size: 14px; text-anchor: start; }
      text.right { font-family: Verdana, Helvetica; font-size: 14px; text-anchor: end; }
      text.sec   { font-size: 10px; }
    ]]>
   </style>
</defs>

<rect class="background" width="100%" height="100%" />
<text x="20" y="50">Startup finished in 5.657s (userspace) = 21.804s</text><text x="20" y="30">Linux  (  ) arm lxc</text><g transform="translate(20.000,100)">
<rect class="box" x="0" y="0" width="2180.423" height="1700.000" />
  <line class="sec5" x1="0.000" y1="0" x2="0.000" y2="1700.000" />
  <text class="sec" x="0.000" y="-5.000" >0.0s</text>
  <line class="sec01" x1="10.000" y1="0" x2="10.000" y2="1700.000" />
  <line class="sec01" x1="20.000" y1="0" x2="20.000" y2="1700.000" />
  <line class="sec01" x1="30.000" y1="0" x2="30.000" y2="1700.000" />
  <line class="sec01" x1="40.000" y1="0" x2="40.000" y2="1700.000" />
  <line class="sec01" x1="50.000" y1="0" x2="50.000" y2="1700.000" />
  <line class="sec01" x1="60.000" y1="0" x2="60.000" y2="1700.000" />
  <line class="sec01" x1="70.000" y1="0" x2="70.000" y2="1700.000" />
  <line class="sec01" x1="80.000" y1="0" x2="80.000" y2="1700.000" />
  <line class="sec01" x1="90.000" y1="0" x2="90.000" y2="1700.000" />
  <line class="sec1" x1="100.000" y1="0" x2="100.000" y2="1700.000" />
  <text class="sec" x="100.000" y="-5.000" >1.0s</text>
  <line class="sec01" x1="110.000" y1="0" x2="110.000" y2="1700.000" />
  <line class="sec01" x1="120.000" y1="0" x2="120.000" y2="1700.000" />
  <line class="sec01" x1="130.000" y1="0" x2="130.000" y2="1700.000" />
  <line class="sec01" x1="140.000" y1="0" x2="140.000" y2="1700.000" />
  <line class="sec01" x1="150.000" y1="0" x2="150.000" y2="1700.000" />
  <line class="sec01" x1="160.000" y1="0" x2="160.000" y2="1700.000" />
  <line class="sec01" x1="170.000" y1="0" x2="170.000" y2="1700.000" />
  <line class="sec01" x1="180.000" y1="0" x2="180.000" y2="1700.000" />
  <line class="sec01" x1="190.000" y1="0" x2="190.000" y2="1700.000" />
  <line class="sec1" x1="200.000" y1="0" x2="200.000" y2="1700.000" />
  <text class="sec" x="200.000" y="-5.000" >2.0s</text>
  <line class="sec01" x1="210.000" y1="0" x2="210.000" y2="1700.000" />
  <line class="sec01" x1="220.000" y1="0" x2="220.000" y2="1700.000" />
  <line class="sec01" x1="230.000" y1="0" x2="230.000" y2="1700.000" />
  <line class="sec01" x1="240.000" y1="0" x2="240.000" y2="1700.000" />
  <line class="sec01" x1="250.000" y1="0" x2="250.000" y2="1700.000" />
  <line class="sec01" x1="260.000" y1="0" x2="260.000" y2="1700.000" />
  <line class="sec01" x1="270.000" y1="0" x2="270.000" y2="1700.000" />
  <line class="sec01" x1="280.000" y1="0" x2="280.000" y2="1700.000" />
  <line class="sec01" x1="290.000" y1="0" x2="290.000" y2="1700.000" />
  <line class="sec1" x1="300.000" y1="0" x2="300.000" y2="1700.000" />
  <text class="sec" x="300.000" y="-5.000" >3.0s</text>
  <line class="sec01" x1="310.000" y1="0" x2="310.000" y2="1700.000" />
  <line class="sec01" x1="320.000" y1="0" x2="320.000" y2="1700.000" />
  <line class="sec01" x1="330.000" y1="0" x2="330.000" y2="1700.000" />
  <line class="sec01" x1="340.000" y1="0" x2="340.000" y2="1700.000" />
  <line class="sec01" x1="350.000" y1="0" x2="350.000" y2="1700.000" />
  <line class="sec01" x1="360.000" y1="0" x2="360.000" y2="1700.000" />
  <line class="sec01" x1="370.000" y1="0" x2="370.000" y2="1700.000" />
  <line class="sec01" x1="380.000" y1="0" x2="380.000" y2="1700.000" />
  <line class="sec01" x1="390.000" y1="0" x2="390.000" y2="1700.000" />
  <line class="sec1" x1="400.000" y1="0" x2="400.000" y2="1700.000" />
  <text class="sec" x="400.000" y="-5.000" >4.0s</text>
  <line class="sec01" x1="410.000" y1="0" x2="410.000" y2="1700.000" />
  <line class="sec01" x1="420.000" y1="0" x2="420.000" y2="1700.000" />
  <line class="sec01" x1="430.000" y1="0" x2="430.000" y2="1700.000" />
  <line class="sec01" x1="440.000" y1="0" x2="440.000" y2="1700.000" />
  <line class="sec01" x1="450.000" y1="0" x2="450.000" y2="1700.000" />
  <line class="sec01" x1="460.000" y1="0" x2="460.000" y2="1700.000" />
  <line class="sec01" x1="470.000" y1="0" x2="470.000" y2="1700.000" />
  <line class="sec01" x1="480.000" y1="0" x2="480.000" y2="1700.000" />
  <line class="sec01" x1="490.000" y1="0" x2="490.000" y2="1700.000" />
  <line class="sec5" x1="500.000" y1="0" x2="500.000" y2="1700.000" />
  <text class="sec" x="500.000" y="-5.000" >5.0s</text>
  <line class="sec01" x1="510.000" y1="0" x2="510.000" y2="1700.000" />
  <line class="sec01" x1="520.000" y1="0" x2="520.000" y2="1700.000" />
  <line class="sec01" x1="530.000" y1="0" x2="530.000" y2="1700.000" />
  <line class="sec01" x1="540.000" y1="0" x2="540.000" y2="1700.000" />
  <line class="sec01" x1="550.000" y1="0" x2="550.000" y2="1700.000" />
  <line class="sec01" x1="560.000" y1="0" x2="560.000" y2="1700.000" />
  <line class="sec01" x1="570.000" y1="0" x2="570.000" y2="1700.000" />
  <line class="sec01" x1="580.000" y1="0" x2="580.000" y2="1700.000" />
  <line class="sec01" x1="590.000" y1="0" x2="590.000" y2="1700.000" />
  <line class="sec1" x1="600.000" y1="0" x2="600.000" y2="1700.000" />
  <text class="sec" x="600.000" y="-5.000" >6.0s</text>
  <line class="sec01" x1="610.000" y1="0" x2="610.000" y2="1700.000" />
  <line class="sec01" x1="620.000" y1="0" x2="620.000" y2="1700.000" />
  <line class="sec01" x1="630.000" y1="0" x2="630.000" y2="1700.000" />
  <line class="sec01" x1="640.000" y1="0" x2="640.000" y2="1700.000" />
  <line class="sec01" x1="650.000" y1="0" x2="650.000" y2="1700.000" />
  <line class="sec01" x1="660.000" y1="0" x2="660.000" y2="1700.000" />
  <line class="sec01" x1="670.000" y1="0" x2="670.000" y2="1700.000" />
  <line class="sec01" x1="680.000" y1="0" x2="680.000" y2="1700.000" />
  <line class="sec01" x1="690.000" y1="0" x2="690.000" y2="1700.000" />
  <line class="sec1" x1="700.000" y1="0" x2="700.000" y2="1700.000" />
  <text class="sec" x="700.000" y="-5.000" >7.0s</text>
  <line class="sec01" x1="710.000" y1="0" x2="710.000" y2="1700.000" />
  <line class="sec01" x1="720.000" y1="0" x2="720.000" y2="1700.000" />
  <line class="sec01" x1="730.000" y1="0" x2="730.000" y2="1700.000" />
  <line class="sec01" x1="740.000" y1="0" x2="740.000" y2="1700.000" />
  <line class="sec01" x1="750.000" y1="0" x2="750.000" y2="1700.000" />
  <line class="sec01" x1="760.000" y1="0" x2="760.000" y2="1700.000" />
  <line class="sec01" x1="770.000" y1="0" x2="770.000" y2="1700.000" />
  <line class="sec01" x1="780.000" y1="0" x2="780.000" y2="1700.000" />
  <line class="sec01" x1="790.000" y1="0" x2="790.000" y2="1700.000" />
  <line class="sec1" x1="800.000" y1="0" x2="800.000" y2="1700.000" />
  <text class="sec" x="800.000" y="-5.000" >8.0s</text>
  <line class="sec01" x1="810.000" y1="0" x2="810.000" y2="1700.000" />
  <line class="sec01" x1="820.000" y1="0" x2="820.000" y2="1700.000" />
  <line class="sec01" x1="830.000" y1="0" x2="830.000" y2="1700.000" />
  <line class="sec01" x1="840.000" y1="0" x2="840.000" y2="1700.000" />
  <line class="sec01" x1="850.000" y1="0" x2="850.000" y2="1700.000" />
  <line class="sec01" x1="860.000" y1="0" x2="860.000" y2="1700.000" />
  <line class="sec01" x1="870.000" y1="0" x2="870.000" y2="1700.000" />
  <line class="sec01" x1="880.000" y1="0" x2="880.000" y2="1700.000" />
  <line class="sec01" x1="890.000" y1="0" x2="890.000" y2="1700.000" />
  <line class="sec1" x1="900.000" y1="0" x2="900.000" y2="1700.000" />
  <text class="sec" x="900.000" y="-5.000" >9.0s</text>
  <line class="sec01" x1="910.000" y1="0" x2="910.000" y2="1700.000" />
  <line class="sec01" x1="920.000" y1="0" x2="920.000" y2="1700.000" />
  <line class="sec01" x1="930.000" y1="0" x2="930.000" y2="1700.000" />
  <line class="sec01" x1="940.000" y1="0" x2="940.000" y2="1700.000" />
  <line class="sec01" x1="950.000" y1="0" x2="950.000" y2="1700.000" />
  <line class="sec01" x1="960.000" y1="0" x2="960.000" y2="1700.000" />
  <line class="sec01" x1="970.000" y1="0" x2="970.000" y2="1700.000" />
  <line class="sec01" x1="980.000" y1="0" x2="980.000" y2="1700.000" />
  <line class="sec01" x1="990.000" y1="0" x2="990.000" y2="1700.000" />
  <line class="sec5" x1="1000.000" y1="0" x2="1000.000" y2="1700.000" />
  <text class="sec" x="1000.000" y="-5.000" >10.0s</text>
  <line class="sec01" x1="1010.000" y1="0" x2="1010.000" y2="1700.000" />
  <line class="sec01" x1="1020.000" y1="0" x2="1020.000" y2="1700.000" />
  <line class="sec01" x1="1030.000" y1="0" x2="1030.000" y2="1700.000" />
  <line class="sec01" x1="1040.000" y1="0" x2="1040.000" y2="1700.000" />
  <line class="sec01" x1="1050.000" y1="0" x2="1050.000" y2="1700.000" />
  <line class="sec01" x1="1060.000" y1="0" x2="1060.000" y2="1700.000" />
  <line class="sec01" x1="1070.000" y1="0" x2="1070.000" y2="1700.000" />
  <line class="sec01" x1="1080.000" y1="0" x2="1080.000" y2="1700.000" />
  <line class="sec01" x1="1090.000" y1="0" x2="1090.000" y2="1700.000" />
  <line class="sec1" x1="1100.000" y1="0" x2="1100.000" y2="1700.000" />
  <text class="sec" x="1100.000" y="-5.000" >11.0s</text>
  <line class="sec01" x1="1110.000" y1="0" x2="1110.000" y2="1700.000" />
  <line class="sec01" x1="1120.000" y1="0" x2="1120.000" y2="1700.000" />
  <line class="sec01" x1="1130.000" y1="0" x2="1130.000" y2="1700.000" />
  <line class="sec01" x1="1140.000" y1="0" x2="1140.000" y2="1700.000" />
  <line class="sec01" x1="1150.000" y1="0" x2="1150.000" y2="1700.000" />
  <line class="sec01" x1="1160.000" y1="0" x2="1160.000" y2="1700.000" />
  <line class="sec01" x1="1170.000" y1="0" x2="1170.000" y2="1700.000" />
  <line class="sec01" x1="1180.000" y1="0" x2="1180.000" y2="1700.000" />
  <line class="sec01" x1="1190.000" y1="0" x2="1190.000" y2="1700.000" />
  <line class="sec1" x1="1200.000" y1="0" x2="1200.000" y2="1700.000" />
  <text class="sec" x="1200.000" y="-5.000" >12.0s</text>
  <line class="sec01" x1="1210.000" y1="0" x2="1210.000" y2="1700.000" />
  <line class="sec01" x1="1220.000" y1="0" x2="1220.000" y2="1700.000" />
  <line class="sec01" x1="1230.000" y1="0" x2="1230.000" y2="1700.000" />
  <line class="sec01" x1="1240.000" y1="0" x2="1240.000" y2="1700.000" />
  <line class="sec01" x1="1250.000" y1="0" x2="1250.000" y2="1700.000" />
  <line class="sec01" x1="1260.000" y1="0" x2="1260.000" y2="1700.000" />
  <line class="sec01" x1="1270.000" y1="0" x2="1270.000" y2="1700.000" />
  <line class="sec01" x1="1280.000" y1="0" x2="1280.000" y2="1700.000" />
  <line class="sec01" x1="1290.000" y1="0" x2="1290.000" y2="1700.000" />
  <line class="sec1" x1="1300.000" y1="0" x2="1300.000" y2="1700.000" />
  <text class="sec" x="1300.000" y="-5.000" >13.0s</text>
  <line class="sec01" x1="1310.000" y1="0" x2="1310.000" y2="1700.000" />
  <line class="sec01" x1="1320.000" y1="0" x2="1320.000" y2="1700.000" />
  <line class="sec01" x1="1330.000" y1="0" x2="1330.000" y2="1700.000" />
  <line class="sec01" x1="1340.000" y1="0" x2="1340.000" y2="1700.000" />
  <line class="sec01" x1="1350.000" y1="0" x2="1350.000" y2="1700.000" />
  <line class="sec01" x1="1360.000" y1="0" x2="1360.000" y2="1700.000" />
  <line class="sec01" x1="1370.000" y1="0" x2="1370.000" y2="1700.000" />
  <line class="sec01" x1="1380.000" y1="0" x2="1380.000" y2="1700.000" />
  <line class="sec01" x1="1390.000" y1="0" x2="1390.000" y2="1700.000" />
  <line class="sec1" x1="1400.000" y1="0" x2="1400.000" y2="1700.000" />
  <text class="sec" x="1400.000" y="-5.000" >14.0s</text>
  <line class="sec01" x1="1410.000" y1="0" x2="1410.000" y2="1700.000" />
  <line class="sec01" x1="1420.000" y1="0" x2="1420.000" y2="1700.000" />
  <line class="sec01" x1="1430.000" y1="0" x2="1430.000" y2="1700.000" />
  <line class="sec01" x1="1440.000" y1="0" x2="1440.000" y2="1700.000" />
  <line class="sec01" x1="1450.000" y1="0" x2="1450.000" y2="1700.000" />
  <line class="sec01" x1="1460.000" y1="0" x2="1460.000" y2="1700.000" />
  <line class="sec01" x1="1470.000" y1="0" x2="1470.000" y2="1700.000" />
  <line class="sec01" x1="1480.000" y1="0" x2="1480.000" y2="1700.000" />
  <line class="sec01" x1="1490.000" y1="0" x2="1490.000" y2="1700.000" />
  <line class="sec5" x1="1500.000" y1="0" x2="1500.000" y2="1700.000" />
  <text class="sec" x="1500.000" y="-5.000" >15.0s</text>
  <line class="sec01" x1="1510.000" y1="0" x2="1510.000" y2="1700.000" />
  <line class="sec01" x1="1520.000" y1="0" x2="1520.000" y2="1700.000" />
  <line class="sec01" x1="1530.000" y1="0" x2="1530.000" y2="1700.000" />
  <line class="sec01" x1="1540.000" y1="0" x2="1540.000" y2="1700.000" />
  <line class="sec01" x1="1550.000" y1="0" x2="1550.000" y2="1700.000" />
  <line class="sec01" x1="1560.000" y1="0" x2="1560.000" y2="1700.000" />
  <line class="sec01" x1="1570.000" y1="0" x2="1570.000" y2="1700.000" />
  <line class="sec01" x1="1580.000" y1="0" x2="1580.000" y2="1700.000" />
  <line class="sec01" x1="1590.000" y1="0" x2="1590.000" y2="1700.000" />
  <line class="sec1" x1="1600.000" y1="0" x2="1600.000" y2="1700.000" />
  <text class="sec" x="1600.000" y="-5.000" >16.0s</text>
  <line class="sec01" x1="1610.000" y1="0" x2="1610.000" y2="1700.000" />
  <line class="sec01" x1="1620.000" y1="0" x2="1620.000" y2="1700.000" />
  <line class="sec01" x1="1630.000" y1="0" x2="1630.000" y2="1700.000" />
  <line class="sec01" x1="1640.000" y1="0" x2="1640.000" y2="1700.000" />
  <line class="sec01" x1="1650.000" y1="0" x2="1650.000" y2="1700.000" />
  <line class="sec01" x1="1660.000" y1="0" x2="1660.000" y2="1700.000" />
  <line class="sec01" x1="1670.000" y1="0" x2="1670.000" y2="1700.000" />
  <line class="sec01" x1="1680.000" y1="0" x2="1680.000" y2="1700.000" />
  <line class="sec01" x1="1690.000" y1="0" x2="1690.000" y2="1700.000" />
  <line class="sec1" x1="1700.000" y1="0" x2="1700.000" y2="1700.000" />
  <text class="sec" x="1700.000" y="-5.000" >17.0s</text>
  <line class="sec01" x1="1710.000" y1="0" x2="1710.000" y2="1700.000" />
  <line class="sec01" x1="1720.000" y1="0" x2="1720.000" y2="1700.000" />
  <line class="sec01" x1="1730.000" y1="0" x2="1730.000" y2="1700.000" />
  <line class="sec01" x1="1740.000" y1="0" x2="1740.000" y2="1700.000" />
  <line class="sec01" x1="1750.000" y1="0" x2="1750.000" y2="1700.000" />
  <line class="sec01" x1="1760.000" y1="0" x2="1760.000" y2="1700.000" />
  <line class="sec01" x1="1770.000" y1="0" x2="1770.000" y2="1700.000" />
  <line class="sec01" x1="1780.000" y1="0" x2="1780.000" y2="1700.000" />
  <line class="sec01" x1="1790.000" y1="0" x2="1790.000" y2="1700.000" />
  <line class="sec1" x1="1800.000" y1="0" x2="1800.000" y2="1700.000" />
  <text class="sec" x="1800.000" y="-5.000" >18.0s</text>
  <line class="sec01" x1="1810.000" y1="0" x2="1810.000" y2="1700.000" />
  <line class="sec01" x1="1820.000" y1="0" x2="1820.000" y2="1700.000" />
  <line class="sec01" x1="1830.000" y1="0" x2="1830.000" y2="1700.000" />
  <line class="sec01" x1="1840.000" y1="0" x2="1840.000" y2="1700.000" />
  <line class="sec01" x1="1850.000" y1="0" x2="1850.000" y2="1700.000" />
  <line class="sec01" x1="1860.000" y1="0" x2="1860.000" y2="1700.000" />
  <line class="sec01" x1="1870.000" y1="0" x2="1870.000" y2="1700.000" />
  <line class="sec01" x1="1880.000" y1="0" x2="1880.000" y2="1700.000" />
  <line class="sec01" x1="1890.000" y1="0" x2="1890.000" y2="1700.000" />
  <line class="sec1" x1="1900.000" y1="0" x2="1900.000" y2="1700.000" />
  <text class="sec" x="1900.000" y="-5.000" >19.0s</text>
  <line class="sec01" x1="1910.000" y1="0" x2="1910.000" y2="1700.000" />
  <line class="sec01" x1="1920.000" y1="0" x2="1920.000" y2="1700.000" />
  <line class="sec01" x1="1930.000" y1="0" x2="1930.000" y2="1700.000" />
  <line class="sec01" x1="1940.000" y1="0" x2="1940.000" y2="1700.000" />
  <line class="sec01" x1="1950.000" y1="0" x2="1950.000" y2="1700.000" />
  <line class="sec01" x1="1960.000" y1="0" x2="1960.000" y2="1700.000" />
  <line class="sec01" x1="1970.000" y1="0" x2="1970.000" y2="1700.000" />
  <line class="sec01" x1="1980.000" y1="0" x2="1980.000" y2="1700.000" />
  <line class="sec01" x1="1990.000" y1="0" x2="1990.000" y2="1700.000" />
  <line class="sec5" x1="2000.000" y1="0" x2="2000.000" y2="1700.000" />
  <text class="sec" x="2000.000" y="-5.000" >20.0s</text>
  <line class="sec01" x1="2010.000" y1="0" x2="2010.000" y2="1700.000" />
  <line class="sec01" x1="2020.000" y1="0" x2="2020.000" y2="1700.000" />
  <line class="sec01" x1="2030.000" y1="0" x2="2030.000" y2="1700.000" />
  <line class="sec01" x1="2040.000" y1="0" x2="2040.000" y2="1700.000" />
  <line class="sec01" x1="2050.000" y1="0" x2="2050.000" y2="1700.000" />
  <line class="sec01" x1="2060.000" y1="0" x2="2060.000" y2="1700.000" />
  <line class="sec01" x1="2070.000" y1="0" x2="2070.000" y2="1700.000" />
  <line class="sec01" x1="2080.000" y1="0" x2="2080.000" y2="1700.000" />
  <line class="sec01" x1="2090.000" y1="0" x2="2090.000" y2="1700.000" />
  <line class="sec1" x1="2100.000" y1="0" x2="2100.000" y2="1700.000" />
  <text class="sec" x="2100.000" y="-5.000" >21.0s</text>
  <line class="sec01" x1="2110.000" y1="0" x2="2110.000" y2="1700.000" />
  <line class="sec01" x1="2120.000" y1="0" x2="2120.000" y2="1700.000" />
  <line class="sec01" x1="2130.000" y1="0" x2="2130.000" y2="1700.000" />
  <line class="sec01" x1="2140.000" y1="0" x2="2140.000" y2="1700.000" />
  <line class="sec01" x1="2150.000" y1="0" x2="2150.000" y2="1700.000" />
  <line class="sec01" x1="2160.000" y1="0" x2="2160.000" y2="1700.000" />
  <line class="sec01" x1="2170.000" y1="0" x2="2170.000" y2="1700.000" />
  <line class="sec01" x1="2180.000" y1="0" x2="2180.000" y2="1700.000" />
  <rect class="active" x="1614.698" y="0.000" width="565.725" height="19.000" />
  <rect class="security" x="0.000" y="0.000" width="0.000" height="19.000" />
  <rect class="generators" x="1619.090" y="0.000" width="13.266" height="19.000" />
  <rect class="unitsload" x="1633.412" y="0.000" width="21.662" height="19.000" />
  <text class="left" x="1619.698" y="14.000">systemd</text>
  <rect class="activating" x="1655.129" y="20.000" width="0.000" height="19.000" />
  <rect class="active" x="1655.129" y="20.000" width="525.294" height="19.000" />
  <rect class="deactivating" x="2180.423" y="20.000" width="0.000" height="19.000" />
  <text class="right" x="1650.129" y="34.000">usr.mount</text>
  <rect class="activating" x="1655.132" y="40.000" width="525.291" height="19.000" />
  <rect class="active" x="2180.423" y="40.000" width="0.000" height="19.000" />
  <rect class="deactivating" x="2180.423" y="40.000" width="0.000" height="19.000" />
  <text class="right" x="1650.132" y="54.000">dev-mmcblk0p4.device</text>
  <rect class="activating" x="1655.135" y="60.000" width="525.288" height="19.000" />
  <rect class="active" x="2180.423" y="60.000" width="0.000" height="19.000" />
  <rect class="deactivating" x="2180.423" y="60.000" width="0.000" height="19.000" />
  <text class="right" x="1650.135" y="74.000">dev-mmcblk0p3.device</text>
  <rect class="activating" x="1655.251" y="80.000" width="0.000" height="19.000" />
  <rect class="active" x="1655.251" y="80.000" width="525.172" height="19.000" />
  <rect class="deactivating" x="2180.423" y="80.000" width="0.000" height="19.000" />
  <text class="right" x="1650.251" y="94.000">etc-system\x2did.mount</text>
  <rect class="activating" x="1655.255" y="100.000" width="0.000" height="19.000" />
  <rect class="active" x="1655.255" y="100.000" width="525.168" height="19.000" />
  <rect class="deactivating" x="2180.423" y="100.000" width="0.000" height="19.000" />
  <text class="right" x="1650.255" y="114.000">-.mount</text>
  <rect class="activating" x="1655.257" y="120.000" width="0.000" height="19.000" />
  <rect class="active" x="1655.257" y="120.000" width="525.166" height="19.000" />
  <rect class="deactivating" x="2180.423" y="120.000" width="0.000" height="19.000" />
  <text class="right" x="1650.257" y="134.000">opt-container-local.mount</text>
  <rect class="activating" x="1655.260" y="140.000" width="0.000" height="19.000" />
  <rect class="active" x="1655.260" y="140.000" width="525.163" height="19.000" />
  <rect class="deactivating" x="2180.423" y="140.000" width="0.000" height="19.000" />
  <text class="right" x="1650.260" y="154.000">opt-container-all.mount</text>
  <rect class="activating" x="1655.928" y="160.000" width="0.000" height="19.000" />
  <rect class="active" x="1655.928" y="160.000" width="524.495" height="19.000" />
  <rect class="deactivating" x="2180.423" y="160.000" width="0.000" height="19.000" />
  <text class="right" x="1650.928" y="174.000">remote-fs.target</text>
  <rect class="activating" x="1655.997" y="180.000" width="0.000" height="19.000" />
  <rect class="active" x="1655.997" y="180.000" width="524.426" height="19.000" />
  <rect class="deactivating" x="2180.423" y="180.000" width="0.000" height="19.000" />
  <text class="right" x="1650.997" y="194.000">systemd-ask-password-wall.path</text>
  <rect class="activating" x="1656.024" y="200.000" width="0.000" height="19.000" />
  <rect class="active" x="1656.024" y="200.000" width="524.399" height="19.000" />
  <rect class="deactivating" x="2180.423" y="200.000" width="0.000" height="19.000" />
  <text class="right" x="1651.024" y="214.000">swap.target</text>
  <rect class="activating" x="1656.070" y="220.000" width="0.000" height="19.000" />
  <rect class="active" x="1656.070" y="220.000" width="524.353" height="19.000" />
  <rect class="deactivating" x="2180.423" y="220.000" width="0.000" height="19.000" />
  <text class="right" x="1651.070" y="234.000">systemd-ask-password-console.path</text>
  <rect class="activating" x="1656.087" y="240.000" width="0.000" height="19.000" />
  <rect class="active" x="1656.087" y="240.000" width="524.336" height="19.000" />
  <rect class="deactivating" x="2180.423" y="240.000" width="0.000" height="19.000" />
  <text class="right" x="1651.087" y="254.000">paths.target</text>
  <rect class="activating" x="1656.272" y="260.000" width="0.000" height="19.000" />
  <rect class="active" x="1656.272" y="260.000" width="524.151" height="19.000" />
  <rect class="deactivating" x="2180.423" y="260.000" width="0.000" height="19.000" />
  <text class="right" x="1651.272" y="274.000">-.slice</text>
  <rect class="activating" x="1656.310" y="280.000" width="0.000" height="19.000" />
  <rect class="active" x="1656.310" y="280.000" width="524.113" height="19.000" />
  <rect class="deactivating" x="2180.423" y="280.000" width="0.000" height="19.000" />
  <text class="right" x="1651.310" y="294.000">systemd-udevd-control.socket</text>
  <rect class="activating" x="1656.344" y="300.000" width="0.000" height="19.000" />
  <rect class="active" x="1656.344" y="300.000" width="524.079" height="19.000" />
  <rect class="deactivating" x="2180.423" y="300.000" width="0.000" height="19.000" />
  <text class="right" x="1651.344" y="314.000">systemd-journald-dev-log.socket</text>
  <rect class="activating" x="1656.379" y="320.000" width="0.000" height="19.000" />
  <rect class="active" x="1656.379" y="320.000" width="524.044" height="19.000" />
  <rect class="deactivating" x="2180.423" y="320.000" width="0.000" height="19.000" />
  <text class="right" x="1651.379" y="334.000">systemd-journald.socket</text>
  <rect class="activating" x="1656.865" y="340.000" width="0.000" height="19.000" />
  <rect class="active" x="1656.865" y="340.000" width="523.558" height="19.000" />
  <rect class="deactivating" x="2180.423" y="340.000" width="0.000" height="19.000" />
  <text class="right" x="1651.865" y="354.000">systemd-udevd-kernel.socket</text>
  <rect class="activating" x="1656.894" y="360.000" width="0.000" height="19.000" />
  <rect class="active" x="1656.894" y="360.000" width="523.529" height="19.000" />
  <rect class="deactivating" x="2180.423" y="360.000" width="0.000" height="19.000" />
  <text class="right" x="1651.894" y="374.000">syslog.socket</text>
  <rect class="activating" x="1656.978" y="380.000" width="0.000" height="19.000" />
  <rect class="active" x="1656.978" y="380.000" width="523.445" height="19.000" />
  <rect class="deactivating" x="2180.423" y="380.000" width="0.000" height="19.000" />
  <text class="right" x="1651.978" y="394.000">user.slice</text>
  <rect class="activating" x="1657.037" y="400.000" width="0.000" height="19.000" />
  <rect class="active" x="1657.037" y="400.000" width="523.386" height="19.000" />
  <rect class="deactivating" x="2180.423" y="400.000" width="0.000" height="19.000" />
  <text class="right" x="1652.037" y="414.000">systemd-networkd.socket</text>
  <rect class="activating" x="1657.065" y="420.000" width="0.000" height="19.000" />
  <rect class="active" x="1657.065" y="420.000" width="523.358" height="19.000" />
  <rect class="deactivating" x="2180.423" y="420.000" width="0.000" height="19.000" />
  <text class="right" x="1652.065" y="434.000">systemd-initctl.socket</text>
  <rect class="activating" x="1657.150" y="440.000" width="0.000" height="19.000" />
  <rect class="active" x="1657.150" y="440.000" width="523.273" height="19.000" />
  <rect class="deactivating" x="2180.423" y="440.000" width="0.000" height="19.000" />
  <text class="right" x="1652.150" y="454.000">system.slice</text>
  <rect class="activating" x="1657.469" y="460.000" width="11.077" height="19.000" />
  <rect class="active" x="1668.546" y="460.000" width="511.877" height="19.000" />
  <rect class="deactivating" x="2180.423" y="460.000" width="0.000" height="19.000" />
  <text class="right" x="1652.469" y="474.000">systemd-vconsole-setup.service (110ms)</text>
  <rect class="activating" x="1658.475" y="480.000" width="29.650" height="19.000" />
  <rect class="active" x="1688.125" y="480.000" width="492.298" height="19.000" />
  <rect class="deactivating" x="2180.423" y="480.000" width="0.000" height="19.000" />
  <text class="right" x="1653.475" y="494.000">systemd-modules-load.service (296ms)</text>
  <rect class="activating" x="1658.911" y="500.000" width="9.434" height="19.000" />
  <rect class="active" x="1668.345" y="500.000" width="512.078" height="19.000" />
  <rect class="deactivating" x="2180.423" y="500.000" width="0.000" height="19.000" />
  <text class="right" x="1653.911" y="514.000">sys-kernel-debug.mount (94ms)</text>
  <rect class="activating" x="1659.401" y="520.000" width="13.655" height="19.000" />
  <rect class="active" x="1673.057" y="520.000" width="507.366" height="19.000" />
  <rect class="deactivating" x="2180.423" y="520.000" width="0.000" height="19.000" />
  <text class="right" x="1654.401" y="534.000">systemd-remount-fs.service (136ms)</text>
  <rect class="activating" x="1659.578" y="540.000" width="0.000" height="19.000" />
  <rect class="active" x="1659.578" y="540.000" width="520.845" height="19.000" />
  <rect class="deactivating" x="2180.423" y="540.000" width="0.000" height="19.000" />
  <text class="right" x="1654.578" y="554.000">system-getty.slice</text>
  <rect class="activating" x="1660.037" y="560.000" width="8.328" height="19.000" />
  <rect class="active" x="1668.364" y="560.000" width="512.059" height="19.000" />
  <rect class="deactivating" x="2180.423" y="560.000" width="0.000" height="19.000" />
  <text class="right" x="1655.037" y="574.000">tmp.mount (83ms)</text>
  <rect class="activating" x="1660.084" y="580.000" width="0.000" height="19.000" />
  <rect class="active" x="1660.084" y="580.000" width="520.339" height="19.000" />
  <rect class="deactivating" x="2180.423" y="580.000" width="0.000" height="19.000" />
  <text class="right" x="1655.084" y="594.000">slices.target</text>
  <rect class="activating" x="1660.489" y="600.000" width="34.758" height="19.000" />
  <rect class="active" x="1695.247" y="600.000" width="485.176" height="19.000" />
  <rect class="deactivating" x="2180.423" y="600.000" width="0.000" height="19.000" />
  <text class="right" x="1655.489" y="614.000">alignment.service (347ms)</text>
  <rect class="activating" x="1661.511" y="620.000" width="6.805" height="19.000" />
  <rect class="active" x="1668.316" y="620.000" width="512.107" height="19.000" />
  <rect class="deactivating" x="2180.423" y="620.000" width="0.000" height="19.000" />
  <text class="right" x="1656.511" y="634.000">dev-mqueue.mount (68ms)</text>
  <rect class="activating" x="1662.935" y="640.000" width="182.681" height="19.000" />
  <rect class="active" x="1845.616" y="640.000" width="334.807" height="19.000" />
  <rect class="deactivating" x="2180.423" y="640.000" width="0.000" height="19.000" />
  <text class="right" x="1657.935" y="654.000">systemd-journald.service (1.826s)</text>
  <rect class="activating" x="1663.957" y="660.000" width="17.467" height="19.000" />
  <rect class="active" x="1681.424" y="660.000" width="498.999" height="19.000" />
  <rect class="deactivating" x="2180.423" y="660.000" width="0.000" height="19.000" />
  <text class="right" x="1658.957" y="674.000">kmod-static-nodes.service (174ms)</text>
  <rect class="activating" x="1673.493" y="680.000" width="24.279" height="19.000" />
  <rect class="active" x="1697.772" y="680.000" width="482.651" height="19.000" />
  <rect class="deactivating" x="2180.423" y="680.000" width="0.000" height="19.000" />
  <text class="right" x="1668.493" y="694.000">systemd-random-seed.service (242ms)</text>
  <rect class="activating" x="1676.674" y="700.000" width="84.420" height="19.000" />
  <rect class="active" x="1761.094" y="700.000" width="419.329" height="19.000" />
  <rect class="deactivating" x="2180.423" y="700.000" width="0.000" height="19.000" />
  <text class="right" x="1671.674" y="714.000">systemd-udev-trigger.service (844ms)</text>
  <rect class="activating" x="1681.839" y="720.000" width="30.789" height="19.000" />
  <rect class="active" x="1712.627" y="720.000" width="467.796" height="19.000" />
  <rect class="deactivating" x="2180.423" y="720.000" width="0.000" height="19.000" />
  <text class="right" x="1676.839" y="734.000">systemd-tmpfiles-setup-dev.service (307ms)</text>
  <rect class="activating" x="1688.766" y="740.000" width="38.652" height="19.000" />
  <rect class="active" x="1727.418" y="740.000" width="453.005" height="19.000" />
  <rect class="deactivating" x="2180.423" y="740.000" width="0.000" height="19.000" />
  <text class="right" x="1683.766" y="754.000">systemd-sysctl.service (386ms)</text>
  <rect class="activating" x="1689.754" y="760.000" width="4.728" height="19.000" />
  <rect class="active" x="1694.481" y="760.000" width="485.942" height="19.000" />
  <rect class="deactivating" x="2180.423" y="760.000" width="0.000" height="19.000" />
  <text class="right" x="1684.754" y="774.000">sys-kernel-config.mount (47ms)</text>
  <rect class="activating" x="1691.669" y="780.000" width="3.806" height="19.000" />
  <rect class="active" x="1695.475" y="780.000" width="484.948" height="19.000" />
  <rect class="deactivating" x="2180.423" y="780.000" width="0.000" height="19.000" />
  <text class="right" x="1686.669" y="794.000">proc-fs-nfsd.mount (38ms)</text>
  <rect class="activating" x="1713.335" y="800.000" width="0.000" height="19.000" />
  <rect class="active" x="1713.335" y="800.000" width="467.088" height="19.000" />
  <rect class="deactivating" x="2180.423" y="800.000" width="0.000" height="19.000" />
  <text class="right" x="1708.335" y="814.000">local-fs-pre.target</text>
  <rect class="activating" x="1714.164" y="820.000" width="0.000" height="19.000" />
  <rect class="active" x="1714.164" y="820.000" width="466.259" height="19.000" />
  <rect class="deactivating" x="2180.423" y="820.000" width="0.000" height="19.000" />
  <text class="right" x="1709.164" y="834.000">local-fs.target</text>
  <rect class="activating" x="1725.727" y="840.000" width="75.538" height="19.000" />
  <rect class="active" x="1801.265" y="840.000" width="379.158" height="19.000" />
  <rect class="deactivating" x="2180.423" y="840.000" width="0.000" height="19.000" />
  <text class="right" x="1720.727" y="854.000">systemd-udevd.service (755ms)</text>
  <rect class="activating" x="1846.066" y="860.000" width="51.785" height="19.000" />
  <rect class="active" x="1897.851" y="860.000" width="282.572" height="19.000" />
  <rect class="deactivating" x="2180.423" y="860.000" width="0.000" height="19.000" />
  <text class="right" x="1841.066" y="874.000">systemd-journal-flush.service (517ms)</text>
  <rect class="activating" x="1899.591" y="880.000" width="4.265" height="19.000" />
  <rect class="active" x="1903.856" y="880.000" width="276.567" height="19.000" />
  <rect class="deactivating" x="2180.423" y="880.000" width="0.000" height="19.000" />
  <text class="right" x="1894.591" y="894.000">systemd-tmpfiles-setup.service (42ms)</text>
  <rect class="activating" x="1905.322" y="900.000" width="6.278" height="19.000" />
  <rect class="active" x="1911.600" y="900.000" width="268.823" height="19.000" />
  <rect class="deactivating" x="2180.423" y="900.000" width="0.000" height="19.000" />
  <text class="right" x="1900.322" y="914.000">systemd-update-utmp.service (62ms)</text>
  <rect class="activating" x="1905.714" y="920.000" width="0.000" height="19.000" />
  <rect class="active" x="1905.714" y="920.000" width="274.709" height="19.000" />
  <rect class="deactivating" x="2180.423" y="920.000" width="0.000" height="19.000" />
  <text class="right" x="1900.714" y="934.000">time-sync.target</text>
  <rect class="activating" x="1911.880" y="940.000" width="0.000" height="19.000" />
  <rect class="active" x="1911.880" y="940.000" width="268.543" height="19.000" />
  <rect class="deactivating" x="2180.423" y="940.000" width="0.000" height="19.000" />
  <text class="right" x="1906.880" y="954.000">sysinit.target</text>
  <rect class="activating" x="1912.139" y="960.000" width="0.000" height="19.000" />
  <rect class="active" x="1912.139" y="960.000" width="268.284" height="19.000" />
  <rect class="deactivating" x="2180.423" y="960.000" width="0.000" height="19.000" />
  <text class="right" x="1907.139" y="974.000">avahi-daemon.socket</text>
  <rect class="activating" x="1912.724" y="980.000" width="4.341" height="19.000" />
  <rect class="active" x="1917.066" y="980.000" width="263.357" height="19.000" />
  <rect class="deactivating" x="2180.423" y="980.000" width="0.000" height="19.000" />
  <text class="right" x="1907.724" y="994.000">sshd.socket (43ms)</text>
  <rect class="activating" x="1913.082" y="1000.000" width="0.000" height="19.000" />
  <rect class="active" x="1913.082" y="1000.000" width="267.341" height="19.000" />
  <rect class="deactivating" x="2180.423" y="1000.000" width="0.000" height="19.000" />
  <text class="right" x="1908.082" y="1014.000">dbus.socket</text>
  <rect class="activating" x="1913.901" y="1020.000" width="35.533" height="19.000" />
  <rect class="active" x="1949.434" y="1020.000" width="230.989" height="19.000" />
  <rect class="deactivating" x="2180.423" y="1020.000" width="0.000" height="19.000" />
  <text class="right" x="1908.901" y="1034.000">console-kit-log-system-start.service (355ms)</text>
  <rect class="activating" x="1914.424" y="1040.000" width="0.000" height="19.000" />
  <rect class="active" x="1914.424" y="1040.000" width="265.999" height="19.000" />
  <rect class="deactivating" x="2180.423" y="1040.000" width="0.000" height="19.000" />
  <text class="right" x="1909.424" y="1054.000">rpcbind.socket</text>
  <rect class="activating" x="1914.761" y="1060.000" width="0.000" height="19.000" />
  <rect class="active" x="1914.761" y="1060.000" width="265.662" height="19.000" />
  <rect class="deactivating" x="2180.423" y="1060.000" width="0.000" height="19.000" />
  <text class="right" x="1909.761" y="1074.000">systemd-tmpfiles-clean.timer</text>
  <rect class="activating" x="1915.078" y="1080.000" width="0.000" height="19.000" />
  <rect class="active" x="1915.078" y="1080.000" width="265.345" height="19.000" />
  <rect class="deactivating" x="2180.423" y="1080.000" width="0.000" height="19.000" />
  <text class="right" x="1910.078" y="1094.000">timers.target</text>
  <rect class="activating" x="1917.334" y="1100.000" width="0.000" height="19.000" />
  <rect class="active" x="1917.334" y="1100.000" width="263.089" height="19.000" />
  <rect class="deactivating" x="2180.423" y="1100.000" width="0.000" height="19.000" />
  <text class="right" x="1912.334" y="1114.000">sockets.target</text>
  <rect class="activating" x="1917.568" y="1120.000" width="0.000" height="19.000" />
  <rect class="active" x="1917.568" y="1120.000" width="262.855" height="19.000" />
  <rect class="deactivating" x="2180.423" y="1120.000" width="0.000" height="19.000" />
  <text class="right" x="1912.568" y="1134.000">basic.target</text>
  <rect class="activating" x="1918.132" y="1140.000" width="33.131" height="19.000" />
  <rect class="active" x="1951.263" y="1140.000" width="0.000" height="19.000" />
  <rect class="deactivating" x="1951.263" y="1140.000" width="0.000" height="19.000" />
  <text class="right" x="1913.132" y="1154.000">essential-cfg-start.service (331ms)</text>
  <rect class="activating" x="1918.831" y="1160.000" width="0.000" height="19.000" />
  <rect class="active" x="1918.831" y="1160.000" width="261.592" height="19.000" />
  <rect class="deactivating" x="2180.423" y="1160.000" width="0.000" height="19.000" />
  <text class="right" x="1913.831" y="1174.000">dbus.service</text>
  <rect class="activating" x="1932.997" y="1180.000" width="19.232" height="19.000" />
  <rect class="active" x="1952.229" y="1180.000" width="228.194" height="19.000" />
  <rect class="deactivating" x="2180.423" y="1180.000" width="0.000" height="19.000" />
  <text class="right" x="1927.997" y="1194.000">ebtables.service (192ms)</text>
  <rect class="activating" x="1933.951" y="1200.000" width="116.647" height="19.000" />
  <rect class="active" x="2050.598" y="1200.000" width="129.825" height="19.000" />
  <rect class="deactivating" x="2180.423" y="1200.000" width="0.000" height="19.000" />
  <text class="right" x="1928.951" y="1214.000">openvswitch-nonetwork.service (1.166s)</text>
  <rect class="activating" x="1934.599" y="1220.000" width="17.877" height="19.000" />
  <rect class="active" x="1952.476" y="1220.000" width="227.947" height="19.000" />
  <rect class="deactivating" x="2180.423" y="1220.000" width="0.000" height="19.000" />
  <text class="right" x="1929.599" y="1234.000">container-shutdown-notifier.service (178ms)</text>
  <rect class="activating" x="1935.180" y="1240.000" width="19.048" height="19.000" />
  <rect class="active" x="1954.228" y="1240.000" width="226.195" height="19.000" />
  <rect class="deactivating" x="2180.423" y="1240.000" width="0.000" height="19.000" />
  <text class="right" x="1930.180" y="1254.000">avahi-daemon.service (190ms)</text>
  <rect class="activating" x="1936.371" y="1260.000" width="16.315" height="19.000" />
  <rect class="active" x="1952.686" y="1260.000" width="227.737" height="19.000" />
  <rect class="deactivating" x="2180.423" y="1260.000" width="0.000" height="19.000" />
  <text class="right" x="1931.371" y="1274.000">watchdog.service (163ms)</text>
  <rect class="activating" x="1937.829" y="1280.000" width="15.381" height="19.000" />
  <rect class="active" x="1953.210" y="1280.000" width="227.213" height="19.000" />
  <rect class="deactivating" x="2180.423" y="1280.000" width="0.000" height="19.000" />
  <text class="right" x="1932.829" y="1294.000">sysklogd.service (153ms)</text>
  <rect class="activating" x="1939.591" y="1300.000" width="0.000" height="19.000" />
  <rect class="active" x="1939.591" y="1300.000" width="240.832" height="19.000" />
  <rect class="deactivating" x="2180.423" y="1300.000" width="0.000" height="19.000" />
  <text class="right" x="1934.591" y="1314.000">crond.service</text>
  <rect class="activating" x="1943.209" y="1320.000" width="50.452" height="19.000" />
  <rect class="active" x="1993.661" y="1320.000" width="186.762" height="19.000" />
  <rect class="deactivating" x="2180.423" y="1320.000" width="0.000" height="19.000" />
  <text class="right" x="1938.209" y="1334.000">klogd.service (504ms)</text>
  <rect class="activating" x="1943.923" y="1340.000" width="0.000" height="19.000" />
  <rect class="active" x="1943.923" y="1340.000" width="236.500" height="19.000" />
  <rect class="deactivating" x="2180.423" y="1340.000" width="0.000" height="19.000" />
  <text class="right" x="1938.923" y="1354.000">atd.service</text>
  <rect class="activating" x="1945.391" y="1360.000" width="16.784" height="19.000" />
  <rect class="active" x="1962.174" y="1360.000" width="218.249" height="19.000" />
  <rect class="deactivating" x="2180.423" y="1360.000" width="0.000" height="19.000" />
  <text class="right" x="1940.391" y="1374.000">systemd-logind.service (167ms)</text>
  <rect class="activating" x="1947.718" y="1380.000" width="10.905" height="19.000" />
  <rect class="active" x="1958.624" y="1380.000" width="221.799" height="19.000" />
  <rect class="deactivating" x="2180.423" y="1380.000" width="0.000" height="19.000" />
  <text class="right" x="1942.718" y="1394.000">systemd-user-sessions.service (109ms)</text>
  <rect class="activating" x="2051.459" y="1400.000" width="7.402" height="19.000" />
  <rect class="active" x="2058.861" y="1400.000" width="0.000" height="19.000" />
  <rect class="deactivating" x="2058.861" y="1400.000" width="0.000" height="19.000" />
  <text class="right" x="2046.459" y="1414.000">overc-network-prime.service (74ms)</text>
  <rect class="activating" x="2059.595" y="1420.000" width="27.795" height="19.000" />
  <rect class="active" x="2087.390" y="1420.000" width="93.033" height="19.000" />
  <rect class="deactivating" x="2180.423" y="1420.000" width="0.000" height="19.000" />
  <text class="right" x="2054.595" y="1434.000">systemd-networkd.service (277ms)</text>
  <rect class="activating" x="2087.949" y="1440.000" width="81.553" height="19.000" />
  <rect class="active" x="2169.502" y="1440.000" width="0.000" height="19.000" />
  <rect class="deactivating" x="2169.502" y="1440.000" width="0.000" height="19.000" />
  <text class="right" x="2082.949" y="1454.000">overc-network-prime-port-forward.service (815ms)</text>
  <rect class="activating" x="2088.931" y="1460.000" width="0.000" height="19.000" />
  <rect class="active" x="2088.931" y="1460.000" width="91.492" height="19.000" />
  <rect class="deactivating" x="2180.423" y="1460.000" width="0.000" height="19.000" />
  <text class="right" x="2083.931" y="1474.000">network.target</text>
  <rect class="activating" x="2089.420" y="1480.000" width="11.156" height="19.000" />
  <rect class="active" x="2100.576" y="1480.000" width="79.847" height="19.000" />
  <rect class="deactivating" x="2180.423" y="1480.000" width="0.000" height="19.000" />
  <text class="right" x="2084.420" y="1494.000">rc-local.service (111ms)</text>
  <rect class="activating" x="2089.890" y="1500.000" width="11.362" height="19.000" />
  <rect class="active" x="2101.252" y="1500.000" width="79.171" height="19.000" />
  <rect class="deactivating" x="2180.423" y="1500.000" width="0.000" height="19.000" />
  <text class="right" x="2084.890" y="1514.000">openvswitch-switch.service (113ms)</text>
  <rect class="activating" x="2092.138" y="1520.000" width="28.965" height="19.000" />
  <rect class="active" x="2121.103" y="1520.000" width="59.320" height="19.000" />
  <rect class="deactivating" x="2180.423" y="1520.000" width="0.000" height="19.000" />
  <text class="right" x="2087.138" y="1534.000">hac.service (289ms)</text>
  <rect class="activating" x="2093.543" y="1540.000" width="16.564" height="19.000" />
  <rect class="active" x="2110.107" y="1540.000" width="70.316" height="19.000" />
  <rect class="deactivating" x="2180.423" y="1540.000" width="0.000" height="19.000" />
  <text class="right" x="2088.543" y="1554.000">systemd-resolved.service (165ms)</text>
  <rect class="activating" x="2095.484" y="1560.000" width="23.352" height="19.000" />
  <rect class="active" x="2118.836" y="1560.000" width="61.587" height="19.000" />
  <rect class="deactivating" x="2180.423" y="1560.000" width="0.000" height="19.000" />
  <text class="right" x="2090.484" y="1574.000">tcf-agent.service (233ms)</text>
  <rect class="activating" x="2096.403" y="1580.000" width="11.062" height="19.000" />
  <rect class="active" x="2107.465" y="1580.000" width="72.958" height="19.000" />
  <rect class="deactivating" x="2180.423" y="1580.000" width="0.000" height="19.000" />
  <text class="right" x="2091.403" y="1594.000">xinetd.service (110ms)</text>
  <rect class="activating" x="2103.924" y="1600.000" width="0.000" height="19.000" />
  <rect class="active" x="2103.924" y="1600.000" width="76.499" height="19.000" />
  <rect class="deactivating" x="2180.423" y="1600.000" width="0.000" height="19.000" />
  <text class="right" x="2098.924" y="1614.000">console-getty.service</text>
  <rect class="activating" x="2104.247" y="1620.000" width="0.000" height="19.000" />
  <rect class="active" x="2104.247" y="1620.000" width="76.176" height="19.000" />
  <rect class="deactivating" x="2180.423" y="1620.000" width="0.000" height="19.000" />
  <text class="right" x="2099.247" y="1634.000">getty.target</text>
  <rect class="activating" x="2110.566" y="1640.000" width="11.305" height="19.000" />
  <rect class="active" x="2121.871" y="1640.000" width="58.552" height="19.000" />
  <rect class="deactivating" x="2180.423" y="1640.000" width="0.000" height="19.000" />
  <text class="right" x="2105.566" y="1654.000">dnsmasq.service (113ms)</text>
  <rect class="activating" x="2170.488" y="1660.000" width="0.000" height="19.000" />
  <rect class="active" x="2170.488" y="1660.000" width="9.935" height="19.000" />
  <rect class="deactivating" x="2180.423" y="1660.000" width="0.000" height="19.000" />
  <text class="right" x="2165.488" y="1674.000">multi-user.target</text>
  <rect class="activating" x="2172.640" y="1680.000" width="3.965" height="19.000" />
  <rect class="active" x="2176.604" y="1680.000" width="0.000" height="19.000" />
  <rect class="deactivating" x="2176.604" y="1680.000" width="0.000" height="19.000" />
  <text class="right" x="2167.640" y="1694.000">systemd-update-utmp-runlevel.service (39ms)</text>
</g>
<g transform="translate(20,100)">
  <rect class="activating" x="0.000" y="1720.000" width="30.000" height="19.000" />
  <text class="left" x="45.000" y="1734.000">Activating</text>
  <rect class="active" x="0.000" y="1740.000" width="30.000" height="19.000" />
  <text class="left" x="45.000" y="1754.000">Active</text>
  <rect class="deactivating" x="0.000" y="1760.000" width="30.000" height="19.000" />
  <text class="left" x="45.000" y="1774.000">Deactivating</text>
  <rect class="security" x="0.000" y="1780.000" width="30.000" height="19.000" />
  <text class="left" x="45.000" y="1794.000">Setting up security module</text>
  <rect class="generators" x="0.000" y="1800.000" width="30.000" height="19.000" />
  <text class="left" x="45.000" y="1814.000">Generators</text>
  <rect class="unitsload" x="0.000" y="1820.000" width="30.000" height="19.000" />
  <text class="left" x="45.000" y="1834.000">Loading unit files</text>
</g>

</svg>
