<?xml version="1.0" standalone="no"?>
<!DOCTYPE svg PUBLIC "-//W3C//DTD SVG 1.1//EN" "http://www.w3.org/Graphics/SVG/1.1/DTD/svg11.dtd">
<svg width="2906px" height="1690px" version="1.1" xmlns="http://www.w3.org/2000/svg">

<!-- This file is a systemd-analyze SVG file. It is best rendered in a   -->
<!-- browser such as Chrome, Chromium or Firefox. Other applications     -->
<!-- that render these files properly but much slower are ImageMagick,   -->
<!-- gimp, inkscape, etc. To display the files on your system, just      -->
<!-- point your browser to this file.                                    -->

<!-- This plot was generated by systemd-analyze version 216              -->

<defs>
  <style type="text/css">
    <![CDATA[
      rect       { stroke-width: 1; stroke-opacity: 0; }
      rect.background   { fill: rgb(255,255,255); }
      rect.activating   { fill: rgb(255,0,0); fill-opacity: 0.7; }
      rect.active       { fill: rgb(200,150,150); fill-opacity: 0.7; }
      rect.deactivating { fill: rgb(150,100,100); fill-opacity: 0.7; }
      rect.kernel       { fill: rgb(150,150,150); fill-opacity: 0.7; }
      rect.initrd       { fill: rgb(150,150,150); fill-opacity: 0.7; }
      rect.firmware     { fill: rgb(150,150,150); fill-opacity: 0.7; }
      rect.loader       { fill: rgb(150,150,150); fill-opacity: 0.7; }
      rect.userspace    { fill: rgb(150,150,150); fill-opacity: 0.7; }
      rect.security     { fill: rgb(144,238,144); fill-opacity: 0.7; }
      rect.generators   { fill: rgb(102,204,255); fill-opacity: 0.7; }
      rect.unitsload    { fill: rgb( 82,184,255); fill-opacity: 0.7; }
      rect.box   { fill: rgb(240,240,240); stroke: rgb(192,192,192); }
      line       { stroke: rgb(64,64,64); stroke-width: 1; }
//    line.sec1  { }
      line.sec5  { stroke-width: 2; }
      line.sec01 { stroke: rgb(224,224,224); stroke-width: 1; }
      text       { font-family: Verdana, Helvetica; font-size: 14px; }
      text.left  { font-family: Verdana, Helvetica; font-size: 14px; text-anchor: start; }
      text.right { font-family: Verdana, Helvetica; font-size: 14px; text-anchor: end; }
      text.sec   { font-size: 10px; }
    ]]>
   </style>
</defs>

<rect class="background" width="100%" height="100%" />
<text x="20" y="50">Startup finished in 12.625s (userspace) = 12.625s</text><text x="20" y="30">Linux  (  ) arm lxc</text><g transform="translate(20.000,100)">
<rect class="box" x="0" y="0" width="2826.349" height="1440.000" />
  <line class="sec5" x1="0.000" y1="0" x2="0.000" y2="1440.000" />
  <text class="sec" x="0.000" y="-5.000" >0.0s</text>
  <line class="sec01" x1="10.000" y1="0" x2="10.000" y2="1440.000" />
  <line class="sec01" x1="20.000" y1="0" x2="20.000" y2="1440.000" />
  <line class="sec01" x1="30.000" y1="0" x2="30.000" y2="1440.000" />
  <line class="sec01" x1="40.000" y1="0" x2="40.000" y2="1440.000" />
  <line class="sec01" x1="50.000" y1="0" x2="50.000" y2="1440.000" />
  <line class="sec01" x1="60.000" y1="0" x2="60.000" y2="1440.000" />
  <line class="sec01" x1="70.000" y1="0" x2="70.000" y2="1440.000" />
  <line class="sec01" x1="80.000" y1="0" x2="80.000" y2="1440.000" />
  <line class="sec01" x1="90.000" y1="0" x2="90.000" y2="1440.000" />
  <line class="sec1" x1="100.000" y1="0" x2="100.000" y2="1440.000" />
  <text class="sec" x="100.000" y="-5.000" >1.0s</text>
  <line class="sec01" x1="110.000" y1="0" x2="110.000" y2="1440.000" />
  <line class="sec01" x1="120.000" y1="0" x2="120.000" y2="1440.000" />
  <line class="sec01" x1="130.000" y1="0" x2="130.000" y2="1440.000" />
  <line class="sec01" x1="140.000" y1="0" x2="140.000" y2="1440.000" />
  <line class="sec01" x1="150.000" y1="0" x2="150.000" y2="1440.000" />
  <line class="sec01" x1="160.000" y1="0" x2="160.000" y2="1440.000" />
  <line class="sec01" x1="170.000" y1="0" x2="170.000" y2="1440.000" />
  <line class="sec01" x1="180.000" y1="0" x2="180.000" y2="1440.000" />
  <line class="sec01" x1="190.000" y1="0" x2="190.000" y2="1440.000" />
  <line class="sec1" x1="200.000" y1="0" x2="200.000" y2="1440.000" />
  <text class="sec" x="200.000" y="-5.000" >2.0s</text>
  <line class="sec01" x1="210.000" y1="0" x2="210.000" y2="1440.000" />
  <line class="sec01" x1="220.000" y1="0" x2="220.000" y2="1440.000" />
  <line class="sec01" x1="230.000" y1="0" x2="230.000" y2="1440.000" />
  <line class="sec01" x1="240.000" y1="0" x2="240.000" y2="1440.000" />
  <line class="sec01" x1="250.000" y1="0" x2="250.000" y2="1440.000" />
  <line class="sec01" x1="260.000" y1="0" x2="260.000" y2="1440.000" />
  <line class="sec01" x1="270.000" y1="0" x2="270.000" y2="1440.000" />
  <line class="sec01" x1="280.000" y1="0" x2="280.000" y2="1440.000" />
  <line class="sec01" x1="290.000" y1="0" x2="290.000" y2="1440.000" />
  <line class="sec1" x1="300.000" y1="0" x2="300.000" y2="1440.000" />
  <text class="sec" x="300.000" y="-5.000" >3.0s</text>
  <line class="sec01" x1="310.000" y1="0" x2="310.000" y2="1440.000" />
  <line class="sec01" x1="320.000" y1="0" x2="320.000" y2="1440.000" />
  <line class="sec01" x1="330.000" y1="0" x2="330.000" y2="1440.000" />
  <line class="sec01" x1="340.000" y1="0" x2="340.000" y2="1440.000" />
  <line class="sec01" x1="350.000" y1="0" x2="350.000" y2="1440.000" />
  <line class="sec01" x1="360.000" y1="0" x2="360.000" y2="1440.000" />
  <line class="sec01" x1="370.000" y1="0" x2="370.000" y2="1440.000" />
  <line class="sec01" x1="380.000" y1="0" x2="380.000" y2="1440.000" />
  <line class="sec01" x1="390.000" y1="0" x2="390.000" y2="1440.000" />
  <line class="sec1" x1="400.000" y1="0" x2="400.000" y2="1440.000" />
  <text class="sec" x="400.000" y="-5.000" >4.0s</text>
  <line class="sec01" x1="410.000" y1="0" x2="410.000" y2="1440.000" />
  <line class="sec01" x1="420.000" y1="0" x2="420.000" y2="1440.000" />
  <line class="sec01" x1="430.000" y1="0" x2="430.000" y2="1440.000" />
  <line class="sec01" x1="440.000" y1="0" x2="440.000" y2="1440.000" />
  <line class="sec01" x1="450.000" y1="0" x2="450.000" y2="1440.000" />
  <line class="sec01" x1="460.000" y1="0" x2="460.000" y2="1440.000" />
  <line class="sec01" x1="470.000" y1="0" x2="470.000" y2="1440.000" />
  <line class="sec01" x1="480.000" y1="0" x2="480.000" y2="1440.000" />
  <line class="sec01" x1="490.000" y1="0" x2="490.000" y2="1440.000" />
  <line class="sec5" x1="500.000" y1="0" x2="500.000" y2="1440.000" />
  <text class="sec" x="500.000" y="-5.000" >5.0s</text>
  <line class="sec01" x1="510.000" y1="0" x2="510.000" y2="1440.000" />
  <line class="sec01" x1="520.000" y1="0" x2="520.000" y2="1440.000" />
  <line class="sec01" x1="530.000" y1="0" x2="530.000" y2="1440.000" />
  <line class="sec01" x1="540.000" y1="0" x2="540.000" y2="1440.000" />
  <line class="sec01" x1="550.000" y1="0" x2="550.000" y2="1440.000" />
  <line class="sec01" x1="560.000" y1="0" x2="560.000" y2="1440.000" />
  <line class="sec01" x1="570.000" y1="0" x2="570.000" y2="1440.000" />
  <line class="sec01" x1="580.000" y1="0" x2="580.000" y2="1440.000" />
  <line class="sec01" x1="590.000" y1="0" x2="590.000" y2="1440.000" />
  <line class="sec1" x1="600.000" y1="0" x2="600.000" y2="1440.000" />
  <text class="sec" x="600.000" y="-5.000" >6.0s</text>
  <line class="sec01" x1="610.000" y1="0" x2="610.000" y2="1440.000" />
  <line class="sec01" x1="620.000" y1="0" x2="620.000" y2="1440.000" />
  <line class="sec01" x1="630.000" y1="0" x2="630.000" y2="1440.000" />
  <line class="sec01" x1="640.000" y1="0" x2="640.000" y2="1440.000" />
  <line class="sec01" x1="650.000" y1="0" x2="650.000" y2="1440.000" />
  <line class="sec01" x1="660.000" y1="0" x2="660.000" y2="1440.000" />
  <line class="sec01" x1="670.000" y1="0" x2="670.000" y2="1440.000" />
  <line class="sec01" x1="680.000" y1="0" x2="680.000" y2="1440.000" />
  <line class="sec01" x1="690.000" y1="0" x2="690.000" y2="1440.000" />
  <line class="sec1" x1="700.000" y1="0" x2="700.000" y2="1440.000" />
  <text class="sec" x="700.000" y="-5.000" >7.0s</text>
  <line class="sec01" x1="710.000" y1="0" x2="710.000" y2="1440.000" />
  <line class="sec01" x1="720.000" y1="0" x2="720.000" y2="1440.000" />
  <line class="sec01" x1="730.000" y1="0" x2="730.000" y2="1440.000" />
  <line class="sec01" x1="740.000" y1="0" x2="740.000" y2="1440.000" />
  <line class="sec01" x1="750.000" y1="0" x2="750.000" y2="1440.000" />
  <line class="sec01" x1="760.000" y1="0" x2="760.000" y2="1440.000" />
  <line class="sec01" x1="770.000" y1="0" x2="770.000" y2="1440.000" />
  <line class="sec01" x1="780.000" y1="0" x2="780.000" y2="1440.000" />
  <line class="sec01" x1="790.000" y1="0" x2="790.000" y2="1440.000" />
  <line class="sec1" x1="800.000" y1="0" x2="800.000" y2="1440.000" />
  <text class="sec" x="800.000" y="-5.000" >8.0s</text>
  <line class="sec01" x1="810.000" y1="0" x2="810.000" y2="1440.000" />
  <line class="sec01" x1="820.000" y1="0" x2="820.000" y2="1440.000" />
  <line class="sec01" x1="830.000" y1="0" x2="830.000" y2="1440.000" />
  <line class="sec01" x1="840.000" y1="0" x2="840.000" y2="1440.000" />
  <line class="sec01" x1="850.000" y1="0" x2="850.000" y2="1440.000" />
  <line class="sec01" x1="860.000" y1="0" x2="860.000" y2="1440.000" />
  <line class="sec01" x1="870.000" y1="0" x2="870.000" y2="1440.000" />
  <line class="sec01" x1="880.000" y1="0" x2="880.000" y2="1440.000" />
  <line class="sec01" x1="890.000" y1="0" x2="890.000" y2="1440.000" />
  <line class="sec1" x1="900.000" y1="0" x2="900.000" y2="1440.000" />
  <text class="sec" x="900.000" y="-5.000" >9.0s</text>
  <line class="sec01" x1="910.000" y1="0" x2="910.000" y2="1440.000" />
  <line class="sec01" x1="920.000" y1="0" x2="920.000" y2="1440.000" />
  <line class="sec01" x1="930.000" y1="0" x2="930.000" y2="1440.000" />
  <line class="sec01" x1="940.000" y1="0" x2="940.000" y2="1440.000" />
  <line class="sec01" x1="950.000" y1="0" x2="950.000" y2="1440.000" />
  <line class="sec01" x1="960.000" y1="0" x2="960.000" y2="1440.000" />
  <line class="sec01" x1="970.000" y1="0" x2="970.000" y2="1440.000" />
  <line class="sec01" x1="980.000" y1="0" x2="980.000" y2="1440.000" />
  <line class="sec01" x1="990.000" y1="0" x2="990.000" y2="1440.000" />
  <line class="sec5" x1="1000.000" y1="0" x2="1000.000" y2="1440.000" />
  <text class="sec" x="1000.000" y="-5.000" >10.0s</text>
  <line class="sec01" x1="1010.000" y1="0" x2="1010.000" y2="1440.000" />
  <line class="sec01" x1="1020.000" y1="0" x2="1020.000" y2="1440.000" />
  <line class="sec01" x1="1030.000" y1="0" x2="1030.000" y2="1440.000" />
  <line class="sec01" x1="1040.000" y1="0" x2="1040.000" y2="1440.000" />
  <line class="sec01" x1="1050.000" y1="0" x2="1050.000" y2="1440.000" />
  <line class="sec01" x1="1060.000" y1="0" x2="1060.000" y2="1440.000" />
  <line class="sec01" x1="1070.000" y1="0" x2="1070.000" y2="1440.000" />
  <line class="sec01" x1="1080.000" y1="0" x2="1080.000" y2="1440.000" />
  <line class="sec01" x1="1090.000" y1="0" x2="1090.000" y2="1440.000" />
  <line class="sec1" x1="1100.000" y1="0" x2="1100.000" y2="1440.000" />
  <text class="sec" x="1100.000" y="-5.000" >11.0s</text>
  <line class="sec01" x1="1110.000" y1="0" x2="1110.000" y2="1440.000" />
  <line class="sec01" x1="1120.000" y1="0" x2="1120.000" y2="1440.000" />
  <line class="sec01" x1="1130.000" y1="0" x2="1130.000" y2="1440.000" />
  <line class="sec01" x1="1140.000" y1="0" x2="1140.000" y2="1440.000" />
  <line class="sec01" x1="1150.000" y1="0" x2="1150.000" y2="1440.000" />
  <line class="sec01" x1="1160.000" y1="0" x2="1160.000" y2="1440.000" />
  <line class="sec01" x1="1170.000" y1="0" x2="1170.000" y2="1440.000" />
  <line class="sec01" x1="1180.000" y1="0" x2="1180.000" y2="1440.000" />
  <line class="sec01" x1="1190.000" y1="0" x2="1190.000" y2="1440.000" />
  <line class="sec1" x1="1200.000" y1="0" x2="1200.000" y2="1440.000" />
  <text class="sec" x="1200.000" y="-5.000" >12.0s</text>
  <line class="sec01" x1="1210.000" y1="0" x2="1210.000" y2="1440.000" />
  <line class="sec01" x1="1220.000" y1="0" x2="1220.000" y2="1440.000" />
  <line class="sec01" x1="1230.000" y1="0" x2="1230.000" y2="1440.000" />
  <line class="sec01" x1="1240.000" y1="0" x2="1240.000" y2="1440.000" />
  <line class="sec01" x1="1250.000" y1="0" x2="1250.000" y2="1440.000" />
  <line class="sec01" x1="1260.000" y1="0" x2="1260.000" y2="1440.000" />
  <line class="sec01" x1="1270.000" y1="0" x2="1270.000" y2="1440.000" />
  <line class="sec01" x1="1280.000" y1="0" x2="1280.000" y2="1440.000" />
  <line class="sec01" x1="1290.000" y1="0" x2="1290.000" y2="1440.000" />
  <line class="sec1" x1="1300.000" y1="0" x2="1300.000" y2="1440.000" />
  <text class="sec" x="1300.000" y="-5.000" >13.0s</text>
  <line class="sec01" x1="1310.000" y1="0" x2="1310.000" y2="1440.000" />
  <line class="sec01" x1="1320.000" y1="0" x2="1320.000" y2="1440.000" />
  <line class="sec01" x1="1330.000" y1="0" x2="1330.000" y2="1440.000" />
  <line class="sec01" x1="1340.000" y1="0" x2="1340.000" y2="1440.000" />
  <line class="sec01" x1="1350.000" y1="0" x2="1350.000" y2="1440.000" />
  <line class="sec01" x1="1360.000" y1="0" x2="1360.000" y2="1440.000" />
  <line class="sec01" x1="1370.000" y1="0" x2="1370.000" y2="1440.000" />
  <line class="sec01" x1="1380.000" y1="0" x2="1380.000" y2="1440.000" />
  <line class="sec01" x1="1390.000" y1="0" x2="1390.000" y2="1440.000" />
  <line class="sec1" x1="1400.000" y1="0" x2="1400.000" y2="1440.000" />
  <text class="sec" x="1400.000" y="-5.000" >14.0s</text>
  <line class="sec01" x1="1410.000" y1="0" x2="1410.000" y2="1440.000" />
  <line class="sec01" x1="1420.000" y1="0" x2="1420.000" y2="1440.000" />
  <line class="sec01" x1="1430.000" y1="0" x2="1430.000" y2="1440.000" />
  <line class="sec01" x1="1440.000" y1="0" x2="1440.000" y2="1440.000" />
  <line class="sec01" x1="1450.000" y1="0" x2="1450.000" y2="1440.000" />
  <line class="sec01" x1="1460.000" y1="0" x2="1460.000" y2="1440.000" />
  <line class="sec01" x1="1470.000" y1="0" x2="1470.000" y2="1440.000" />
  <line class="sec01" x1="1480.000" y1="0" x2="1480.000" y2="1440.000" />
  <line class="sec01" x1="1490.000" y1="0" x2="1490.000" y2="1440.000" />
  <line class="sec5" x1="1500.000" y1="0" x2="1500.000" y2="1440.000" />
  <text class="sec" x="1500.000" y="-5.000" >15.0s</text>
  <line class="sec01" x1="1510.000" y1="0" x2="1510.000" y2="1440.000" />
  <line class="sec01" x1="1520.000" y1="0" x2="1520.000" y2="1440.000" />
  <line class="sec01" x1="1530.000" y1="0" x2="1530.000" y2="1440.000" />
  <line class="sec01" x1="1540.000" y1="0" x2="1540.000" y2="1440.000" />
  <line class="sec01" x1="1550.000" y1="0" x2="1550.000" y2="1440.000" />
  <line class="sec01" x1="1560.000" y1="0" x2="1560.000" y2="1440.000" />
  <line class="sec01" x1="1570.000" y1="0" x2="1570.000" y2="1440.000" />
  <line class="sec01" x1="1580.000" y1="0" x2="1580.000" y2="1440.000" />
  <line class="sec01" x1="1590.000" y1="0" x2="1590.000" y2="1440.000" />
  <line class="sec1" x1="1600.000" y1="0" x2="1600.000" y2="1440.000" />
  <text class="sec" x="1600.000" y="-5.000" >16.0s</text>
  <line class="sec01" x1="1610.000" y1="0" x2="1610.000" y2="1440.000" />
  <line class="sec01" x1="1620.000" y1="0" x2="1620.000" y2="1440.000" />
  <line class="sec01" x1="1630.000" y1="0" x2="1630.000" y2="1440.000" />
  <line class="sec01" x1="1640.000" y1="0" x2="1640.000" y2="1440.000" />
  <line class="sec01" x1="1650.000" y1="0" x2="1650.000" y2="1440.000" />
  <line class="sec01" x1="1660.000" y1="0" x2="1660.000" y2="1440.000" />
  <line class="sec01" x1="1670.000" y1="0" x2="1670.000" y2="1440.000" />
  <line class="sec01" x1="1680.000" y1="0" x2="1680.000" y2="1440.000" />
  <line class="sec01" x1="1690.000" y1="0" x2="1690.000" y2="1440.000" />
  <line class="sec1" x1="1700.000" y1="0" x2="1700.000" y2="1440.000" />
  <text class="sec" x="1700.000" y="-5.000" >17.0s</text>
  <line class="sec01" x1="1710.000" y1="0" x2="1710.000" y2="1440.000" />
  <line class="sec01" x1="1720.000" y1="0" x2="1720.000" y2="1440.000" />
  <line class="sec01" x1="1730.000" y1="0" x2="1730.000" y2="1440.000" />
  <line class="sec01" x1="1740.000" y1="0" x2="1740.000" y2="1440.000" />
  <line class="sec01" x1="1750.000" y1="0" x2="1750.000" y2="1440.000" />
  <line class="sec01" x1="1760.000" y1="0" x2="1760.000" y2="1440.000" />
  <line class="sec01" x1="1770.000" y1="0" x2="1770.000" y2="1440.000" />
  <line class="sec01" x1="1780.000" y1="0" x2="1780.000" y2="1440.000" />
  <line class="sec01" x1="1790.000" y1="0" x2="1790.000" y2="1440.000" />
  <line class="sec1" x1="1800.000" y1="0" x2="1800.000" y2="1440.000" />
  <text class="sec" x="1800.000" y="-5.000" >18.0s</text>
  <line class="sec01" x1="1810.000" y1="0" x2="1810.000" y2="1440.000" />
  <line class="sec01" x1="1820.000" y1="0" x2="1820.000" y2="1440.000" />
  <line class="sec01" x1="1830.000" y1="0" x2="1830.000" y2="1440.000" />
  <line class="sec01" x1="1840.000" y1="0" x2="1840.000" y2="1440.000" />
  <line class="sec01" x1="1850.000" y1="0" x2="1850.000" y2="1440.000" />
  <line class="sec01" x1="1860.000" y1="0" x2="1860.000" y2="1440.000" />
  <line class="sec01" x1="1870.000" y1="0" x2="1870.000" y2="1440.000" />
  <line class="sec01" x1="1880.000" y1="0" x2="1880.000" y2="1440.000" />
  <line class="sec01" x1="1890.000" y1="0" x2="1890.000" y2="1440.000" />
  <line class="sec1" x1="1900.000" y1="0" x2="1900.000" y2="1440.000" />
  <text class="sec" x="1900.000" y="-5.000" >19.0s</text>
  <line class="sec01" x1="1910.000" y1="0" x2="1910.000" y2="1440.000" />
  <line class="sec01" x1="1920.000" y1="0" x2="1920.000" y2="1440.000" />
  <line class="sec01" x1="1930.000" y1="0" x2="1930.000" y2="1440.000" />
  <line class="sec01" x1="1940.000" y1="0" x2="1940.000" y2="1440.000" />
  <line class="sec01" x1="1950.000" y1="0" x2="1950.000" y2="1440.000" />
  <line class="sec01" x1="1960.000" y1="0" x2="1960.000" y2="1440.000" />
  <line class="sec01" x1="1970.000" y1="0" x2="1970.000" y2="1440.000" />
  <line class="sec01" x1="1980.000" y1="0" x2="1980.000" y2="1440.000" />
  <line class="sec01" x1="1990.000" y1="0" x2="1990.000" y2="1440.000" />
  <line class="sec5" x1="2000.000" y1="0" x2="2000.000" y2="1440.000" />
  <text class="sec" x="2000.000" y="-5.000" >20.0s</text>
  <line class="sec01" x1="2010.000" y1="0" x2="2010.000" y2="1440.000" />
  <line class="sec01" x1="2020.000" y1="0" x2="2020.000" y2="1440.000" />
  <line class="sec01" x1="2030.000" y1="0" x2="2030.000" y2="1440.000" />
  <line class="sec01" x1="2040.000" y1="0" x2="2040.000" y2="1440.000" />
  <line class="sec01" x1="2050.000" y1="0" x2="2050.000" y2="1440.000" />
  <line class="sec01" x1="2060.000" y1="0" x2="2060.000" y2="1440.000" />
  <line class="sec01" x1="2070.000" y1="0" x2="2070.000" y2="1440.000" />
  <line class="sec01" x1="2080.000" y1="0" x2="2080.000" y2="1440.000" />
  <line class="sec01" x1="2090.000" y1="0" x2="2090.000" y2="1440.000" />
  <line class="sec1" x1="2100.000" y1="0" x2="2100.000" y2="1440.000" />
  <text class="sec" x="2100.000" y="-5.000" >21.0s</text>
  <line class="sec01" x1="2110.000" y1="0" x2="2110.000" y2="1440.000" />
  <line class="sec01" x1="2120.000" y1="0" x2="2120.000" y2="1440.000" />
  <line class="sec01" x1="2130.000" y1="0" x2="2130.000" y2="1440.000" />
  <line class="sec01" x1="2140.000" y1="0" x2="2140.000" y2="1440.000" />
  <line class="sec01" x1="2150.000" y1="0" x2="2150.000" y2="1440.000" />
  <line class="sec01" x1="2160.000" y1="0" x2="2160.000" y2="1440.000" />
  <line class="sec01" x1="2170.000" y1="0" x2="2170.000" y2="1440.000" />
  <line class="sec01" x1="2180.000" y1="0" x2="2180.000" y2="1440.000" />
  <line class="sec01" x1="2190.000" y1="0" x2="2190.000" y2="1440.000" />
  <line class="sec1" x1="2200.000" y1="0" x2="2200.000" y2="1440.000" />
  <text class="sec" x="2200.000" y="-5.000" >22.0s</text>
  <line class="sec01" x1="2210.000" y1="0" x2="2210.000" y2="1440.000" />
  <line class="sec01" x1="2220.000" y1="0" x2="2220.000" y2="1440.000" />
  <line class="sec01" x1="2230.000" y1="0" x2="2230.000" y2="1440.000" />
  <line class="sec01" x1="2240.000" y1="0" x2="2240.000" y2="1440.000" />
  <line class="sec01" x1="2250.000" y1="0" x2="2250.000" y2="1440.000" />
  <line class="sec01" x1="2260.000" y1="0" x2="2260.000" y2="1440.000" />
  <line class="sec01" x1="2270.000" y1="0" x2="2270.000" y2="1440.000" />
  <line class="sec01" x1="2280.000" y1="0" x2="2280.000" y2="1440.000" />
  <line class="sec01" x1="2290.000" y1="0" x2="2290.000" y2="1440.000" />
  <line class="sec1" x1="2300.000" y1="0" x2="2300.000" y2="1440.000" />
  <text class="sec" x="2300.000" y="-5.000" >23.0s</text>
  <line class="sec01" x1="2310.000" y1="0" x2="2310.000" y2="1440.000" />
  <line class="sec01" x1="2320.000" y1="0" x2="2320.000" y2="1440.000" />
  <line class="sec01" x1="2330.000" y1="0" x2="2330.000" y2="1440.000" />
  <line class="sec01" x1="2340.000" y1="0" x2="2340.000" y2="1440.000" />
  <line class="sec01" x1="2350.000" y1="0" x2="2350.000" y2="1440.000" />
  <line class="sec01" x1="2360.000" y1="0" x2="2360.000" y2="1440.000" />
  <line class="sec01" x1="2370.000" y1="0" x2="2370.000" y2="1440.000" />
  <line class="sec01" x1="2380.000" y1="0" x2="2380.000" y2="1440.000" />
  <line class="sec01" x1="2390.000" y1="0" x2="2390.000" y2="1440.000" />
  <line class="sec1" x1="2400.000" y1="0" x2="2400.000" y2="1440.000" />
  <text class="sec" x="2400.000" y="-5.000" >24.0s</text>
  <line class="sec01" x1="2410.000" y1="0" x2="2410.000" y2="1440.000" />
  <line class="sec01" x1="2420.000" y1="0" x2="2420.000" y2="1440.000" />
  <line class="sec01" x1="2430.000" y1="0" x2="2430.000" y2="1440.000" />
  <line class="sec01" x1="2440.000" y1="0" x2="2440.000" y2="1440.000" />
  <line class="sec01" x1="2450.000" y1="0" x2="2450.000" y2="1440.000" />
  <line class="sec01" x1="2460.000" y1="0" x2="2460.000" y2="1440.000" />
  <line class="sec01" x1="2470.000" y1="0" x2="2470.000" y2="1440.000" />
  <line class="sec01" x1="2480.000" y1="0" x2="2480.000" y2="1440.000" />
  <line class="sec01" x1="2490.000" y1="0" x2="2490.000" y2="1440.000" />
  <line class="sec5" x1="2500.000" y1="0" x2="2500.000" y2="1440.000" />
  <text class="sec" x="2500.000" y="-5.000" >25.0s</text>
  <line class="sec01" x1="2510.000" y1="0" x2="2510.000" y2="1440.000" />
  <line class="sec01" x1="2520.000" y1="0" x2="2520.000" y2="1440.000" />
  <line class="sec01" x1="2530.000" y1="0" x2="2530.000" y2="1440.000" />
  <line class="sec01" x1="2540.000" y1="0" x2="2540.000" y2="1440.000" />
  <line class="sec01" x1="2550.000" y1="0" x2="2550.000" y2="1440.000" />
  <line class="sec01" x1="2560.000" y1="0" x2="2560.000" y2="1440.000" />
  <line class="sec01" x1="2570.000" y1="0" x2="2570.000" y2="1440.000" />
  <line class="sec01" x1="2580.000" y1="0" x2="2580.000" y2="1440.000" />
  <line class="sec01" x1="2590.000" y1="0" x2="2590.000" y2="1440.000" />
  <line class="sec1" x1="2600.000" y1="0" x2="2600.000" y2="1440.000" />
  <text class="sec" x="2600.000" y="-5.000" >26.0s</text>
  <line class="sec01" x1="2610.000" y1="0" x2="2610.000" y2="1440.000" />
  <line class="sec01" x1="2620.000" y1="0" x2="2620.000" y2="1440.000" />
  <line class="sec01" x1="2630.000" y1="0" x2="2630.000" y2="1440.000" />
  <line class="sec01" x1="2640.000" y1="0" x2="2640.000" y2="1440.000" />
  <line class="sec01" x1="2650.000" y1="0" x2="2650.000" y2="1440.000" />
  <line class="sec01" x1="2660.000" y1="0" x2="2660.000" y2="1440.000" />
  <line class="sec01" x1="2670.000" y1="0" x2="2670.000" y2="1440.000" />
  <line class="sec01" x1="2680.000" y1="0" x2="2680.000" y2="1440.000" />
  <line class="sec01" x1="2690.000" y1="0" x2="2690.000" y2="1440.000" />
  <line class="sec1" x1="2700.000" y1="0" x2="2700.000" y2="1440.000" />
  <text class="sec" x="2700.000" y="-5.000" >27.0s</text>
  <line class="sec01" x1="2710.000" y1="0" x2="2710.000" y2="1440.000" />
  <line class="sec01" x1="2720.000" y1="0" x2="2720.000" y2="1440.000" />
  <line class="sec01" x1="2730.000" y1="0" x2="2730.000" y2="1440.000" />
  <line class="sec01" x1="2740.000" y1="0" x2="2740.000" y2="1440.000" />
  <line class="sec01" x1="2750.000" y1="0" x2="2750.000" y2="1440.000" />
  <line class="sec01" x1="2760.000" y1="0" x2="2760.000" y2="1440.000" />
  <line class="sec01" x1="2770.000" y1="0" x2="2770.000" y2="1440.000" />
  <line class="sec01" x1="2780.000" y1="0" x2="2780.000" y2="1440.000" />
  <line class="sec01" x1="2790.000" y1="0" x2="2790.000" y2="1440.000" />
  <line class="sec1" x1="2800.000" y1="0" x2="2800.000" y2="1440.000" />
  <text class="sec" x="2800.000" y="-5.000" >28.0s</text>
  <line class="sec01" x1="2810.000" y1="0" x2="2810.000" y2="1440.000" />
  <line class="sec01" x1="2820.000" y1="0" x2="2820.000" y2="1440.000" />
  <rect class="active" x="1563.812" y="0.000" width="1262.537" height="19.000" />
  <rect class="security" x="0.000" y="0.000" width="0.000" height="19.000" />
  <rect class="generators" x="1565.958" y="0.000" width="7.296" height="19.000" />
  <rect class="unitsload" x="1574.306" y="0.000" width="13.938" height="19.000" />
  <text class="left" x="1568.812" y="14.000">systemd</text>
  <rect class="activating" x="1588.262" y="20.000" width="0.000" height="19.000" />
  <rect class="active" x="1588.262" y="20.000" width="1238.086" height="19.000" />
  <rect class="deactivating" x="2826.349" y="20.000" width="0.000" height="19.000" />
  <text class="right" x="1583.262" y="34.000">-.mount</text>
  <rect class="activating" x="1588.275" y="40.000" width="0.000" height="19.000" />
  <rect class="active" x="1588.275" y="40.000" width="1238.073" height="19.000" />
  <rect class="deactivating" x="2826.349" y="40.000" width="0.000" height="19.000" />
  <text class="right" x="1583.275" y="54.000">opt-container.mount</text>
  <rect class="activating" x="1588.277" y="60.000" width="0.000" height="19.000" />
  <rect class="active" x="1588.277" y="60.000" width="1238.072" height="19.000" />
  <rect class="deactivating" x="2826.349" y="60.000" width="0.000" height="19.000" />
  <text class="right" x="1583.277" y="74.000">opt-container-local.mount</text>
  <rect class="activating" x="1588.279" y="80.000" width="0.000" height="19.000" />
  <rect class="active" x="1588.279" y="80.000" width="1238.070" height="19.000" />
  <rect class="deactivating" x="2826.349" y="80.000" width="0.000" height="19.000" />
  <text class="right" x="1583.279" y="94.000">var-lib-lxc.mount</text>
  <rect class="activating" x="1588.279" y="100.000" width="0.000" height="19.000" />
  <rect class="active" x="1588.279" y="100.000" width="1238.070" height="19.000" />
  <rect class="deactivating" x="2826.349" y="100.000" width="0.000" height="19.000" />
  <text class="right" x="1583.279" y="114.000">essential.mount</text>
  <rect class="activating" x="1588.281" y="120.000" width="0.000" height="19.000" />
  <rect class="active" x="1588.281" y="120.000" width="1238.068" height="19.000" />
  <rect class="deactivating" x="2826.349" y="120.000" width="0.000" height="19.000" />
  <text class="right" x="1583.281" y="134.000">boot.mount</text>
  <rect class="activating" x="1588.283" y="140.000" width="0.000" height="19.000" />
  <rect class="active" x="1588.283" y="140.000" width="1238.066" height="19.000" />
  <rect class="deactivating" x="2826.349" y="140.000" width="0.000" height="19.000" />
  <text class="right" x="1583.283" y="154.000">host-proc.mount</text>
  <rect class="activating" x="1588.284" y="160.000" width="0.000" height="19.000" />
  <rect class="active" x="1588.284" y="160.000" width="1238.064" height="19.000" />
  <rect class="deactivating" x="2826.349" y="160.000" width="0.000" height="19.000" />
  <text class="right" x="1583.284" y="174.000">dev-mmcblk0p2.swap</text>
  <rect class="activating" x="1588.661" y="180.000" width="0.000" height="19.000" />
  <rect class="active" x="1588.661" y="180.000" width="1237.688" height="19.000" />
  <rect class="deactivating" x="2826.349" y="180.000" width="0.000" height="19.000" />
  <text class="right" x="1583.661" y="194.000">systemd-ask-password-wall.path</text>
  <rect class="activating" x="1588.666" y="200.000" width="0.000" height="19.000" />
  <rect class="active" x="1588.666" y="200.000" width="1237.683" height="19.000" />
  <rect class="deactivating" x="2826.349" y="200.000" width="0.000" height="19.000" />
  <text class="right" x="1583.666" y="214.000">remote-fs.target</text>
  <rect class="activating" x="1588.708" y="220.000" width="0.000" height="19.000" />
  <rect class="active" x="1588.708" y="220.000" width="1237.640" height="19.000" />
  <rect class="deactivating" x="2826.349" y="220.000" width="0.000" height="19.000" />
  <text class="right" x="1583.708" y="234.000">systemd-ask-password-console.path</text>
  <rect class="activating" x="1588.710" y="240.000" width="0.000" height="19.000" />
  <rect class="active" x="1588.710" y="240.000" width="1237.638" height="19.000" />
  <rect class="deactivating" x="2826.349" y="240.000" width="0.000" height="19.000" />
  <text class="right" x="1583.710" y="254.000">paths.target</text>
  <rect class="activating" x="1588.727" y="260.000" width="0.000" height="19.000" />
  <rect class="active" x="1588.727" y="260.000" width="1237.622" height="19.000" />
  <rect class="deactivating" x="2826.349" y="260.000" width="0.000" height="19.000" />
  <text class="right" x="1583.727" y="274.000">swap.target</text>
  <rect class="activating" x="1589.191" y="280.000" width="0.000" height="19.000" />
  <rect class="active" x="1589.191" y="280.000" width="1237.157" height="19.000" />
  <rect class="deactivating" x="2826.349" y="280.000" width="0.000" height="19.000" />
  <text class="right" x="1584.191" y="294.000">-.slice</text>
  <rect class="activating" x="1589.226" y="300.000" width="0.000" height="19.000" />
  <rect class="active" x="1589.226" y="300.000" width="1237.122" height="19.000" />
  <rect class="deactivating" x="2826.349" y="300.000" width="0.000" height="19.000" />
  <text class="right" x="1584.226" y="314.000">systemd-shutdownd.socket</text>
  <rect class="activating" x="1589.254" y="320.000" width="0.000" height="19.000" />
  <rect class="active" x="1589.254" y="320.000" width="1237.095" height="19.000" />
  <rect class="deactivating" x="2826.349" y="320.000" width="0.000" height="19.000" />
  <text class="right" x="1584.254" y="334.000">systemd-initctl.socket</text>
  <rect class="activating" x="1589.284" y="340.000" width="0.000" height="19.000" />
  <rect class="active" x="1589.284" y="340.000" width="1237.065" height="19.000" />
  <rect class="deactivating" x="2826.349" y="340.000" width="0.000" height="19.000" />
  <text class="right" x="1584.284" y="354.000">systemd-journald-dev-log.socket</text>
  <rect class="activating" x="1589.440" y="360.000" width="0.000" height="19.000" />
  <rect class="active" x="1589.440" y="360.000" width="1236.909" height="19.000" />
  <rect class="deactivating" x="2826.349" y="360.000" width="0.000" height="19.000" />
  <text class="right" x="1584.440" y="374.000">user.slice</text>
  <rect class="activating" x="1589.475" y="380.000" width="0.000" height="19.000" />
  <rect class="active" x="1589.475" y="380.000" width="1236.874" height="19.000" />
  <rect class="deactivating" x="2826.349" y="380.000" width="0.000" height="19.000" />
  <text class="right" x="1584.475" y="394.000">systemd-journald.socket</text>
  <rect class="activating" x="1589.615" y="400.000" width="0.000" height="19.000" />
  <rect class="active" x="1589.615" y="400.000" width="1236.733" height="19.000" />
  <rect class="deactivating" x="2826.349" y="400.000" width="0.000" height="19.000" />
  <text class="right" x="1584.615" y="414.000">system.slice</text>
  <rect class="activating" x="1589.899" y="420.000" width="12.893" height="19.000" />
  <rect class="active" x="1602.792" y="420.000" width="1223.556" height="19.000" />
  <rect class="deactivating" x="2826.349" y="420.000" width="0.000" height="19.000" />
  <text class="right" x="1584.899" y="434.000">systemd-remount-fs.service (128ms)</text>
  <rect class="activating" x="1590.259" y="440.000" width="12.362" height="19.000" />
  <rect class="active" x="1602.621" y="440.000" width="1223.728" height="19.000" />
  <rect class="deactivating" x="2826.349" y="440.000" width="0.000" height="19.000" />
  <text class="right" x="1585.259" y="454.000">sys-kernel-debug.mount (123ms)</text>
  <rect class="activating" x="1591.206" y="460.000" width="11.813" height="19.000" />
  <rect class="active" x="1603.019" y="460.000" width="1223.330" height="19.000" />
  <rect class="deactivating" x="2826.349" y="460.000" width="0.000" height="19.000" />
  <text class="right" x="1586.206" y="474.000">systemd-sysctl.service (118ms)</text>
  <rect class="activating" x="1591.586" y="480.000" width="76.158" height="19.000" />
  <rect class="active" x="1667.744" y="480.000" width="1158.605" height="19.000" />
  <rect class="deactivating" x="2826.349" y="480.000" width="0.000" height="19.000" />
  <text class="right" x="1586.586" y="494.000">systemd-udev-trigger.service (761ms)</text>
  <rect class="activating" x="1591.971" y="500.000" width="10.619" height="19.000" />
  <rect class="active" x="1602.590" y="500.000" width="1223.759" height="19.000" />
  <rect class="deactivating" x="2826.349" y="500.000" width="0.000" height="19.000" />
  <text class="right" x="1586.971" y="514.000">sys-kernel-config.mount (106ms)</text>
  <rect class="activating" x="1595.971" y="520.000" width="7.262" height="19.000" />
  <rect class="active" x="1603.233" y="520.000" width="1223.116" height="19.000" />
  <rect class="deactivating" x="2826.349" y="520.000" width="0.000" height="19.000" />
  <text class="right" x="1590.971" y="534.000">kmod-static-nodes.service (72ms)</text>
  <rect class="activating" x="1596.413" y="540.000" width="6.136" height="19.000" />
  <rect class="active" x="1602.549" y="540.000" width="1223.800" height="19.000" />
  <rect class="deactivating" x="2826.349" y="540.000" width="0.000" height="19.000" />
  <text class="right" x="1591.413" y="554.000">dev-mqueue.mount (61ms)</text>
  <rect class="activating" x="1596.609" y="560.000" width="0.000" height="19.000" />
  <rect class="active" x="1596.609" y="560.000" width="1229.740" height="19.000" />
  <rect class="deactivating" x="2826.349" y="560.000" width="0.000" height="19.000" />
  <text class="right" x="1591.609" y="574.000">system-getty.slice</text>
  <rect class="activating" x="1596.972" y="580.000" width="0.000" height="19.000" />
  <rect class="active" x="1596.972" y="580.000" width="1229.377" height="19.000" />
  <rect class="deactivating" x="2826.349" y="580.000" width="0.000" height="19.000" />
  <text class="right" x="1591.972" y="594.000">systemd-journald.service</text>
  <rect class="activating" x="1598.044" y="600.000" width="0.000" height="19.000" />
  <rect class="active" x="1598.044" y="600.000" width="1228.304" height="19.000" />
  <rect class="deactivating" x="2826.349" y="600.000" width="0.000" height="19.000" />
  <text class="right" x="1593.044" y="614.000">slices.target</text>
  <rect class="activating" x="1598.984" y="620.000" width="4.387" height="19.000" />
  <rect class="active" x="1603.371" y="620.000" width="1222.977" height="19.000" />
  <rect class="deactivating" x="2826.349" y="620.000" width="0.000" height="19.000" />
  <text class="right" x="1593.984" y="634.000">tmp.mount (43ms)</text>
  <rect class="activating" x="1607.321" y="640.000" width="7.705" height="19.000" />
  <rect class="active" x="1615.026" y="640.000" width="1211.323" height="19.000" />
  <rect class="deactivating" x="2826.349" y="640.000" width="0.000" height="19.000" />
  <text class="right" x="1602.321" y="654.000">systemd-tmpfiles-setup-dev.service (77ms)</text>
  <rect class="activating" x="1609.382" y="660.000" width="6.864" height="19.000" />
  <rect class="active" x="1616.246" y="660.000" width="1210.103" height="19.000" />
  <rect class="deactivating" x="2826.349" y="660.000" width="0.000" height="19.000" />
  <text class="right" x="1604.382" y="674.000">systemd-random-seed.service (68ms)</text>
  <rect class="activating" x="1618.010" y="680.000" width="0.000" height="19.000" />
  <rect class="active" x="1618.010" y="680.000" width="1208.339" height="19.000" />
  <rect class="deactivating" x="2826.349" y="680.000" width="0.000" height="19.000" />
  <text class="right" x="1613.010" y="694.000">local-fs-pre.target</text>
  <rect class="activating" x="1620.012" y="700.000" width="0.000" height="19.000" />
  <rect class="active" x="1620.012" y="700.000" width="1206.337" height="19.000" />
  <rect class="deactivating" x="2826.349" y="700.000" width="0.000" height="19.000" />
  <text class="right" x="1615.012" y="714.000">local-fs.target</text>
  <rect class="activating" x="1622.318" y="720.000" width="12.497" height="19.000" />
  <rect class="active" x="1634.815" y="720.000" width="1191.534" height="19.000" />
  <rect class="deactivating" x="2826.349" y="720.000" width="0.000" height="19.000" />
  <text class="right" x="1617.318" y="734.000">systemd-tmpfiles-setup.service (124ms)</text>
  <rect class="activating" x="1623.342" y="740.000" width="8.042" height="19.000" />
  <rect class="active" x="1631.384" y="740.000" width="0.000" height="19.000" />
  <rect class="deactivating" x="1631.384" y="740.000" width="0.000" height="19.000" />
  <text class="right" x="1618.342" y="754.000">systemd-journal-flush.service (80ms)</text>
  <rect class="activating" x="1636.123" y="760.000" width="0.000" height="19.000" />
  <rect class="active" x="1636.123" y="760.000" width="1190.225" height="19.000" />
  <rect class="deactivating" x="2826.349" y="760.000" width="0.000" height="19.000" />
  <text class="right" x="1631.123" y="774.000">time-sync.target</text>
  <rect class="activating" x="1636.455" y="780.000" width="14.904" height="19.000" />
  <rect class="active" x="1651.359" y="780.000" width="1174.989" height="19.000" />
  <rect class="deactivating" x="2826.349" y="780.000" width="0.000" height="19.000" />
  <text class="right" x="1631.455" y="794.000">systemd-update-utmp.service (149ms)</text>
  <rect class="activating" x="1667.825" y="800.000" width="0.000" height="19.000" />
  <rect class="active" x="1667.825" y="800.000" width="1158.524" height="19.000" />
  <rect class="deactivating" x="2826.349" y="800.000" width="0.000" height="19.000" />
  <text class="right" x="1662.825" y="814.000">sysinit.target</text>
  <rect class="activating" x="1679.762" y="820.000" width="0.000" height="19.000" />
  <rect class="active" x="1679.762" y="820.000" width="1146.587" height="19.000" />
  <rect class="deactivating" x="2826.349" y="820.000" width="0.000" height="19.000" />
  <text class="right" x="1674.762" y="834.000">uuidd.socket</text>
  <rect class="activating" x="1682.268" y="840.000" width="8.685" height="19.000" />
  <rect class="active" x="1690.954" y="840.000" width="1135.395" height="19.000" />
  <rect class="deactivating" x="2826.349" y="840.000" width="0.000" height="19.000" />
  <text class="right" x="1677.268" y="854.000">sshd.socket (86ms)</text>
  <rect class="activating" x="1683.024" y="860.000" width="0.000" height="19.000" />
  <rect class="active" x="1683.024" y="860.000" width="1143.325" height="19.000" />
  <rect class="deactivating" x="2826.349" y="860.000" width="0.000" height="19.000" />
  <text class="right" x="1678.024" y="874.000">systemd-tmpfiles-clean.timer</text>
  <rect class="activating" x="1685.378" y="880.000" width="0.000" height="19.000" />
  <rect class="active" x="1685.378" y="880.000" width="1140.971" height="19.000" />
  <rect class="deactivating" x="2826.349" y="880.000" width="0.000" height="19.000" />
  <text class="right" x="1680.378" y="894.000">timers.target</text>
  <rect class="activating" x="1687.182" y="900.000" width="0.000" height="19.000" />
  <rect class="active" x="1687.182" y="900.000" width="1139.167" height="19.000" />
  <rect class="deactivating" x="2826.349" y="900.000" width="0.000" height="19.000" />
  <text class="right" x="1682.182" y="914.000">avahi-daemon.socket</text>
  <rect class="activating" x="1689.038" y="920.000" width="0.000" height="19.000" />
  <rect class="active" x="1689.038" y="920.000" width="1137.310" height="19.000" />
  <rect class="deactivating" x="2826.349" y="920.000" width="0.000" height="19.000" />
  <text class="right" x="1684.038" y="934.000">dbus.socket</text>
  <rect class="activating" x="1694.332" y="940.000" width="0.000" height="19.000" />
  <rect class="active" x="1694.332" y="940.000" width="1132.017" height="19.000" />
  <rect class="deactivating" x="2826.349" y="940.000" width="0.000" height="19.000" />
  <text class="right" x="1689.332" y="954.000">sockets.target</text>
  <rect class="activating" x="1696.404" y="960.000" width="0.000" height="19.000" />
  <rect class="active" x="1696.404" y="960.000" width="1129.945" height="19.000" />
  <rect class="deactivating" x="2826.349" y="960.000" width="0.000" height="19.000" />
  <text class="right" x="1691.404" y="974.000">basic.target</text>
  <rect class="activating" x="1699.342" y="980.000" width="78.049" height="19.000" />
  <rect class="active" x="1777.391" y="980.000" width="0.000" height="19.000" />
  <rect class="deactivating" x="1777.391" y="980.000" width="0.000" height="19.000" />
  <text class="right" x="1694.342" y="994.000">chvt.service (780ms)</text>
  <rect class="activating" x="1700.544" y="1000.000" width="72.580" height="19.000" />
  <rect class="active" x="1773.124" y="1000.000" width="1053.225" height="19.000" />
  <rect class="deactivating" x="2826.349" y="1000.000" width="0.000" height="19.000" />
  <text class="right" x="1695.544" y="1014.000">avahi-daemon.service (725ms)</text>
  <rect class="activating" x="1716.644" y="1020.000" width="166.321" height="19.000" />
  <rect class="active" x="1882.965" y="1020.000" width="943.384" height="19.000" />
  <rect class="deactivating" x="2826.349" y="1020.000" width="0.000" height="19.000" />
  <text class="right" x="1711.644" y="1034.000">openvswitch-nonetwork.service (1.663s)</text>
  <rect class="activating" x="1717.699" y="1040.000" width="60.137" height="19.000" />
  <rect class="active" x="1777.835" y="1040.000" width="1048.513" height="19.000" />
  <rect class="deactivating" x="2826.349" y="1040.000" width="0.000" height="19.000" />
  <text class="right" x="1712.699" y="1054.000">container-shutdown-notifier.service (601ms)</text>
  <rect class="activating" x="1720.063" y="1060.000" width="58.109" height="19.000" />
  <rect class="active" x="1778.173" y="1060.000" width="1048.176" height="19.000" />
  <rect class="deactivating" x="2826.349" y="1060.000" width="0.000" height="19.000" />
  <text class="right" x="1715.063" y="1074.000">ebtables.service (581ms)</text>
  <rect class="activating" x="1724.251" y="1080.000" width="0.000" height="19.000" />
  <rect class="active" x="1724.251" y="1080.000" width="1102.098" height="19.000" />
  <rect class="deactivating" x="2826.349" y="1080.000" width="0.000" height="19.000" />
  <text class="right" x="1719.251" y="1094.000">cube-cmd-server.service</text>
  <rect class="activating" x="1727.484" y="1100.000" width="0.000" height="19.000" />
  <rect class="active" x="1727.484" y="1100.000" width="1098.865" height="19.000" />
  <rect class="deactivating" x="2826.349" y="1100.000" width="0.000" height="19.000" />
  <text class="right" x="1722.484" y="1114.000">crond.service</text>
  <rect class="activating" x="1729.954" y="1120.000" width="49.098" height="19.000" />
  <rect class="active" x="1779.052" y="1120.000" width="1047.297" height="19.000" />
  <rect class="deactivating" x="2826.349" y="1120.000" width="0.000" height="19.000" />
  <text class="right" x="1724.954" y="1134.000">systemd-user-sessions.service (490ms)</text>
  <rect class="activating" x="1734.217" y="1140.000" width="0.000" height="19.000" />
  <rect class="active" x="1734.217" y="1140.000" width="1092.131" height="19.000" />
  <rect class="deactivating" x="2826.349" y="1140.000" width="0.000" height="19.000" />
  <text class="right" x="1729.217" y="1154.000">dbus.service</text>
  <rect class="activating" x="1773.515" y="1160.000" width="16.983" height="19.000" />
  <rect class="active" x="1790.498" y="1160.000" width="1035.851" height="19.000" />
  <rect class="deactivating" x="2826.349" y="1160.000" width="0.000" height="19.000" />
  <text class="right" x="1768.515" y="1174.000">systemd-networkd.service (169ms)</text>
  <rect class="activating" x="1775.318" y="1180.000" width="9.461" height="19.000" />
  <rect class="active" x="1784.779" y="1180.000" width="1041.570" height="19.000" />
  <rect class="deactivating" x="2826.349" y="1180.000" width="0.000" height="19.000" />
  <text class="right" x="1770.318" y="1194.000">systemd-logind.service (94ms)</text>
  <rect class="activating" x="1791.571" y="1200.000" width="23.490" height="19.000" />
  <rect class="active" x="1815.061" y="1200.000" width="1011.288" height="19.000" />
  <rect class="deactivating" x="2826.349" y="1200.000" width="0.000" height="19.000" />
  <text class="right" x="1786.571" y="1214.000">systemd-resolved.service (234ms)</text>
  <rect class="activating" x="1791.599" y="1220.000" width="0.000" height="19.000" />
  <rect class="active" x="1791.599" y="1220.000" width="1034.750" height="19.000" />
  <rect class="deactivating" x="2826.349" y="1220.000" width="0.000" height="19.000" />
  <text class="right" x="1786.599" y="1234.000">network.target</text>
  <rect class="activating" x="1792.013" y="1240.000" width="1034.059" height="19.000" />
  <rect class="active" x="2826.072" y="1240.000" width="0.276" height="19.000" />
  <rect class="deactivating" x="2826.349" y="1240.000" width="0.000" height="19.000" />
  <text class="right" x="1787.013" y="1254.000">dom0-contctl.service (10.340s)</text>
  <rect class="activating" x="1793.678" y="1260.000" width="21.627" height="19.000" />
  <rect class="active" x="1815.304" y="1260.000" width="1011.045" height="19.000" />
  <rect class="deactivating" x="2826.349" y="1260.000" width="0.000" height="19.000" />
  <text class="right" x="1788.678" y="1274.000">tcf-agent.service (216ms)</text>
  <rect class="activating" x="1794.140" y="1280.000" width="11.833" height="19.000" />
  <rect class="active" x="1805.974" y="1280.000" width="1020.375" height="19.000" />
  <rect class="deactivating" x="2826.349" y="1280.000" width="0.000" height="19.000" />
  <text class="right" x="1789.140" y="1294.000">xinetd.service (118ms)</text>
  <rect class="activating" x="1794.728" y="1300.000" width="0.000" height="19.000" />
  <rect class="active" x="1794.728" y="1300.000" width="1031.620" height="19.000" />
  <rect class="deactivating" x="2826.349" y="1300.000" width="0.000" height="19.000" />
  <text class="right" x="1789.728" y="1314.000">dnsmasq.service</text>
  <rect class="activating" x="1797.318" y="1320.000" width="10.571" height="19.000" />
  <rect class="active" x="1807.889" y="1320.000" width="1018.460" height="19.000" />
  <rect class="deactivating" x="2826.349" y="1320.000" width="0.000" height="19.000" />
  <text class="right" x="1792.318" y="1334.000">rc-local.service (105ms)</text>
  <rect class="activating" x="1812.515" y="1340.000" width="0.000" height="19.000" />
  <rect class="active" x="1812.515" y="1340.000" width="1013.833" height="19.000" />
  <rect class="deactivating" x="2826.349" y="1340.000" width="0.000" height="19.000" />
  <text class="right" x="1807.515" y="1354.000">console-getty.service</text>
  <rect class="activating" x="1812.821" y="1360.000" width="0.000" height="19.000" />
  <rect class="active" x="1812.821" y="1360.000" width="1013.527" height="19.000" />
  <rect class="deactivating" x="2826.349" y="1360.000" width="0.000" height="19.000" />
  <text class="right" x="1807.821" y="1374.000">getty.target</text>
  <rect class="activating" x="1884.060" y="1380.000" width="2.017" height="19.000" />
  <rect class="active" x="1886.076" y="1380.000" width="940.272" height="19.000" />
  <rect class="deactivating" x="2826.349" y="1380.000" width="0.000" height="19.000" />
  <text class="right" x="1879.060" y="1394.000">openvswitch-switch.service (20ms)</text>
  <rect class="activating" x="1887.099" y="1400.000" width="0.000" height="19.000" />
  <rect class="active" x="1887.099" y="1400.000" width="939.249" height="19.000" />
  <rect class="deactivating" x="2826.349" y="1400.000" width="0.000" height="19.000" />
  <text class="right" x="1882.099" y="1414.000">multi-user.target</text>
  <rect class="activating" x="1888.721" y="1420.000" width="4.147" height="19.000" />
  <rect class="active" x="1892.869" y="1420.000" width="0.000" height="19.000" />
  <rect class="deactivating" x="1892.869" y="1420.000" width="0.000" height="19.000" />
  <text class="right" x="1883.721" y="1434.000">systemd-update-utmp-runlevel.service (41ms)</text>
</g>
<g transform="translate(20,100)">
  <rect class="activating" x="0.000" y="1460.000" width="30.000" height="19.000" />
  <text class="left" x="45.000" y="1474.000">Activating</text>
  <rect class="active" x="0.000" y="1480.000" width="30.000" height="19.000" />
  <text class="left" x="45.000" y="1494.000">Active</text>
  <rect class="deactivating" x="0.000" y="1500.000" width="30.000" height="19.000" />
  <text class="left" x="45.000" y="1514.000">Deactivating</text>
  <rect class="security" x="0.000" y="1520.000" width="30.000" height="19.000" />
  <text class="left" x="45.000" y="1534.000">Setting up security module</text>
  <rect class="generators" x="0.000" y="1540.000" width="30.000" height="19.000" />
  <text class="left" x="45.000" y="1554.000">Generators</text>
  <rect class="unitsload" x="0.000" y="1560.000" width="30.000" height="19.000" />
  <text class="left" x="45.000" y="1574.000">Loading unit files</text>
</g>

</svg>
